<svg width="360" height="304" viewBox="0 0 360 304" fill="none" xmlns="http://www.w3.org/2000/svg">
<path d="M86.01 230.947C86.01 233.547 83.9397 235.651 81.3826 235.651C78.8254 235.651 76.7551 233.547 76.7551 230.947C76.7551 228.348 78.8254 226.243 81.3826 226.243C83.9335 226.243 86.01 228.348 86.01 230.947Z" fill="#F5F5F5"/>
<path d="M286.284 50.7734C284.189 53.7111 282.612 52.1827 276.949 55.5463C273.868 57.3816 272.39 61.6346 273.111 65.1862C273.832 68.7377 276.931 71.8883 280.499 71.8445C282.803 71.8132 284.892 70.5604 287.061 69.7712C289.23 68.982 291.953 68.7753 293.555 70.4602C295.804 72.8279 294.245 76.9995 293.105 79.6678C292.637 80.7702 292.36 81.9666 292.415 83.163C292.674 88.5372 298.084 88.5748 301.029 86.2573C303.266 84.4972 304.566 81.81 306.218 79.4737C307.869 77.1373 310.278 74.945 313.106 75.064C316.15 75.1893 318.387 77.8514 320.642 79.9372C322.897 82.023 326.44 83.6891 328.825 81.7599C330.612 80.3193 330.717 77.5883 330.242 75.3208C329.768 73.0534 328.862 70.7859 329.195 68.4934C329.614 65.6058 331.764 63.5889 334.34 62.0731C337.1 60.4445 336.761 56.2165 333.742 55.1517C333.717 55.1454 333.699 55.1329 333.674 55.1266C331.395 54.3437 328.924 54.1934 326.693 53.2663C324.463 52.3393 322.398 50.2598 322.596 47.8232C322.83 44.9293 326.108 42.831 324.863 39.5864C324.167 37.7637 322.38 36.6111 320.457 36.5485C316.144 36.4044 313.273 39.5739 310.112 41.9729C307.555 43.9084 304.153 45.4367 301.245 44.1025C297.973 42.593 296.957 38.2334 294.017 36.1351C291.349 34.2247 287.264 34.7947 285.2 37.3628C283.136 39.9309 283.401 44.1151 285.773 46.395C285.773 46.395 288.17 48.1426 286.284 50.7734Z" fill="#EBEBEB"/>
<path d="M349.844 136.58L347.281 135.067L315 191.541L317.562 193.054L349.844 136.58Z" fill="#E0E0E0"/>
<path d="M309.872 113.603L278.127 169.137C278.115 169.156 278.121 169.187 278.146 169.194L314.826 190.86C314.845 190.872 314.876 190.866 314.882 190.841L346.627 135.307C346.639 135.288 346.633 135.257 346.609 135.251L309.928 113.584C309.916 113.578 309.885 113.584 309.872 113.603Z" fill="#EBEBEB"/>
<path d="M315.005 191.549L277.474 169.381C277.455 169.369 277.449 169.344 277.455 169.325L309.693 112.927C309.706 112.908 309.73 112.902 309.749 112.908L347.28 135.075C347.299 135.088 347.305 135.113 347.298 135.131L315.06 191.53C315.054 191.555 315.023 191.561 315.005 191.549ZM278.817 169.018L314.647 190.183C314.666 190.196 314.697 190.189 314.703 190.164L345.955 135.495C345.968 135.476 345.961 135.445 345.937 135.438L310.106 114.273C310.088 114.261 310.057 114.267 310.051 114.292L278.798 168.962C278.792 168.981 278.798 169.006 278.817 169.018Z" fill="#E0E0E0"/>
<path d="M311.617 119.223L283.816 167.861C283.803 167.879 283.809 167.911 283.834 167.917L313.176 185.249C313.195 185.261 313.226 185.255 313.232 185.236L341.034 136.598C341.046 136.58 341.04 136.548 341.015 136.542L311.673 119.21C311.654 119.192 311.63 119.204 311.617 119.223Z" fill="white"/>
<path d="M315.394 166.2L298.942 156.485C298.923 156.472 298.917 156.447 298.93 156.428L310.138 136.817C310.15 136.798 310.175 136.792 310.193 136.804L326.645 146.519C326.664 146.532 326.67 146.557 326.657 146.576L315.449 166.187C315.437 166.206 315.412 166.212 315.394 166.2Z" fill="#EBEBEB"/>
<path d="M315.498 163.042C315.486 163.118 314.463 162.999 313.015 161.896C312.312 161.339 311.517 160.499 310.994 159.265C310.482 158.044 310.26 156.434 310.815 154.781C311.351 153.133 312.885 151.586 314.943 151.229C315.455 151.141 315.997 151.129 316.533 151.223C317.106 151.323 317.648 151.567 318.117 151.924C318.585 152.281 319.016 152.776 319.226 153.459C319.441 154.148 319.287 155.006 318.807 155.564C318.332 156.14 317.716 156.422 317.131 156.591C316.527 156.76 315.935 156.797 315.356 156.785C314.185 156.76 312.99 156.472 311.893 155.896C310.803 155.319 309.811 154.436 309.145 153.296C308.486 152.162 308.141 150.828 308.221 149.469C308.289 148.116 308.843 146.751 309.767 145.786C310.679 144.815 311.887 144.182 313.169 144.007C313.81 143.919 314.463 143.957 315.097 144.12C315.732 144.301 316.317 144.608 316.81 145.059C317.297 145.504 317.704 146.118 317.833 146.838C317.969 147.552 317.802 148.285 317.482 148.849C317.168 149.419 316.699 149.882 316.182 150.196C315.664 150.509 315.116 150.684 314.58 150.791C313.514 150.985 312.479 150.916 311.517 150.672C310.556 150.427 309.675 149.989 308.948 149.413C308.221 148.83 307.642 148.091 307.284 147.314C306.545 145.755 306.576 144.063 307.124 142.811C307.672 141.527 308.665 140.8 309.496 140.437C310.347 140.067 311.086 140.055 311.548 140.124C312.017 140.205 312.238 140.336 312.226 140.38C312.214 140.443 311.973 140.418 311.536 140.443C311.105 140.481 310.464 140.587 309.761 140.988C309.077 141.383 308.295 142.084 307.937 143.136C307.562 144.176 307.617 145.56 308.276 146.801C308.905 148.041 310.217 149.037 311.819 149.381C312.614 149.557 313.489 149.582 314.315 149.413C315.134 149.237 315.868 148.824 316.213 148.141C316.576 147.465 316.428 146.757 315.806 146.206C315.504 145.936 315.11 145.73 314.697 145.617C314.284 145.517 313.822 145.491 313.366 145.56C312.46 145.692 311.554 146.168 310.889 146.882C310.223 147.59 309.835 148.536 309.78 149.563C309.718 150.584 309.983 151.624 310.482 152.488C310.975 153.352 311.733 154.041 312.596 154.511C313.458 154.981 314.432 155.232 315.381 155.263C315.861 155.275 316.33 155.25 316.736 155.144C317.143 155.037 317.494 154.849 317.685 154.624C317.876 154.398 317.926 154.135 317.858 153.86C317.784 153.578 317.556 153.265 317.266 153.033C316.977 152.795 316.626 152.632 316.287 152.563C315.911 152.488 315.516 152.482 315.134 152.532C314.37 152.638 313.649 152.977 313.083 153.453C312.509 153.929 312.103 154.524 311.844 155.169C311.333 156.472 311.431 157.862 311.795 158.933C312.177 160.017 312.811 160.838 313.403 161.42C314.623 162.585 315.553 162.911 315.498 163.042Z" fill="#E0E0E0"/>
<path d="M95.2586 46.5942C95.2586 46.5942 96.4786 48.1914 96.0596 49.2688C95.6406 50.3462 90.3785 58.0881 92.6645 63.1742C94.9443 68.2603 99.3253 73.7348 99.3253 73.7348L112.271 73.2149C112.271 73.2149 118.248 62.7358 117.983 59.3346C117.546 53.6972 113.257 47.991 113.257 47.991L114.218 45.8363C114.218 45.8363 102.061 42.7921 95.2586 46.5942Z" fill="#E0E0E0"/>
<path d="M136.413 17.7749L137.029 25.1035C137.029 25.1035 129.351 27.6027 127.953 34.9813C126.554 42.3537 127.053 58.3638 127.053 58.3638L137.873 62.003C137.873 62.003 149.765 43.9196 150.702 40.6061C151.638 37.2864 149.094 29.3127 149.094 29.3127L153.672 23.5877C153.672 23.5814 145.97 14.3111 136.413 17.7749Z" fill="#E0E0E0"/>
<path d="M128.982 38.6642C127.516 36.046 125.692 32.7826 125.889 29.2498C125.982 27.5962 126.592 26.2996 127.602 25.6044C128.563 24.9404 129.907 24.8339 131.201 25.31C132.297 25.7171 133.228 26.475 133.973 27.0826L133.037 28.2664C132.34 27.7027 131.558 27.0576 130.689 26.7381C129.863 26.4249 129.001 26.475 128.44 26.8634C127.608 27.4396 127.423 28.6611 127.38 29.3375C127.208 32.4255 128.908 35.4697 130.276 37.9126L128.982 38.6642Z" fill="#E0E0E0"/>
<path d="M147.72 45.9677L146.981 44.6461C148.768 43.6063 150.357 42.2721 151.701 40.6874C152.434 39.823 152.878 39.1152 153.136 38.4074C153.438 37.5744 153.457 36.71 153.186 36.0398C152.859 35.2443 152.083 34.6242 151.158 34.4112C150.283 34.217 149.291 34.3673 148.361 34.8434L147.689 33.4842C148.928 32.8515 150.277 32.6511 151.485 32.9204C152.878 33.2336 154.061 34.2045 154.572 35.4447C154.997 36.4782 154.985 37.7122 154.541 38.9211C154.128 40.061 153.414 40.9881 152.841 41.6646C151.38 43.3996 149.661 44.8403 147.72 45.9677Z" fill="#E0E0E0"/>
<path d="M153.654 23.6439C153.647 23.7128 152.612 23.6814 150.961 23.4434C149.31 23.2054 147.048 22.7231 144.621 21.9339C142.193 21.1384 140.079 20.18 138.6 19.3971C137.122 18.6141 136.265 18.0253 136.296 17.9627C136.339 17.8875 137.257 18.351 138.767 19.04C140.276 19.7291 142.39 20.6122 144.787 21.4015C147.184 22.1844 149.408 22.7231 151.029 23.0551C152.649 23.3871 153.66 23.5562 153.654 23.6439Z" fill="#EBEBEB"/>
<path d="M244.553 214.961C245.4 214.961 246.087 214.262 246.087 213.401C246.087 212.539 245.4 211.841 244.553 211.841C243.705 211.841 243.018 212.539 243.018 213.401C243.018 214.262 243.705 214.961 244.553 214.961Z" fill="#E0E0E0"/>
<path d="M249.931 220.817C250.778 220.817 251.465 220.119 251.465 219.257C251.465 218.396 250.778 217.697 249.931 217.697C249.083 217.697 248.396 218.396 248.396 219.257C248.396 220.119 249.083 220.817 249.931 220.817Z" fill="#E0E0E0"/>
<path d="M241.656 223.235C242.504 223.235 243.191 222.536 243.191 221.675C243.191 220.813 242.504 220.115 241.656 220.115C240.809 220.115 240.122 220.813 240.122 221.675C240.122 222.536 240.809 223.235 241.656 223.235Z" fill="#E0E0E0"/>
<path d="M247.726 228.497C248.573 228.497 249.26 227.798 249.26 226.937C249.26 226.075 248.573 225.377 247.726 225.377C246.878 225.377 246.191 226.075 246.191 226.937C246.191 227.798 246.878 228.497 247.726 228.497Z" fill="#E0E0E0"/>
<path d="M254.633 232.793C254.633 233.651 253.949 234.353 253.099 234.353C252.254 234.353 251.564 233.657 251.564 232.793C251.564 231.934 252.248 231.233 253.099 231.233C253.949 231.233 254.633 231.928 254.633 232.793Z" fill="#E0E0E0"/>
<path d="M244.829 236.771C245.677 236.771 246.364 236.072 246.364 235.211C246.364 234.349 245.677 233.651 244.829 233.651C243.982 233.651 243.294 234.349 243.294 235.211C243.294 236.072 243.982 236.771 244.829 236.771Z" fill="#E0E0E0"/>
<path d="M256.426 205.402C257.273 205.402 257.96 204.703 257.96 203.842C257.96 202.98 257.273 202.282 256.426 202.282C255.578 202.282 254.891 202.98 254.891 203.842C254.891 204.703 255.578 205.402 256.426 205.402Z" fill="#E0E0E0"/>
<path d="M261.804 211.258C262.652 211.258 263.339 210.56 263.339 209.698C263.339 208.837 262.652 208.139 261.804 208.139C260.957 208.139 260.27 208.837 260.27 209.698C260.27 210.56 260.957 211.258 261.804 211.258Z" fill="#E0E0E0"/>
<path d="M253.529 213.683C254.377 213.683 255.064 212.984 255.064 212.123C255.064 211.261 254.377 210.563 253.529 210.563C252.682 210.563 251.995 211.261 251.995 212.123C251.995 212.984 252.682 213.683 253.529 213.683Z" fill="#E0E0E0"/>
<path d="M259.599 218.938C260.447 218.938 261.134 218.24 261.134 217.378C261.134 216.517 260.447 215.818 259.599 215.818C258.752 215.818 258.065 216.517 258.065 217.378C258.065 218.24 258.752 218.938 259.599 218.938Z" fill="#E0E0E0"/>
<path d="M264.978 224.794C265.825 224.794 266.512 224.096 266.512 223.235C266.512 222.373 265.825 221.675 264.978 221.675C264.13 221.675 263.443 222.373 263.443 223.235C263.443 224.096 264.13 224.794 264.978 224.794Z" fill="#E0E0E0"/>
<path d="M256.703 227.212C257.55 227.212 258.237 226.514 258.237 225.652C258.237 224.791 257.55 224.092 256.703 224.092C255.855 224.092 255.168 224.791 255.168 225.652C255.168 226.514 255.855 227.212 256.703 227.212Z" fill="#E0E0E0"/>
<path d="M262.896 231.734C262.896 232.593 262.212 233.294 261.361 233.294C260.517 233.294 259.827 232.599 259.827 231.734C259.827 230.876 260.511 230.174 261.361 230.174C262.212 230.181 262.896 230.876 262.896 231.734Z" fill="#E0E0E0"/>
<path d="M266.746 239.151C267.593 239.151 268.281 238.452 268.281 237.591C268.281 236.729 267.593 236.031 266.746 236.031C265.898 236.031 265.211 236.729 265.211 237.591C265.211 238.452 265.898 239.151 266.746 239.151Z" fill="#E0E0E0"/>
<path d="M260.005 240.008C260.005 240.867 259.321 241.568 258.471 241.568C257.627 241.568 256.936 240.873 256.936 240.008C256.936 239.144 257.62 238.448 258.471 238.448C259.321 238.455 260.005 239.15 260.005 240.008Z" fill="#E0E0E0"/>
<path d="M266.07 245.27C266.07 246.128 265.386 246.83 264.536 246.83C263.685 246.83 263.001 246.135 263.001 245.27C263.001 244.412 263.685 243.71 264.536 243.71C265.386 243.71 266.07 244.406 266.07 245.27Z" fill="#E0E0E0"/>
<path d="M269.92 252.687C270.768 252.687 271.455 251.988 271.455 251.127C271.455 250.265 270.768 249.567 269.92 249.567C269.073 249.567 268.386 250.265 268.386 251.127C268.386 251.988 269.073 252.687 269.92 252.687Z" fill="#E0E0E0"/>
<path d="M261.645 255.104C262.492 255.104 263.179 254.406 263.179 253.544C263.179 252.683 262.492 251.984 261.645 251.984C260.797 251.984 260.11 252.683 260.11 253.544C260.11 254.406 260.797 255.104 261.645 255.104Z" fill="#E0E0E0"/>
<path d="M273.241 223.742C274.089 223.742 274.776 223.044 274.776 222.182C274.776 221.321 274.089 220.622 273.241 220.622C272.394 220.622 271.707 221.321 271.707 222.182C271.707 223.044 272.394 223.742 273.241 223.742Z" fill="#E0E0E0"/>
<path d="M278.62 229.599C279.467 229.599 280.154 228.9 280.154 228.039C280.154 227.177 279.467 226.479 278.62 226.479C277.772 226.479 277.085 227.177 277.085 228.039C277.085 228.9 277.772 229.599 278.62 229.599Z" fill="#E0E0E0"/>
<path d="M270.345 232.017C271.193 232.017 271.88 231.318 271.88 230.457C271.88 229.595 271.193 228.897 270.345 228.897C269.498 228.897 268.811 229.595 268.811 230.457C268.811 231.318 269.498 232.017 270.345 232.017Z" fill="#E0E0E0"/>
<path d="M276.415 237.272C277.262 237.272 277.949 236.573 277.949 235.712C277.949 234.85 277.262 234.152 276.415 234.152C275.567 234.152 274.88 234.85 274.88 235.712C274.88 236.573 275.567 237.272 276.415 237.272Z" fill="#E0E0E0"/>
<path d="M281.793 243.128C282.641 243.128 283.328 242.43 283.328 241.568C283.328 240.707 282.641 240.008 281.793 240.008C280.946 240.008 280.259 240.707 280.259 241.568C280.259 242.43 280.946 243.128 281.793 243.128Z" fill="#E0E0E0"/>
<path d="M273.518 245.546C274.366 245.546 275.053 244.848 275.053 243.986C275.053 243.125 274.366 242.426 273.518 242.426C272.671 242.426 271.984 243.125 271.984 243.986C271.984 244.848 272.671 245.546 273.518 245.546Z" fill="#E0E0E0"/>
<path d="M268.245 194.014C268.245 194.873 267.561 195.574 266.711 195.574C265.86 195.574 265.176 194.879 265.176 194.014C265.176 193.156 265.86 192.454 266.711 192.454C267.561 192.454 268.245 193.15 268.245 194.014Z" fill="#E0E0E0"/>
<path d="M272.095 201.431C272.942 201.431 273.629 200.732 273.629 199.871C273.629 199.009 272.942 198.311 272.095 198.311C271.247 198.311 270.56 199.009 270.56 199.871C270.56 200.732 271.247 201.431 272.095 201.431Z" fill="#E0E0E0"/>
<path d="M263.82 203.849C264.667 203.849 265.354 203.15 265.354 202.289C265.354 201.427 264.667 200.729 263.82 200.729C262.972 200.729 262.285 201.427 262.285 202.289C262.285 203.15 262.972 203.849 263.82 203.849Z" fill="#E0E0E0"/>
<path d="M271.418 207.544C271.418 208.402 270.734 209.104 269.884 209.104C269.033 209.104 268.349 208.408 268.349 207.544C268.349 206.686 269.033 205.984 269.884 205.984C270.734 205.984 271.418 206.686 271.418 207.544Z" fill="#E0E0E0"/>
<path d="M275.268 214.961C276.116 214.961 276.803 214.262 276.803 213.401C276.803 212.539 276.116 211.841 275.268 211.841C274.421 211.841 273.734 212.539 273.734 213.401C273.734 214.262 274.421 214.961 275.268 214.961Z" fill="#E0E0E0"/>
<path d="M268.521 215.818C268.521 216.676 267.837 217.378 266.987 217.378C266.143 217.378 265.452 216.683 265.452 215.818C265.452 214.96 266.136 214.258 266.987 214.258C267.837 214.264 268.521 214.96 268.521 215.818Z" fill="#E0E0E0"/>
<path d="M278.59 186.016C279.437 186.016 280.124 185.318 280.124 184.456C280.124 183.595 279.437 182.896 278.59 182.896C277.742 182.896 277.055 183.595 277.055 184.456C277.055 185.318 277.742 186.016 278.59 186.016Z" fill="#E0E0E0"/>
<path d="M283.968 191.873C284.816 191.873 285.503 191.174 285.503 190.313C285.503 189.451 284.816 188.753 283.968 188.753C283.121 188.753 282.434 189.451 282.434 190.313C282.434 191.174 283.121 191.873 283.968 191.873Z" fill="#E0E0E0"/>
<path d="M277.228 192.73C277.228 193.588 276.544 194.29 275.693 194.29C274.849 194.29 274.159 193.595 274.159 192.73C274.159 191.872 274.843 191.17 275.693 191.17C276.538 191.177 277.228 191.872 277.228 192.73Z" fill="#E0E0E0"/>
<path d="M281.763 199.545C282.611 199.545 283.298 198.847 283.298 197.985C283.298 197.124 282.611 196.425 281.763 196.425C280.916 196.425 280.228 197.124 280.228 197.985C280.228 198.847 280.916 199.545 281.763 199.545Z" fill="#E0E0E0"/>
<path d="M287.141 205.402C287.989 205.402 288.676 204.703 288.676 203.842C288.676 202.98 287.989 202.282 287.141 202.282C286.294 202.282 285.607 202.98 285.607 203.842C285.607 204.703 286.294 205.402 287.141 205.402Z" fill="#E0E0E0"/>
<path d="M278.866 207.826C279.714 207.826 280.401 207.128 280.401 206.266C280.401 205.405 279.714 204.706 278.866 204.706C278.019 204.706 277.332 205.405 277.332 206.266C277.332 207.128 278.019 207.826 278.866 207.826Z" fill="#E0E0E0"/>
<path d="M283.531 213.908C284.379 213.908 285.066 213.21 285.066 212.348C285.066 211.486 284.379 210.788 283.531 210.788C282.684 210.788 281.997 211.486 281.997 212.348C281.997 213.21 282.684 213.908 283.531 213.908Z" fill="#E0E0E0"/>
<path d="M288.91 219.765C289.757 219.765 290.444 219.066 290.444 218.205C290.444 217.343 289.757 216.645 288.91 216.645C288.062 216.645 287.375 217.343 287.375 218.205C287.375 219.066 288.062 219.765 288.91 219.765Z" fill="#E0E0E0"/>
<path d="M280.635 222.183C281.482 222.183 282.169 221.484 282.169 220.623C282.169 219.761 281.482 219.063 280.635 219.063C279.787 219.063 279.1 219.761 279.1 220.623C279.1 221.484 279.787 222.183 280.635 222.183Z" fill="#E0E0E0"/>
<path d="M288.233 225.878C288.233 226.736 287.549 227.438 286.699 227.438C285.854 227.438 285.164 226.742 285.164 225.878C285.164 225.013 285.848 224.318 286.699 224.318C287.549 224.324 288.233 225.02 288.233 225.878Z" fill="#E0E0E0"/>
<path d="M293.612 231.734C293.612 232.593 292.928 233.294 292.078 233.294C291.234 233.294 290.543 232.599 290.543 231.734C290.543 230.876 291.227 230.174 292.078 230.174C292.928 230.181 293.612 230.876 293.612 231.734Z" fill="#E0E0E0"/>
<path d="M283.808 235.712C284.656 235.712 285.343 235.014 285.343 234.152C285.343 233.291 284.656 232.592 283.808 232.592C282.961 232.592 282.274 233.291 282.274 234.152C282.274 235.014 282.961 235.712 283.808 235.712Z" fill="#E0E0E0"/>
<path d="M295.405 204.35C296.252 204.35 296.939 203.651 296.939 202.79C296.939 201.928 296.252 201.23 295.405 201.23C294.557 201.23 293.87 201.928 293.87 202.79C293.87 203.651 294.557 204.35 295.405 204.35Z" fill="#E0E0E0"/>
<path d="M300.783 210.206C301.631 210.206 302.318 209.508 302.318 208.646C302.318 207.785 301.631 207.086 300.783 207.086C299.935 207.086 299.248 207.785 299.248 208.646C299.248 209.508 299.935 210.206 300.783 210.206Z" fill="#E0E0E0"/>
<path d="M292.508 212.624C293.356 212.624 294.043 211.926 294.043 211.064C294.043 210.203 293.356 209.504 292.508 209.504C291.661 209.504 290.974 210.203 290.974 211.064C290.974 211.926 291.661 212.624 292.508 212.624Z" fill="#E0E0E0"/>
<path d="M298.579 217.879C299.426 217.879 300.113 217.181 300.113 216.319C300.113 215.458 299.426 214.759 298.579 214.759C297.731 214.759 297.044 215.458 297.044 216.319C297.044 217.181 297.731 217.879 298.579 217.879Z" fill="#E0E0E0"/>
<path d="M305.492 222.182C305.492 223.041 304.808 223.742 303.957 223.742C303.113 223.742 302.423 223.047 302.423 222.182C302.423 221.324 303.107 220.622 303.957 220.622C304.802 220.622 305.492 221.318 305.492 222.182Z" fill="#E0E0E0"/>
<path d="M295.682 226.16C296.53 226.16 297.217 225.462 297.217 224.6C297.217 223.738 296.53 223.04 295.682 223.04C294.835 223.04 294.148 223.738 294.148 224.6C294.148 225.462 294.835 226.16 295.682 226.16Z" fill="#E0E0E0"/>
<path d="M178.837 241.088C181.067 238.257 182.571 239.854 188.375 236.753C191.536 235.069 193.206 230.884 192.645 227.302C192.091 223.719 189.133 220.424 185.565 220.305C183.261 220.224 181.123 221.382 178.917 222.065C176.711 222.754 173.981 222.829 172.459 221.075C170.321 218.608 172.065 214.511 173.328 211.899C173.846 210.822 174.179 209.638 174.172 208.435C174.16 203.055 168.756 202.767 165.712 204.94C163.395 206.594 161.978 209.218 160.222 211.479C158.466 213.741 155.958 215.814 153.136 215.563C150.098 215.294 147.985 212.532 145.835 210.339C143.678 208.147 140.215 206.324 137.738 208.135C135.889 209.494 135.655 212.212 136.031 214.499C136.407 216.785 137.208 219.096 136.771 221.37C136.222 224.232 133.979 226.149 131.342 227.546C128.508 229.043 128.662 233.283 131.626 234.486C131.65 234.492 131.669 234.505 131.693 234.511C133.936 235.401 136.395 235.67 138.582 236.697C140.77 237.724 142.741 239.898 142.427 242.328C142.064 245.209 138.693 247.151 139.784 250.452C140.4 252.306 142.131 253.54 144.048 253.691C148.355 254.035 151.362 251.003 154.627 248.755C157.271 246.938 160.734 245.573 163.58 247.045C166.784 248.705 167.598 253.108 170.444 255.344C173.026 257.374 177.13 256.998 179.311 254.53C181.492 252.062 181.419 247.872 179.151 245.485C179.151 245.485 176.84 243.631 178.837 241.088Z" fill="#EBEBEB"/>
<path d="M22.7969 154.825C22.3101 158.42 20.2151 157.825 16.7892 163.512C14.9284 166.607 15.6 171.066 17.886 173.854C20.172 176.641 24.3681 177.931 27.4921 176.178C29.507 175.044 30.764 172.939 32.3106 171.204C33.8572 169.469 36.1617 167.978 38.3553 168.693C41.4362 169.701 41.9969 174.123 42.2372 177.023C42.3358 178.22 42.6439 179.403 43.2539 180.437C45.9774 185.053 50.765 182.485 52.2808 179.028C53.4331 176.397 53.3345 173.409 53.7042 170.553C54.0739 167.697 55.183 164.609 57.7278 163.356C60.4698 162.003 63.68 163.281 66.6315 164.039C69.5892 164.796 73.4834 164.558 74.6911 161.715C75.5969 159.585 74.42 157.13 72.9473 155.357C71.4747 153.584 69.6261 152.025 68.8498 149.839C67.8762 147.095 68.8374 144.283 70.3963 141.708C72.0723 138.946 69.811 135.382 66.6562 135.896C66.6315 135.902 66.6069 135.902 66.5822 135.908C64.21 136.315 61.9609 137.361 59.564 137.618C57.1671 137.869 54.382 137.029 53.4207 134.787C52.2808 132.125 54.1971 128.699 51.5969 126.438C50.1365 125.166 48.0231 125.009 46.3039 125.874C42.4344 127.822 41.3807 131.987 39.7047 135.62C38.3491 138.558 36.0631 141.533 32.8775 141.752C29.2914 141.997 26.3707 138.639 22.8031 138.201C19.5681 137.806 16.2346 140.268 15.6123 143.525C14.9838 146.782 17.1589 150.34 20.3076 151.211C20.3076 151.211 23.2282 151.599 22.7969 154.825Z" fill="#EBEBEB"/>
<path d="M234.063 257.535C234.228 253.259 230.952 249.658 226.746 249.491C222.54 249.324 218.996 252.655 218.831 256.931C218.665 261.207 221.941 264.808 226.148 264.975C230.354 265.142 233.898 261.811 234.063 257.535Z" fill="#EBEBEB"/>
<path d="M223.928 256.76C223.257 256.905 222.597 256.472 222.455 255.789C222.314 255.107 222.739 254.436 223.411 254.292C224.083 254.148 224.742 254.58 224.884 255.263C225.032 255.94 224.6 256.61 223.928 256.76Z" fill="white"/>
<path d="M227.065 254.243C226.676 254.33 226.288 254.073 226.208 253.679C226.122 253.284 226.374 252.889 226.763 252.808C227.151 252.727 227.539 252.977 227.619 253.372C227.706 253.766 227.459 254.155 227.065 254.243Z" fill="white"/>
<path d="M223.102 250.283C222.979 250.346 215.456 245.166 214.501 247.133C213.546 249.1 218.395 255.432 224.452 260.418C230.509 265.398 237.478 269.638 238.698 267.797C239.918 265.955 233.775 259.416 233.775 259.416L233.399 260.437C233.399 260.437 237.231 264.364 236.418 266.049C235.605 267.734 230.386 264.577 225.006 259.685C219.627 254.799 215.53 249.839 216.485 248.717C217.44 247.602 222.104 250.872 222.104 250.872L223.102 250.283Z" fill="#EBEBEB"/>
<path d="M230.836 251.919C230.774 251.994 230.238 251.574 229.259 251.18C228.291 250.785 226.819 250.466 225.254 250.773C223.689 251.079 222.444 251.931 221.686 252.67C220.916 253.41 220.577 254.005 220.491 253.954C220.429 253.929 220.651 253.24 221.384 252.376C221.748 251.944 222.253 251.487 222.888 251.086C223.522 250.685 224.286 250.353 225.137 250.184C225.987 250.021 226.825 250.033 227.558 250.165C228.291 250.297 228.926 250.528 229.425 250.791C230.423 251.317 230.879 251.869 230.836 251.919Z" fill="white"/>
<path d="M41.5469 73.7725L31.8422 76.2968L31.3739 79.3159C31.226 80.318 31.2199 81.1198 31.3739 81.7086C31.5711 82.4916 32.027 82.9864 32.7418 83.1931C33.1608 83.3184 34.1036 83.2495 35.5577 82.9864L35.7487 83.7506L26.6109 86.1245L26.4199 85.3603C27.3688 84.9532 28.0712 84.3268 28.5395 83.4812C29.0016 82.6356 29.433 81.0321 29.8273 78.6582L34.0481 53.8289L34.4363 53.7286L50.1056 74.0481C51.5967 75.971 52.7182 77.1361 53.4637 77.537C54.0306 77.8439 54.7392 77.9191 55.5957 77.775L55.7867 78.5392L42.4958 81.9967L42.3048 81.2326L42.8532 81.0885C43.9192 80.8129 44.634 80.4621 44.9852 80.0487C45.2255 79.7543 45.2933 79.3973 45.1947 78.9839C45.1331 78.7396 45.0283 78.4953 44.8804 78.251C44.8188 78.132 44.4923 77.6748 43.8822 76.8668L41.5469 73.7725ZM40.4748 72.4258L33.968 63.8758L32.1749 74.5868L40.4748 72.4258Z" fill="#D02665"/>
<path d="M235.39 149.434C236.485 148.775 237.774 148.878 238.297 149.653L291.973 229.735L285.686 233.509L234.306 152.096C233.8 151.29 234.288 150.095 235.39 149.434Z" fill="#455A64"/>
<path d="M292.782 235.088C293.12 235.631 298.319 248.685 298.319 248.685L296.434 249.843L286.742 238.807L292.782 235.088Z" fill="#E0E0E0"/>
<path d="M296.679 251.77L300.162 262.728L304.842 259.997L301.332 254.293L305.659 259.494L306.522 258.961L298.544 250.619L297.358 251.353" fill="#D02665" fill-opacity="0.8"/>
<path d="M232.357 59.172C231.605 59.6794 231.285 60.644 231.254 61.5585C231.223 62.473 231.433 63.3749 231.513 64.2832C231.587 65.1476 231.544 66.037 231.784 66.8701C232.234 68.4047 233.559 69.4695 234.81 70.4341C235.346 69.7326 235.882 69.0248 236.251 68.223C236.621 67.4213 236.818 66.5068 236.64 65.6424C236.492 64.9471 236.11 64.327 235.863 63.6568C235.555 62.8237 235.45 61.9218 235.105 61.1012C234.625 59.98 233.67 59.078 232.53 58.6709" fill="#D02665"/>
<path d="M234.354 69.9263C234.231 69.92 234.366 67.3519 233.849 64.2451C233.356 61.1383 232.413 58.7456 232.53 58.7017C232.573 58.683 232.869 59.2529 233.226 60.2364C233.584 61.2135 233.984 62.604 234.237 64.1825C234.489 65.7609 234.551 67.2079 234.52 68.2476C234.502 69.2874 234.403 69.9263 234.354 69.9263Z" fill="#263238"/>
<path d="M232.967 59.2346C233.429 60.0176 234.36 60.3934 235.259 60.4686C236.153 60.5438 237.052 60.3746 237.952 60.3433C238.808 60.312 239.677 60.3997 240.509 60.193C242.037 59.8109 243.152 58.5206 244.163 57.2992C243.504 56.7229 242.832 56.1404 242.062 55.727C241.292 55.3073 240.404 55.063 239.542 55.2071C238.851 55.3198 238.223 55.6769 237.557 55.8961C236.726 56.1717 235.832 56.2281 235.013 56.5413C233.885 56.9734 232.955 57.9005 232.499 59.0342" fill="#D02665"/>
<path d="M243.633 57.7379C243.62 57.8631 241.1 57.6001 238.026 57.9696C234.945 58.3204 232.548 59.1535 232.511 59.0344C232.492 58.9843 233.072 58.715 234.051 58.4018C235.031 58.0886 236.417 57.7504 237.976 57.5687C239.535 57.3871 240.965 57.3996 241.988 57.4748C243.017 57.5562 243.639 57.6878 243.633 57.7379Z" fill="#263238"/>
<path d="M232.104 58.5337C232.425 57.6819 232.135 56.6985 231.642 55.9406C231.143 55.1764 230.459 54.5688 229.88 53.8735C229.325 53.2096 228.857 52.4642 228.186 51.9255C226.947 50.9421 225.259 50.8544 223.687 50.8043C223.65 51.6875 223.62 52.5832 223.774 53.4539C223.928 54.3245 224.291 55.1889 224.932 55.784C225.45 56.2663 226.115 56.5419 226.694 56.9427C227.421 57.4376 228.019 58.1141 228.771 58.5776C229.8 59.2102 231.094 59.3793 232.252 59.0411" fill="#D02665"/>
<path d="M224.335 50.9474C224.44 50.8785 225.795 53.052 227.989 55.2756C230.164 57.518 232.296 58.9086 232.228 59.015C232.203 59.0589 231.637 58.7645 230.786 58.1757C229.936 57.5869 228.821 56.6912 227.711 55.5575C226.609 54.4238 225.727 53.2838 225.154 52.4131C224.581 51.555 224.292 50.9725 224.335 50.9474Z" fill="#263238"/>
<path d="M231.692 59.0403C230.909 58.5893 229.911 58.7333 229.098 59.1154C228.284 59.4975 227.588 60.0988 226.824 60.5811C226.097 61.0384 225.296 61.3954 224.674 61.9967C223.534 63.0929 223.189 64.7778 222.905 66.35C223.762 66.5191 224.624 66.6882 225.499 66.6632C226.368 66.6381 227.262 66.4064 227.939 65.8489C228.482 65.3979 228.858 64.7778 229.332 64.2517C229.923 63.594 230.675 63.0929 231.23 62.4101C232 61.4706 232.357 60.1928 232.203 58.9776" fill="#D02665"/>
<path d="M223.154 65.7046C223.098 65.5919 225.421 64.5521 227.917 62.6855C230.425 60.8377 232.101 58.9022 232.193 58.9899C232.23 59.0213 231.86 59.5474 231.164 60.3116C230.468 61.0757 229.427 62.0654 228.157 63.0112C226.888 63.9508 225.643 64.6649 224.719 65.1033C223.782 65.5543 223.172 65.7485 223.154 65.7046Z" fill="#263238"/>
<path d="M233.059 58.2008C233.953 58.1006 234.674 57.3865 235.111 56.5847C235.549 55.7892 235.764 54.8873 236.103 54.0417C236.424 53.2399 236.867 52.4695 237.021 51.6114C237.311 50.0392 236.609 48.4732 235.931 47.0326C235.142 47.4084 234.347 47.7905 233.651 48.3292C232.961 48.8679 232.376 49.5944 232.148 50.4463C231.969 51.1353 232.024 51.8619 231.95 52.5697C231.852 53.4529 231.538 54.3048 231.482 55.1942C231.408 56.4156 231.852 57.6621 232.684 58.5453" fill="#D02665"/>
<path d="M236.11 47.7032C236.221 47.7659 234.945 49.9895 234.009 52.9898C233.054 55.9839 232.813 58.552 232.69 58.5332C232.641 58.5269 232.635 57.8818 232.758 56.8483C232.881 55.8147 233.152 54.3866 233.627 52.8645C234.107 51.3425 234.705 50.0271 235.198 49.1126C235.691 48.2043 236.067 47.6782 236.11 47.7032Z" fill="#263238"/>
<path d="M233.633 59.5794C233.282 60.068 232.604 60.1808 232.123 59.8237C231.643 59.4666 231.532 58.7775 231.883 58.2888C232.234 57.8001 232.912 57.6874 233.393 58.0445C233.88 58.3953 233.985 59.0844 233.633 59.5794Z" fill="#FAFAFA"/>
<path d="M92.0673 225.749C91.6791 227.415 92.4616 229.162 93.5707 230.453C94.6798 231.743 96.1094 232.701 97.3602 233.848C98.5556 234.937 99.6092 236.209 100.996 237.036C103.54 238.552 106.701 238.282 109.634 237.975C109.48 236.322 109.326 234.649 108.821 233.065C108.322 231.48 107.435 229.97 106.091 229.025C105.013 228.267 103.707 227.91 102.53 227.321C101.057 226.582 99.7756 225.479 98.266 224.815C96.1956 223.901 93.7433 223.913 91.6791 224.847" fill="#D02665"/>
<path d="M108.372 237.869C108.193 238.026 105.137 234.33 100.516 230.747C95.9193 227.133 91.6122 225.085 91.717 224.872C91.7539 224.784 92.8815 225.185 94.6068 226.062C96.3321 226.933 98.6304 228.323 100.972 230.146C103.307 231.969 105.217 233.873 106.493 235.339C107.774 236.811 108.446 237.813 108.372 237.869Z" fill="#263238"/>
<path d="M92.9795 225.047C94.6 225.523 96.3561 224.815 97.6747 223.75C98.9933 222.685 100.01 221.282 101.199 220.067C102.327 218.908 103.633 217.9 104.508 216.535C106.122 214.023 106.018 210.797 105.851 207.809C104.218 207.884 102.567 207.96 100.99 208.392C99.4123 208.824 97.8842 209.644 96.886 210.966C96.085 212.025 95.6783 213.334 95.0375 214.499C94.2426 215.958 93.0904 217.205 92.3633 218.702C91.3651 220.763 91.2542 223.249 92.0675 225.391" fill="#D02665"/>
<path d="M105.691 209.087C105.839 209.275 102.05 212.2 98.3094 216.716C94.5322 221.207 92.3079 225.479 92.1045 225.36C92.0183 225.316 92.4681 224.195 93.417 222.485C94.3597 220.781 95.8385 218.508 97.7425 216.221C99.6527 213.941 101.612 212.094 103.116 210.866C104.619 209.645 105.636 209.012 105.691 209.087Z" fill="#263238"/>
<path d="M90.9087 225.21C90.2741 223.625 88.6412 222.661 86.996 222.266C85.3508 221.871 83.644 221.928 81.968 221.734C80.3721 221.552 78.7824 221.139 77.1865 221.283C74.2474 221.552 71.8258 223.631 69.6137 225.617C70.6859 226.876 71.7642 228.141 73.0766 229.137C74.3891 230.133 75.9665 230.841 77.6055 230.816C78.918 230.797 80.1811 230.315 81.4813 230.102C83.1018 229.833 84.7778 229.977 86.386 229.632C88.5981 229.15 90.5821 227.697 91.7344 225.724" fill="#D02665"/>
<path d="M70.7042 224.954C70.7596 224.722 75.3624 225.931 81.1668 226.119C86.9773 226.35 91.6479 225.48 91.6849 225.712C91.7034 225.805 90.5573 226.144 88.6533 226.444C86.7493 226.751 84.0875 226.977 81.1422 226.87C78.1968 226.764 75.5535 226.338 73.6803 225.899C71.801 225.467 70.6795 225.048 70.7042 224.954Z" fill="#263238"/>
<path d="M90.9951 226.438C89.356 226.838 88.173 228.335 87.5445 229.926C86.916 231.517 86.7126 233.24 86.2752 234.9C85.8562 236.472 85.2153 238.007 85.1168 239.635C84.9381 242.629 86.5956 245.379 88.1915 247.897C89.5779 247.008 90.9704 246.112 92.135 244.947C93.2996 243.775 94.2238 242.297 94.4518 240.65C94.6305 239.328 94.3532 237.988 94.3409 236.647C94.3224 234.975 94.7167 233.315 94.6182 231.649C94.4826 229.356 93.3673 227.139 91.6174 225.686" fill="#D02665"/>
<path d="M87.7048 246.7C87.4892 246.612 89.3562 242.165 90.416 236.359C91.5128 230.558 91.3711 225.729 91.6052 225.723C91.6976 225.717 91.8579 226.919 91.864 228.88C91.8763 230.84 91.6976 233.553 91.1492 236.496C90.6009 239.44 89.7937 242.034 89.0789 243.85C88.3703 245.679 87.7911 246.738 87.7048 246.7Z" fill="#263238"/>
<path d="M91.8083 223.512C92.9051 222.21 92.9914 220.293 92.5847 218.627C92.1719 216.967 91.3339 215.451 90.7362 213.848C90.1631 212.325 89.7934 210.703 88.9308 209.325C87.3472 206.801 84.4081 205.567 81.6599 204.483C81.0561 206.03 80.4461 207.59 80.1811 209.231C79.9162 210.872 80.0271 212.626 80.7973 214.092C81.4196 215.269 82.4178 216.19 83.2065 217.261C84.1863 218.602 84.8332 220.18 85.8746 221.47C87.3103 223.243 89.4915 224.371 91.7467 224.496" fill="#D02665"/>
<path d="M82.7329 205.16C82.9609 205.103 84.0207 209.814 86.5286 215.144C88.9994 220.493 91.9139 224.314 91.7229 224.452C91.649 224.508 90.8295 223.631 89.6834 222.053C88.5435 220.474 87.1139 218.176 85.8508 215.47C84.5938 212.764 83.7435 210.183 83.2628 208.285C82.7884 206.387 82.6405 205.185 82.7329 205.16Z" fill="#263238"/>
<path d="M94.3286 224.64C94.4704 225.768 93.6815 226.802 92.566 226.946C91.4567 227.09 90.4399 226.288 90.2981 225.154C90.1564 224.026 90.9452 222.993 92.0607 222.848C93.17 222.711 94.1869 223.512 94.3286 224.64Z" fill="#FAFAFA"/>
<path d="M257.525 237.418L65.562 210.609C55.8449 209.25 49.0485 200.143 50.3795 190.265L65.9009 75.4136C67.238 65.5358 76.1971 58.6269 85.9142 59.9799L277.877 86.7885C287.594 88.1477 294.391 97.2552 293.06 107.133L277.538 221.984C276.207 231.868 267.248 238.777 257.525 237.418Z" fill="#263238"/>
<path d="M263.98 226.551L62.2876 197.982L79.5096 70.5533L281.196 99.1221L263.98 226.551Z" fill="#EBEBEB"/>
<path d="M264.238 226.901L263.93 226.857L61.9421 198.251L61.9852 197.938L79.2504 70.1956L79.5585 70.2394L281.553 98.852L281.51 99.1652L264.238 226.901ZM62.6322 197.712L263.708 226.199L280.844 99.3907L79.7742 70.9034L62.6322 197.712Z" fill="#455A64"/>
<path d="M293.229 100.8C293.217 100.888 242.653 93.904 180.303 85.1975C117.94 76.4847 67.4013 69.3566 67.4136 69.2689C67.426 69.1812 117.977 76.1652 180.346 84.878C242.697 93.5783 293.241 100.713 293.229 100.8Z" fill="#455A64"/>
<path d="M276.013 228.229C276.001 228.317 225.438 221.333 163.087 212.626C100.718 203.92 50.1856 196.785 50.1979 196.697C50.2103 196.61 100.761 203.594 163.13 212.307C225.481 221.007 276.026 228.141 276.013 228.229Z" fill="#455A64"/>
<path d="M139.87 204.126C141.145 201.333 140.757 197.831 138.896 195.401C137.035 192.971 133.794 191.724 130.818 192.294C131.323 189.056 129.931 185.586 127.343 183.625C124.755 181.665 121.089 181.308 118.18 182.723C117.084 179.61 113.288 177.794 110.232 178.927C107.176 180.061 105.419 183.932 106.553 187.033C104.304 186.112 101.507 186.832 99.954 188.73C98.4012 190.628 98.2164 193.553 99.5103 195.633C95.1417 192.889 88.4562 196.209 87.8954 201.395L144.411 209.262C144.128 208.448 143.216 204.746 139.87 204.126Z" fill="#E0E0E0"/>
<path d="M241.859 218.633C243.134 215.839 242.746 212.338 240.885 209.908C239.024 207.477 235.783 206.231 232.807 206.801C233.313 203.562 231.92 200.092 229.332 198.132C226.744 196.171 223.078 195.814 220.17 197.23C219.073 194.117 215.277 192.3 212.221 193.434C209.165 194.568 207.409 198.439 208.542 201.539C206.293 200.619 203.496 201.339 201.943 203.237C200.39 205.135 200.205 208.06 201.499 210.139C197.131 207.396 190.445 210.716 189.885 215.902L246.4 223.769C246.117 222.955 245.205 219.253 241.859 218.633Z" fill="#E0E0E0"/>
<path d="M185.848 215.163C187.302 212.244 187.734 208.805 187.037 205.611C186.6 203.588 185.682 201.608 184.117 200.287C182.552 198.959 180.272 198.408 178.411 199.234C178.762 196.735 177.918 194.092 176.199 192.275C174.48 190.459 171.916 189.501 169.446 189.757C170 187.715 169.489 185.404 168.115 183.807C166.747 182.21 164.566 181.37 162.495 181.652C163.931 178.52 161.608 174.85 158.404 173.71L157.307 173.553C157.307 173.553 150.394 172.394 149.519 172.445C146.13 172.645 142.907 175.526 143.437 178.94C141.527 178.094 139.204 178.289 137.454 179.447C135.704 180.6 134.589 182.679 134.57 184.803C132.266 183.87 129.542 184.07 127.392 185.342C125.247 186.613 123.726 188.918 123.387 191.417C121.815 190.096 119.48 189.995 117.613 190.835C115.746 191.674 114.335 193.322 113.368 195.138C111.84 198.019 111.322 201.439 111.932 204.659L185.848 215.163Z" fill="white"/>
<path d="M221.685 220.262C223.139 217.343 223.571 213.904 222.875 210.71C222.437 208.687 221.519 206.707 219.954 205.386C218.389 204.058 216.109 203.507 214.248 204.333C214.599 201.834 213.755 199.191 212.036 197.374C210.317 195.558 207.754 194.6 205.283 194.856C205.837 192.814 205.326 190.503 203.952 188.906C202.584 187.309 200.403 186.469 198.332 186.751C199.768 183.619 197.445 179.949 194.241 178.809L193.144 178.652C193.144 178.652 186.231 177.493 185.356 177.543C181.967 177.744 178.744 180.625 179.274 184.039C177.364 183.193 175.041 183.387 173.291 184.546C171.541 185.699 170.426 187.778 170.407 189.902C168.103 188.968 165.379 189.169 163.229 190.44C161.085 191.712 159.563 194.017 159.224 196.516C157.653 195.195 155.317 195.094 153.45 195.934C151.589 196.773 150.172 198.42 149.205 200.237C147.677 203.118 147.159 206.538 147.769 209.758L221.685 220.262Z" fill="white"/>
<path d="M157.88 171.041L150.381 170.183L152.322 156.065L159.821 156.917L157.88 171.041Z" fill="#008ECF"/>
<path d="M159.606 161.552L151.405 160.387C151.109 160.343 150.9 160.068 150.943 159.761C150.986 159.46 151.257 159.247 151.559 159.291L159.76 160.456C160.056 160.5 160.265 160.775 160.222 161.082C160.179 161.383 159.902 161.59 159.606 161.552Z" fill="#008ECF"/>
<path d="M159.304 163.751L151.102 162.586C150.806 162.543 150.597 162.267 150.64 161.96C150.683 161.659 150.954 161.446 151.256 161.49L159.458 162.655C159.753 162.699 159.963 162.975 159.92 163.282C159.877 163.582 159.599 163.795 159.304 163.751Z" fill="#008ECF"/>
<path d="M159.002 165.955L150.8 164.79C150.505 164.746 150.295 164.471 150.338 164.164C150.381 163.863 150.652 163.65 150.954 163.694L159.156 164.859C159.451 164.903 159.661 165.179 159.618 165.485C159.575 165.786 159.297 165.999 159.002 165.955Z" fill="#008ECF"/>
<path d="M158.7 168.154L150.498 166.989C150.203 166.945 149.993 166.669 150.036 166.362C150.079 166.062 150.351 165.849 150.652 165.893L158.854 167.058C159.15 167.102 159.359 167.377 159.316 167.684C159.273 167.991 158.995 168.198 158.7 168.154Z" fill="#008ECF"/>
<path d="M158.392 170.358L150.19 169.193C149.895 169.149 149.685 168.874 149.728 168.567C149.771 168.266 150.042 168.053 150.344 168.097L158.546 169.262C158.841 169.306 159.051 169.581 159.008 169.888C158.965 170.189 158.694 170.402 158.392 170.358Z" fill="#008ECF"/>
<path d="M148.687 172.407L150.406 169.977L157.88 171.042L159.156 173.898L148.687 172.407Z" fill="#008ECF"/>
<path d="M159.926 160.475C159.92 160.531 158.004 160.306 155.65 159.974C153.296 159.642 151.392 159.322 151.405 159.266C151.411 159.209 153.327 159.435 155.681 159.767C158.035 160.105 159.933 160.418 159.926 160.475Z" fill="#263238"/>
<path d="M159.6 161.553C159.594 161.609 157.696 161.39 155.367 161.058C153.038 160.726 151.158 160.413 151.165 160.356C151.171 160.3 153.069 160.519 155.398 160.851C157.727 161.177 159.606 161.49 159.6 161.553Z" fill="#263238"/>
<path d="M159.68 162.686C159.673 162.743 157.739 162.517 155.36 162.179C152.982 161.841 151.059 161.521 151.072 161.465C151.078 161.409 153.013 161.634 155.391 161.972C157.769 162.311 159.686 162.63 159.68 162.686Z" fill="#263238"/>
<path d="M159.112 163.727C159.106 163.783 157.27 163.57 155.015 163.251C152.76 162.931 150.936 162.624 150.942 162.568C150.948 162.512 152.784 162.724 155.04 163.044C157.295 163.363 159.119 163.67 159.112 163.727Z" fill="#263238"/>
<path d="M159.254 164.89C159.248 164.947 157.369 164.727 155.052 164.395C152.741 164.063 150.874 163.756 150.88 163.694C150.887 163.637 152.766 163.857 155.083 164.189C157.393 164.527 159.26 164.834 159.254 164.89Z" fill="#263238"/>
<path d="M159.212 165.987C159.206 166.043 157.302 165.817 154.96 165.485C152.619 165.154 150.727 164.834 150.733 164.778C150.739 164.721 152.643 164.947 154.985 165.279C157.332 165.611 159.224 165.93 159.212 165.987Z" fill="#263238"/>
<path d="M158.823 167.058C158.817 167.114 157.018 166.908 154.812 166.594C152.606 166.281 150.819 165.981 150.825 165.924C150.831 165.868 152.63 166.075 154.836 166.388C157.042 166.701 158.829 167.002 158.823 167.058Z" fill="#263238"/>
<path d="M158.737 168.16C158.731 168.216 156.931 168.01 154.725 167.696C152.52 167.383 150.733 167.083 150.739 167.026C150.745 166.97 152.544 167.177 154.75 167.49C156.962 167.803 158.743 168.104 158.737 168.16Z" fill="#263238"/>
<path d="M158.324 169.206C158.318 169.263 156.531 169.056 154.337 168.743C152.144 168.43 150.369 168.129 150.375 168.073C150.381 168.016 152.168 168.223 154.368 168.536C156.556 168.849 158.33 169.15 158.324 169.206Z" fill="#263238"/>
<path d="M158.145 170.321C158.139 170.378 156.408 170.177 154.288 169.877C152.162 169.576 150.449 169.282 150.455 169.225C150.461 169.169 152.193 169.369 154.313 169.67C156.438 169.977 158.151 170.265 158.145 170.321Z" fill="#263238"/>
<path d="M193.699 176.134L186.2 175.282L188.147 161.157L195.646 162.015L193.699 176.134Z" fill="#008ECF"/>
<path d="M195.431 166.645L187.229 165.48C186.934 165.436 186.724 165.16 186.767 164.853C186.81 164.553 187.081 164.34 187.383 164.383L195.585 165.548C195.88 165.592 196.09 165.868 196.047 166.175C196.004 166.476 195.726 166.688 195.431 166.645Z" fill="#008ECF"/>
<path d="M195.128 168.85L186.927 167.685C186.631 167.641 186.421 167.366 186.465 167.059C186.508 166.758 186.779 166.545 187.081 166.589L195.282 167.754C195.578 167.798 195.787 168.074 195.744 168.38C195.701 168.681 195.424 168.888 195.128 168.85Z" fill="#008ECF"/>
<path d="M194.82 171.047L186.619 169.882C186.323 169.838 186.113 169.563 186.157 169.256C186.2 168.955 186.471 168.742 186.773 168.786L194.974 169.951C195.27 169.995 195.479 170.271 195.436 170.577C195.393 170.878 195.122 171.091 194.82 171.047Z" fill="#008ECF"/>
<path d="M194.518 173.252L186.317 172.087C186.021 172.044 185.811 171.768 185.855 171.461C185.898 171.16 186.169 170.947 186.471 170.991L194.672 172.156C194.968 172.2 195.177 172.476 195.134 172.783C195.091 173.083 194.814 173.296 194.518 173.252Z" fill="#008ECF"/>
<path d="M194.216 175.457L186.015 174.292C185.719 174.249 185.51 173.973 185.553 173.666C185.596 173.365 185.867 173.152 186.169 173.196L194.37 174.361C194.666 174.405 194.876 174.681 194.832 174.988C194.789 175.288 194.512 175.495 194.216 175.457Z" fill="#008ECF"/>
<path d="M184.511 177.506L186.23 175.075L193.698 176.134L194.974 178.996L184.511 177.506Z" fill="#008ECF"/>
<path d="M195.75 165.574C195.744 165.63 193.828 165.405 191.474 165.073C189.12 164.741 187.216 164.421 187.229 164.365C187.235 164.309 189.151 164.534 191.505 164.866C193.852 165.198 195.756 165.517 195.75 165.574Z" fill="#263238"/>
<path d="M195.424 166.645C195.418 166.701 193.52 166.482 191.191 166.15C188.862 165.818 186.983 165.505 186.989 165.449C186.995 165.392 188.893 165.612 191.222 165.943C193.551 166.275 195.431 166.589 195.424 166.645Z" fill="#263238"/>
<path d="M195.504 167.785C195.498 167.842 193.563 167.616 191.185 167.278C188.806 166.94 186.884 166.62 186.896 166.564C186.902 166.507 188.837 166.733 191.215 167.071C193.588 167.409 195.51 167.729 195.504 167.785Z" fill="#263238"/>
<path d="M194.931 168.819C194.925 168.875 193.089 168.662 190.834 168.343C188.579 168.024 186.755 167.717 186.761 167.66C186.767 167.604 188.603 167.817 190.859 168.136C193.12 168.456 194.944 168.763 194.931 168.819Z" fill="#263238"/>
<path d="M195.079 169.989C195.072 170.046 193.193 169.827 190.876 169.495C188.566 169.163 186.699 168.856 186.705 168.793C186.711 168.737 188.59 168.956 190.907 169.288C193.218 169.62 195.085 169.933 195.079 169.989Z" fill="#263238"/>
<path d="M195.036 171.079C195.03 171.136 193.126 170.91 190.785 170.578C188.443 170.246 186.551 169.927 186.558 169.87C186.564 169.814 188.468 170.039 190.809 170.371C193.151 170.71 195.042 171.023 195.036 171.079Z" fill="#263238"/>
<path d="M194.641 172.15C194.635 172.207 192.836 172 190.63 171.687C188.424 171.374 186.637 171.073 186.643 171.017C186.649 170.96 188.449 171.167 190.655 171.48C192.867 171.793 194.647 172.094 194.641 172.15Z" fill="#263238"/>
<path d="M194.556 173.259C194.549 173.315 192.75 173.108 190.544 172.795C188.338 172.482 186.551 172.181 186.558 172.125C186.564 172.069 188.363 172.275 190.569 172.589C192.781 172.902 194.568 173.202 194.556 173.259Z" fill="#263238"/>
<path d="M194.142 174.299C194.136 174.355 192.349 174.148 190.155 173.835C187.962 173.522 186.187 173.221 186.193 173.165C186.2 173.109 187.986 173.315 190.186 173.628C192.38 173.942 194.154 174.242 194.142 174.299Z" fill="#263238"/>
<path d="M193.969 175.419C193.963 175.476 192.232 175.275 190.112 174.975C187.986 174.674 186.273 174.38 186.28 174.323C186.286 174.267 188.017 174.467 190.137 174.768C192.263 175.069 193.976 175.363 193.969 175.419Z" fill="#263238"/>
<path d="M174.326 71.7618L164.806 141.834L156.087 140.594L165.687 70.8473C165.86 69.5945 166.198 68.3668 166.685 67.208L172.169 54.2296C172.385 53.7223 172.995 53.8225 173.038 54.7934L174.387 68.3919C174.498 69.5131 174.474 70.6468 174.326 71.7618Z" fill="#008ECF"/>
<path d="M171.781 88.9997C171.775 89.0561 169.901 88.8368 167.603 88.5111C165.305 88.1854 163.444 87.8722 163.45 87.8158C163.456 87.7595 165.329 87.9787 167.628 88.3044C169.926 88.6301 171.787 88.9433 171.781 88.9997Z" fill="#263238"/>
<path d="M165.712 86.2625C165.656 86.2562 165.644 85.9994 165.687 85.6861C165.73 85.3791 165.811 85.1285 165.866 85.1411C165.922 85.1473 165.934 85.4042 165.891 85.7174C165.848 86.0244 165.767 86.2687 165.712 86.2625Z" fill="#263238"/>
<path d="M166.574 86.2812C166.519 86.2749 166.5 86.0619 166.537 85.8051C166.574 85.5545 166.649 85.354 166.704 85.3603C166.76 85.3665 166.778 85.5795 166.741 85.8364C166.704 86.087 166.63 86.2874 166.574 86.2812Z" fill="#263238"/>
<path d="M168.927 111.643C168.921 111.699 166.993 111.474 164.626 111.136C162.26 110.797 160.35 110.478 160.356 110.422C160.362 110.365 162.291 110.591 164.657 110.929C167.023 111.267 168.933 111.587 168.927 111.643Z" fill="#263238"/>
<path d="M162.02 113.34C161.965 113.334 161.952 113.071 161.995 112.758C162.039 112.445 162.119 112.194 162.175 112.207C162.23 112.213 162.243 112.476 162.2 112.789C162.156 113.102 162.076 113.353 162.02 113.34Z" fill="#263238"/>
<path d="M162.668 113.541C162.612 113.535 162.6 113.259 162.649 112.933C162.692 112.608 162.779 112.344 162.835 112.357C162.89 112.363 162.903 112.639 162.853 112.965C162.804 113.29 162.723 113.547 162.668 113.541Z" fill="#263238"/>
<path d="M163.075 133.102C163.069 133.159 161.744 133.021 160.117 132.789C158.49 132.557 157.183 132.325 157.189 132.269C157.196 132.213 158.521 132.35 160.148 132.582C161.775 132.808 163.087 133.04 163.075 133.102Z" fill="#263238"/>
<path d="M174.326 70.8282C174.319 70.8846 172.434 70.6654 170.123 70.3334C167.806 70.0014 165.939 69.6883 165.946 69.6319C165.952 69.5755 167.837 69.7947 170.154 70.1267C172.465 70.4587 174.332 70.7719 174.326 70.8282Z" fill="#263238"/>
<path d="M166.673 70.2839C166.679 70.2588 166.772 70.2651 166.815 70.3843C166.833 70.4408 166.833 70.5223 166.772 70.5976C166.71 70.6792 166.586 70.6917 166.494 70.6478C166.401 70.6102 166.333 70.5035 166.346 70.4031C166.358 70.3027 166.42 70.2525 166.475 70.2274C166.593 70.1772 166.66 70.2462 166.642 70.2651C166.63 70.2902 166.586 70.3027 166.556 70.3466C166.525 70.4031 166.525 70.4282 166.574 70.4533C166.623 70.4721 166.648 70.4596 166.667 70.3968C166.685 70.3529 166.66 70.3153 166.673 70.2839Z" fill="#263238"/>
<path d="M170.111 70.7791C170.118 70.754 170.21 70.7603 170.253 70.8795C170.272 70.936 170.272 71.0176 170.21 71.0929C170.149 71.1744 170.025 71.187 169.932 71.1431C169.84 71.1054 169.772 70.9987 169.784 70.8984C169.797 70.798 169.858 70.7478 169.914 70.7227C170.031 70.6725 170.099 70.7415 170.081 70.7603C170.068 70.7854 170.025 70.798 169.994 70.8419C169.963 70.8983 169.963 70.9234 170.013 70.9485C170.062 70.9674 170.087 70.9548 170.105 70.8921C170.124 70.8419 170.099 70.8042 170.111 70.7791Z" fill="#263238"/>
<path d="M173.557 71.2674C173.563 71.2423 173.655 71.2486 173.698 71.3678C173.717 71.4243 173.717 71.5058 173.655 71.5811C173.594 71.6627 173.47 71.6752 173.378 71.6313C173.285 71.5937 173.217 71.487 173.229 71.3866C173.242 71.2862 173.303 71.236 173.359 71.2109C173.476 71.1608 173.544 71.2298 173.526 71.2486C173.513 71.2737 173.47 71.2862 173.439 71.3302C173.408 71.3866 173.408 71.4117 173.458 71.4368C173.507 71.4556 173.532 71.4431 173.55 71.3804C173.563 71.3364 173.544 71.2925 173.557 71.2674Z" fill="#263238"/>
<path d="M164.14 88.6868C164.146 88.6617 164.239 88.668 164.282 88.7872C164.301 88.8437 164.301 88.9253 164.239 89.0006C164.177 89.0821 164.054 89.0947 163.961 89.0508C163.869 89.0131 163.801 88.9064 163.813 88.8061C163.825 88.7057 163.887 88.6555 163.943 88.6304C164.06 88.5802 164.128 88.6492 164.109 88.668C164.097 88.6931 164.054 88.7057 164.023 88.7496C163.992 88.8061 163.992 88.8312 164.041 88.8563C164.091 88.8751 164.115 88.8625 164.134 88.7998C164.152 88.7559 164.128 88.7182 164.14 88.6868Z" fill="#263238"/>
<path d="M167.579 89.1816C167.585 89.1565 167.678 89.1628 167.721 89.282C167.739 89.3385 167.739 89.42 167.678 89.4953C167.616 89.5769 167.492 89.5894 167.4 89.5455C167.307 89.5079 167.239 89.4012 167.252 89.3008C167.264 89.2004 167.326 89.1502 167.381 89.1251C167.499 89.0749 167.567 89.144 167.548 89.1628C167.536 89.1879 167.492 89.2004 167.462 89.2443C167.431 89.3008 167.431 89.3259 167.48 89.351C167.53 89.3698 167.554 89.3573 167.573 89.2945C167.591 89.2506 167.567 89.2067 167.579 89.1816Z" fill="#263238"/>
<path d="M171.017 89.6705C171.023 89.6454 171.116 89.6517 171.159 89.7709C171.177 89.8273 171.177 89.9089 171.116 89.9842C171.054 90.0658 170.93 90.0783 170.838 90.0344C170.745 89.9968 170.677 89.8901 170.69 89.7897C170.702 89.6893 170.764 89.6391 170.819 89.614C170.937 89.5638 171.004 89.6328 170.986 89.6517C170.974 89.6768 170.93 89.6893 170.9 89.7332C170.869 89.7897 170.869 89.8148 170.918 89.8399C170.967 89.8587 170.992 89.8462 171.011 89.7834C171.029 89.7395 171.004 89.6956 171.017 89.6705Z" fill="#263238"/>
<path d="M161.362 108.881C161.368 108.856 161.461 108.862 161.504 108.981C161.523 109.038 161.523 109.119 161.461 109.194C161.399 109.276 161.276 109.289 161.183 109.245C161.091 109.207 161.023 109.1 161.035 109C161.047 108.9 161.109 108.849 161.165 108.824C161.282 108.774 161.35 108.843 161.331 108.862C161.319 108.887 161.276 108.9 161.245 108.943C161.214 109 161.214 109.025 161.263 109.05C161.313 109.069 161.337 109.056 161.356 108.994C161.374 108.95 161.35 108.906 161.362 108.881Z" fill="#263238"/>
<path d="M164.801 109.37C164.808 109.345 164.9 109.351 164.943 109.47C164.962 109.527 164.962 109.608 164.9 109.683C164.838 109.765 164.715 109.778 164.622 109.734C164.53 109.696 164.462 109.589 164.474 109.489C164.487 109.389 164.548 109.338 164.604 109.313C164.721 109.263 164.789 109.332 164.77 109.351C164.758 109.376 164.715 109.389 164.684 109.432C164.653 109.489 164.653 109.514 164.703 109.539C164.752 109.558 164.777 109.545 164.795 109.483C164.814 109.439 164.789 109.395 164.801 109.37Z" fill="#263238"/>
<path d="M168.238 109.858C168.245 109.833 168.337 109.839 168.38 109.958C168.399 110.015 168.399 110.096 168.337 110.172C168.275 110.253 168.152 110.266 168.059 110.222C167.967 110.184 167.899 110.078 167.911 109.977C167.924 109.877 167.985 109.827 168.041 109.802C168.158 109.751 168.226 109.82 168.207 109.839C168.195 109.864 168.152 109.877 168.121 109.921C168.09 109.977 168.09 110.002 168.14 110.027C168.189 110.046 168.214 110.034 168.232 109.971C168.251 109.927 168.226 109.883 168.238 109.858Z" fill="#263238"/>
<path d="M158.33 130.891C158.336 130.866 158.429 130.872 158.472 130.992C158.49 131.048 158.49 131.13 158.429 131.205C158.367 131.286 158.244 131.299 158.151 131.255C158.058 131.217 157.991 131.111 158.003 131.01C158.015 130.91 158.077 130.86 158.132 130.835C158.25 130.785 158.318 130.854 158.299 130.872C158.287 130.897 158.244 130.91 158.213 130.954C158.182 131.01 158.182 131.036 158.231 131.061C158.281 131.079 158.305 131.067 158.324 131.004C158.342 130.96 158.318 130.916 158.33 130.891Z" fill="#263238"/>
<path d="M161.769 131.38C161.775 131.354 161.867 131.361 161.91 131.48C161.929 131.536 161.929 131.618 161.867 131.693C161.806 131.775 161.682 131.787 161.59 131.744C161.497 131.706 161.429 131.599 161.441 131.499C161.454 131.398 161.515 131.348 161.571 131.323C161.688 131.273 161.756 131.342 161.738 131.361C161.725 131.386 161.682 131.398 161.651 131.442C161.62 131.499 161.62 131.524 161.67 131.549C161.719 131.568 161.744 131.555 161.762 131.493C161.781 131.449 161.756 131.411 161.769 131.38Z" fill="#263238"/>
<path d="M197.87 75.113L188.104 145.154L196.823 146.394L206.423 76.6476C206.595 75.3948 206.602 74.1233 206.441 72.8705L204.673 58.8649C204.605 58.3137 203.989 58.2385 203.687 59.1656L198.721 71.8621C198.314 72.9019 198.024 73.9917 197.87 75.113Z" fill="#008ECF"/>
<path d="M195.665 92.3945C195.671 92.3381 197.544 92.5573 199.842 92.883C202.141 93.2087 204.001 93.5219 203.995 93.5783C203.989 93.6347 202.116 93.4154 199.818 93.0897C197.513 92.764 195.652 92.4508 195.665 92.3945Z" fill="#263238"/>
<path d="M202.239 91.4555C202.183 91.4492 202.171 91.1923 202.214 90.8791C202.258 90.5721 202.338 90.3215 202.394 90.3341C202.449 90.3403 202.462 90.5972 202.418 90.9104C202.375 91.2237 202.295 91.468 202.239 91.4555Z" fill="#263238"/>
<path d="M201.401 91.2359C201.346 91.2296 201.327 91.0166 201.364 90.7598C201.401 90.5092 201.476 90.3087 201.531 90.315C201.587 90.3212 201.605 90.5342 201.568 90.7911C201.531 91.0417 201.457 91.2421 201.401 91.2359Z" fill="#263238"/>
<path d="M192.294 114.969C192.3 114.912 194.229 115.138 196.595 115.476C198.961 115.814 200.877 116.134 200.865 116.19C200.859 116.247 198.93 116.021 196.564 115.683C194.198 115.345 192.282 115.025 192.294 114.969Z" fill="#263238"/>
<path d="M198.474 118.527C198.419 118.521 198.406 118.258 198.45 117.944C198.493 117.631 198.573 117.381 198.629 117.393C198.685 117.399 198.697 117.663 198.654 117.976C198.61 118.289 198.53 118.533 198.474 118.527Z" fill="#263238"/>
<path d="M197.797 118.539C197.741 118.533 197.729 118.258 197.778 117.932C197.821 117.606 197.908 117.343 197.964 117.355C198.019 117.362 198.032 117.637 197.982 117.963C197.939 118.289 197.852 118.546 197.797 118.539Z" fill="#263238"/>
<path d="M192.121 137.23C192.128 137.174 193.453 137.312 195.08 137.543C196.707 137.775 198.013 138.007 198.007 138.063C198.001 138.12 196.676 137.982 195.049 137.75C193.428 137.518 192.115 137.287 192.121 137.23Z" fill="#263238"/>
<path d="M198.117 74.2111C198.123 74.1547 200.008 74.374 202.319 74.7059C204.636 75.0379 206.503 75.3511 206.497 75.4075C206.491 75.4638 204.605 75.2446 202.288 74.9126C199.984 74.5807 198.111 74.2675 198.117 74.2111Z" fill="#263238"/>
<path d="M205.623 75.8272C205.629 75.8586 205.592 75.8899 205.592 75.9464C205.592 76.0091 205.61 76.0342 205.666 76.028C205.722 76.0154 205.734 75.9903 205.715 75.9276C205.697 75.8774 205.66 75.8523 205.654 75.8209C205.641 75.7958 205.728 75.7519 205.826 75.8335C205.87 75.8711 205.913 75.9401 205.901 76.0405C205.888 76.1409 205.789 76.2225 205.697 76.235C205.604 76.2538 205.487 76.2036 205.444 76.1095C205.407 76.0217 205.425 75.9401 205.456 75.8899C205.53 75.777 205.629 75.8021 205.623 75.8272Z" fill="#263238"/>
<path d="M202.184 75.3385C202.191 75.3699 202.154 75.4013 202.154 75.4578C202.154 75.5205 202.172 75.5456 202.228 75.5393C202.283 75.5268 202.296 75.5017 202.277 75.4389C202.258 75.3887 202.221 75.3636 202.215 75.3323C202.203 75.3072 202.289 75.2633 202.388 75.3448C202.431 75.3825 202.475 75.4515 202.462 75.5519C202.45 75.6523 202.351 75.7338 202.258 75.7464C202.166 75.7652 202.049 75.715 202.005 75.6209C201.968 75.533 201.987 75.4515 202.018 75.4013C202.092 75.2883 202.191 75.3134 202.184 75.3385Z" fill="#263238"/>
<path d="M198.746 74.8499C198.752 74.8813 198.715 74.9126 198.715 74.9691C198.715 75.0318 198.734 75.0569 198.789 75.0507C198.845 75.0381 198.857 75.013 198.839 74.9503C198.82 74.9001 198.783 74.875 198.777 74.8436C198.764 74.8185 198.851 74.7746 198.95 74.8562C198.993 74.8938 199.036 74.9628 199.024 75.0632C199.011 75.1636 198.913 75.2452 198.82 75.2577C198.727 75.2765 198.61 75.2263 198.567 75.1322C198.53 75.0444 198.548 74.9628 198.579 74.9126C198.653 74.7997 198.746 74.8185 198.746 74.8499Z" fill="#263238"/>
<path d="M203.091 94.2298C203.097 94.2612 203.06 94.2925 203.06 94.349C203.06 94.4117 203.078 94.4368 203.134 94.4306C203.189 94.418 203.202 94.3929 203.183 94.3302C203.165 94.28 203.128 94.2549 203.121 94.2235C203.109 94.1984 203.196 94.1545 203.294 94.2361C203.337 94.2737 203.381 94.3427 203.368 94.4431C203.356 94.5435 203.257 94.6251 203.165 94.6376C203.072 94.6564 202.955 94.6062 202.912 94.5121C202.875 94.4243 202.893 94.3427 202.924 94.2925C202.998 94.1796 203.097 94.2047 203.091 94.2298Z" fill="#263238"/>
<path d="M199.652 93.7413C199.659 93.7726 199.622 93.804 199.622 93.8605C199.622 93.9232 199.64 93.9483 199.696 93.942C199.751 93.9295 199.763 93.9044 199.745 93.8416C199.726 93.7914 199.689 93.7664 199.683 93.735C199.671 93.7099 199.757 93.666 199.856 93.7475C199.899 93.7852 199.942 93.8542 199.93 93.9546C199.918 94.055 199.819 94.1365 199.726 94.1491C199.634 94.1679 199.517 94.1177 199.473 94.0236C199.436 93.9358 199.455 93.8542 199.486 93.804C199.56 93.6911 199.652 93.7162 199.652 93.7413Z" fill="#263238"/>
<path d="M196.213 93.2527C196.22 93.2841 196.183 93.3155 196.183 93.3719C196.183 93.4347 196.201 93.4598 196.257 93.4535C196.312 93.441 196.324 93.4159 196.306 93.3531C196.287 93.3029 196.25 93.2778 196.244 93.2465C196.232 93.2214 196.318 93.1774 196.417 93.259C196.46 93.2966 196.503 93.3657 196.491 93.4661C196.479 93.5664 196.38 93.648 196.287 93.6605C196.195 93.6794 196.078 93.6292 196.034 93.5351C195.997 93.4472 196.016 93.3657 196.047 93.3155C196.121 93.2025 196.213 93.2214 196.213 93.2527Z" fill="#263238"/>
<path d="M200.312 114.418C200.318 114.449 200.281 114.48 200.281 114.537C200.281 114.6 200.299 114.625 200.355 114.618C200.41 114.606 200.423 114.581 200.404 114.518C200.386 114.468 200.349 114.443 200.342 114.411C200.33 114.386 200.416 114.342 200.515 114.424C200.558 114.462 200.602 114.531 200.589 114.631C200.577 114.731 200.478 114.813 200.386 114.825C200.293 114.844 200.176 114.794 200.133 114.7C200.096 114.612 200.114 114.531 200.145 114.48C200.219 114.374 200.318 114.393 200.312 114.418Z" fill="#263238"/>
<path d="M196.873 113.929C196.88 113.96 196.843 113.992 196.843 114.048C196.843 114.111 196.861 114.136 196.917 114.13C196.972 114.117 196.985 114.092 196.966 114.03C196.948 113.979 196.911 113.954 196.904 113.923C196.892 113.898 196.978 113.854 197.077 113.935C197.12 113.973 197.164 114.042 197.151 114.142C197.139 114.243 197.04 114.324 196.948 114.337C196.855 114.356 196.738 114.306 196.694 114.211C196.657 114.124 196.676 114.042 196.707 113.992C196.781 113.885 196.873 113.904 196.873 113.929Z" fill="#263238"/>
<path d="M193.434 113.44C193.44 113.472 193.403 113.503 193.403 113.56C193.403 113.622 193.422 113.648 193.478 113.641C193.533 113.629 193.545 113.604 193.527 113.541C193.508 113.491 193.471 113.466 193.465 113.434C193.453 113.409 193.539 113.365 193.638 113.447C193.681 113.484 193.724 113.553 193.712 113.654C193.7 113.754 193.601 113.836 193.508 113.848C193.416 113.867 193.299 113.817 193.255 113.723C193.218 113.635 193.237 113.553 193.268 113.503C193.342 113.397 193.434 113.415 193.434 113.44Z" fill="#263238"/>
<path d="M197.287 136.435C197.293 136.466 197.256 136.498 197.256 136.554C197.256 136.617 197.274 136.642 197.33 136.636C197.386 136.623 197.398 136.598 197.379 136.535C197.361 136.485 197.324 136.46 197.318 136.429C197.305 136.403 197.392 136.36 197.49 136.441C197.534 136.479 197.577 136.548 197.565 136.648C197.552 136.749 197.453 136.83 197.361 136.843C197.268 136.861 197.151 136.811 197.108 136.717C197.071 136.629 197.089 136.548 197.12 136.498C197.194 136.385 197.287 136.403 197.287 136.435Z" fill="#263238"/>
<path d="M193.841 135.946C193.847 135.978 193.81 136.009 193.81 136.066C193.81 136.128 193.829 136.153 193.884 136.147C193.94 136.135 193.952 136.109 193.934 136.047C193.915 135.997 193.878 135.971 193.872 135.94C193.86 135.915 193.946 135.871 194.045 135.953C194.088 135.99 194.131 136.059 194.119 136.16C194.107 136.26 194.008 136.342 193.915 136.354C193.823 136.373 193.705 136.323 193.662 136.229C193.625 136.141 193.644 136.059 193.674 136.009C193.749 135.896 193.847 135.915 193.841 135.946Z" fill="#263238"/>
<path d="M191.942 29.7322C191.942 29.7322 179.834 40.6185 177.967 52.0936C176.156 63.243 172.157 94.217 172.157 94.217L166.969 131.918L188.35 134.962L197.777 66.4563L198.942 58.0128C198.942 58.0128 199.373 53.434 198.393 46.1744C197.488 39.5098 191.942 29.7322 191.942 29.7322Z" fill="#008ECF"/>
<g opacity="0.3">
<g opacity="0.3">
<g opacity="0.3">
<path opacity="0.3" d="M191.942 29.7322C191.942 29.7322 179.834 40.6185 177.967 52.0936C176.156 63.243 172.157 94.217 172.157 94.217L166.969 131.918L188.35 134.962L197.777 66.4563L198.942 58.0128C198.942 58.0128 199.373 53.434 198.393 46.1744C197.488 39.5098 191.942 29.7322 191.942 29.7322Z" fill="black"/>
</g>
</g>
</g>
<path d="M197.986 64.8968C197.98 64.9532 193.162 64.3143 187.234 63.4749C181.3 62.6293 176.5 61.9027 176.507 61.8464C176.513 61.79 181.331 62.4289 187.259 63.2682C193.193 64.1076 197.999 64.8404 197.986 64.8968Z" fill="#263238"/>
<path d="M174.887 83.362C174.887 83.362 174.893 83.3745 174.887 83.4058V83.4309V83.4371C174.874 83.4371 174.911 83.4434 174.862 83.4371V83.4309V83.4121V83.4058L174.887 83.4121V83.4183V83.4371L174.88 83.481L174.85 83.4747C174.911 82.6604 175.49 78.1944 176.23 72.8201C176.649 69.8449 177.031 67.1578 177.314 65.1722C177.462 64.2201 177.579 63.4309 177.665 62.8609C177.709 62.604 177.746 62.3973 177.77 62.2345C177.795 62.0904 177.813 62.0153 177.82 62.0153C177.826 62.0153 177.826 62.0904 177.807 62.2408C177.789 62.4099 177.764 62.6166 177.739 62.8734C177.665 63.4496 177.573 64.2389 177.45 65.1972C177.185 67.1828 176.828 69.8762 176.427 72.8515C175.688 78.2257 175.034 82.6792 174.88 83.481L174.85 83.4747L174.856 83.4309L174.862 83.4121V83.4058L174.887 83.4121V83.4183L174.88 83.4371V83.4434C174.837 83.4371 174.868 83.4371 174.862 83.4371V83.4309L174.868 83.4058C174.88 83.3745 174.88 83.362 174.887 83.362Z" fill="#263238"/>
<path d="M176.402 83.7066C176.347 83.7004 176.963 78.8899 177.776 72.9644C178.589 67.0389 179.298 62.2409 179.354 62.2472C179.409 62.2535 178.793 67.064 177.979 72.9894C177.166 78.9149 176.457 83.7129 176.402 83.7066Z" fill="#263238"/>
<path d="M177.98 83.9322C177.924 83.9259 178.528 79.1154 179.335 73.1837C180.136 67.2519 180.839 62.4539 180.894 62.4665C180.95 62.4727 180.346 67.2832 179.539 73.215C178.731 79.1404 178.035 83.9384 177.98 83.9322Z" fill="#263238"/>
<path d="M179.471 84.1388C179.416 84.1325 180.032 79.322 180.845 73.3965C181.659 67.4711 182.367 62.6731 182.423 62.6793C182.478 62.6856 181.862 67.4961 181.049 73.4216C180.235 79.3533 179.527 84.1513 179.471 84.1388Z" fill="#263238"/>
<path d="M180.938 84.859C180.882 84.8527 181.511 79.9295 182.349 73.8662C183.18 67.8029 183.908 62.8922 183.963 62.8984C184.018 62.9047 183.39 67.828 182.552 73.8912C181.714 79.9545 180.993 84.8653 180.938 84.859Z" fill="#263238"/>
<path d="M182.472 85.0781C182.417 85.0718 183.045 80.1486 183.883 74.0853C184.715 68.022 185.442 63.1113 185.497 63.1176C185.553 63.1238 184.924 68.0471 184.086 74.1104C183.248 80.1736 182.527 85.0844 182.472 85.0781Z" fill="#263238"/>
<path d="M184.006 85.2977C183.951 85.2915 184.579 80.3682 185.417 74.3049C186.249 68.2416 186.976 63.3309 187.032 63.3372C187.087 63.3434 186.458 68.2667 185.62 74.33C184.782 80.3932 184.062 85.304 184.006 85.2977Z" fill="#263238"/>
<path d="M185.541 85.5105C185.485 85.5042 186.114 80.5809 186.952 74.5177C187.783 68.4544 188.51 63.5437 188.566 63.5499C188.621 63.5562 187.993 68.4795 187.155 74.5427C186.317 80.6123 185.596 85.523 185.541 85.5105Z" fill="#263238"/>
<path d="M187.075 85.73C187.02 85.7237 187.648 80.8004 188.486 74.7372C189.318 68.6739 190.045 63.7632 190.101 63.7694C190.156 63.7757 189.528 68.699 188.69 74.7622C187.852 80.8317 187.131 85.7425 187.075 85.73Z" fill="#263238"/>
<path d="M188.75 85.4606C188.695 85.4544 189.292 80.6376 190.087 74.7121C190.882 68.7804 191.572 63.9824 191.628 63.9887C191.683 63.9949 191.085 68.8054 190.291 74.7372C189.496 80.6689 188.806 85.4669 188.75 85.4606Z" fill="#263238"/>
<path d="M190.211 85.6673C190.205 85.6673 190.205 85.5921 190.224 85.4481C190.242 85.279 190.261 85.0723 190.291 84.8217C190.359 84.2454 190.458 83.4687 190.575 82.5167C190.84 80.5499 191.197 77.8753 191.592 74.9251C192.011 71.9748 192.386 69.3065 192.664 67.3397C192.805 66.3939 192.929 65.6172 193.015 65.0472C193.058 64.7966 193.095 64.5899 193.12 64.4271C193.144 64.283 193.163 64.2141 193.169 64.2141C193.175 64.2141 193.175 64.2893 193.157 64.4333C193.138 64.6025 193.12 64.8092 193.089 65.0597C193.021 65.636 192.922 66.4127 192.805 67.3648C192.54 69.3316 192.183 72.0062 191.789 74.9564C191.37 77.9066 190.994 80.5686 190.717 82.5355C190.575 83.4813 190.458 84.258 190.365 84.828C190.322 85.0785 190.285 85.2852 190.261 85.4481C190.236 85.5984 190.217 85.6673 190.211 85.6673Z" fill="#263238"/>
<path d="M191.745 85.8863C191.69 85.8801 192.306 81.0695 193.119 75.1441C193.933 69.2186 194.641 64.4206 194.697 64.4269C194.752 64.4331 194.136 69.2437 193.323 75.1691C192.509 81.0946 191.801 85.8926 191.745 85.8863Z" fill="#263238"/>
<path d="M193.28 86.1053C193.224 86.0991 193.84 81.2885 194.654 75.3631C195.467 69.4376 196.176 64.6396 196.231 64.6459C196.287 64.6521 195.67 69.4627 194.857 75.3881C194.044 81.3136 193.335 86.1116 193.28 86.1053Z" fill="#263238"/>
<path d="M194.814 86.3247C194.758 86.3184 195.374 81.5079 196.188 75.5824C197.001 69.657 197.71 64.859 197.765 64.8652C197.821 64.8715 197.204 69.682 196.391 75.6075C195.578 81.533 194.869 86.3309 194.814 86.3247Z" fill="#263238"/>
<path d="M195.036 86.3561C195.03 86.4125 190.23 85.7799 184.32 84.9343C178.411 84.0949 173.624 83.3683 173.636 83.312C173.642 83.2556 178.442 83.8882 184.351 84.7338C190.26 85.5732 195.042 86.2998 195.036 86.3561Z" fill="#263238"/>
<path d="M202.839 153.805C202.58 152.922 188.513 133.223 188.513 132.772L189.832 95.2771C189.758 94.0307 187.195 78.5155 187.195 78.5155C187.195 78.5155 186.671 77.0435 185.463 76.9495C184.262 76.8619 183.923 77.5509 183.639 77.8453C183.356 78.1334 176.978 90.8988 176.596 91.9135C176.214 92.9283 168.333 129.07 168.333 129.07C168.333 129.07 149.774 143.771 148.684 144.61C147.944 145.174 146.219 155.102 146.219 155.102L165.949 159.129L181.661 161.284L202.334 162.562C202.34 162.556 203.098 154.682 202.839 153.805Z" fill="#F5F5F5"/>
<path d="M202.614 162.886L181.646 161.589L165.915 159.435L145.871 155.338L145.926 155.038C146.339 152.682 147.738 144.94 148.508 144.352C149.543 143.556 166.685 129.983 168.066 128.887C168.632 126.293 175.934 92.8077 176.316 91.7992C176.6 91.0538 183.045 78.0128 183.427 77.6182C183.464 77.5806 183.507 77.5305 183.55 77.4741C183.84 77.1233 184.32 76.5408 185.491 76.6285C186.877 76.7287 187.463 78.3322 187.487 78.3949C187.604 79.0839 190.069 93.9978 190.137 95.2505L188.818 132.707C189.133 133.334 192.528 138.207 195.535 142.516C200.168 149.168 202.99 153.24 203.132 153.703C203.403 154.618 202.719 161.765 202.645 162.579L202.614 162.886ZM146.58 154.843L166.014 158.815L181.701 160.963L202.06 162.216C202.349 159.184 202.713 154.486 202.547 153.891C202.343 153.365 198.289 147.552 195.035 142.88C188.837 133.985 188.208 133.021 188.208 132.758L189.527 95.2505C189.459 94.0667 186.933 78.7582 186.896 78.5515C186.89 78.5515 186.415 77.3175 185.448 77.2486C184.585 77.186 184.277 77.5681 184.018 77.8687C183.963 77.9376 183.914 78.0003 183.864 78.0504C183.482 78.5703 177.284 90.9787 176.895 92.0122C176.6 92.8014 171.368 116.629 168.645 129.118L168.62 129.231L168.534 129.3C168.349 129.444 149.956 144.013 148.878 144.84C148.459 145.272 147.393 150.208 146.58 154.843Z" fill="#263238"/>
<path d="M189.878 94.8107C189.558 92.1799 187.278 78.3997 187.278 78.3997C187.278 78.3997 186.754 76.9278 185.546 76.8338C184.345 76.7461 184.006 77.4351 183.723 77.7295C183.439 78.0177 177.062 90.7831 176.68 91.7978C176.643 91.8918 176.55 92.2739 176.402 92.894L189.878 94.8107Z" fill="#F5F5F5"/>
<path d="M166.23 161.452L167.468 151.204L169.181 147.54L173.39 116.466L176.409 92.8829L189.878 94.7996L182.108 149.407L182.971 153.221L180.876 168.442L173.827 167.44L175.873 151.749C175.922 151.355 175.651 150.991 175.263 150.935C174.868 150.879 174.511 151.16 174.456 151.555L172.33 167.233L165.62 166.281L166.23 161.452Z" fill="#F5F5F5"/>
<path d="M164.4 147.954C164.191 149.464 162.823 150.51 161.344 150.303C159.858 150.09 158.829 148.699 159.033 147.196C159.242 145.686 160.61 144.64 162.089 144.847C163.575 145.06 164.61 146.45 164.4 147.954Z" fill="#008ECF"/>
<path d="M181.942 100.901C181.998 100.907 180.506 112.087 178.609 125.874C176.711 139.66 175.127 150.829 175.072 150.816C175.016 150.81 176.507 139.629 178.405 125.843C180.303 112.062 181.887 100.894 181.942 100.901Z" fill="#263238"/>
<path d="M182.313 96.8249L181.361 96.6909L181.124 98.3907L182.077 98.5247L182.313 96.8249Z" fill="#008ECF"/>
<path d="M184.438 97.1331L183.486 96.999L183.249 98.6988L184.201 98.8328L184.438 97.1331Z" fill="#008ECF"/>
<path d="M179.471 91.9619L180.519 93.4527L185.781 94.2043L187.192 93.127C187.192 93.127 186.089 91.6237 183.47 91.2479C181.209 90.9222 179.471 91.9619 179.471 91.9619Z" fill="#263238"/>
<path d="M188.942 101.383C188.936 101.439 185.935 101.057 182.238 100.537C178.541 100.011 175.553 99.5413 175.565 99.4849C175.571 99.4285 178.572 99.8106 182.269 100.33C185.96 100.857 188.955 101.326 188.942 101.383Z" fill="#263238"/>
<path d="M188.763 87.3081C188.757 87.3645 186.723 87.1265 184.228 86.7695C181.732 86.4124 179.717 86.0805 179.724 86.0241C179.73 85.9677 181.763 86.212 184.259 86.5628C186.754 86.9198 188.769 87.2518 188.763 87.3081Z" fill="#263238"/>
<path d="M176.551 100.8C176.545 100.832 176.495 100.851 176.464 100.913C176.433 100.982 176.446 101.039 176.52 101.058C176.6 101.07 176.631 101.026 176.625 100.951C176.625 100.882 176.582 100.844 176.588 100.813C176.588 100.788 176.693 100.775 176.761 100.901C176.791 100.957 176.81 101.051 176.761 101.146C176.711 101.246 176.582 101.29 176.477 101.265C176.372 101.246 176.273 101.152 176.261 101.045C176.248 100.938 176.304 100.863 176.353 100.819C176.464 100.725 176.557 100.775 176.551 100.8Z" fill="#263238"/>
<path d="M177.894 100.988C177.888 101.02 177.838 101.039 177.808 101.101C177.777 101.17 177.789 101.227 177.863 101.246C177.943 101.258 177.974 101.214 177.968 101.139C177.968 101.07 177.925 101.032 177.931 101.001C177.931 100.976 178.036 100.963 178.104 101.089C178.135 101.145 178.153 101.239 178.104 101.333C178.054 101.434 177.925 101.478 177.82 101.453C177.715 101.434 177.616 101.34 177.604 101.233C177.591 101.126 177.647 101.051 177.696 101.007C177.814 100.913 177.906 100.963 177.894 100.988Z" fill="#263238"/>
<path d="M179.355 101.201C179.349 101.232 179.299 101.251 179.268 101.314C179.237 101.383 179.25 101.439 179.324 101.458C179.404 101.471 179.435 101.427 179.429 101.351C179.429 101.282 179.386 101.245 179.392 101.213C179.392 101.188 179.497 101.176 179.565 101.301C179.595 101.358 179.614 101.452 179.565 101.546C179.515 101.646 179.386 101.69 179.281 101.665C179.176 101.646 179.077 101.552 179.065 101.446C179.052 101.339 179.108 101.264 179.157 101.22C179.268 101.119 179.367 101.176 179.355 101.201Z" fill="#263238"/>
<path d="M180.815 101.407C180.809 101.439 180.759 101.458 180.729 101.52C180.698 101.589 180.71 101.646 180.784 101.665C180.864 101.677 180.895 101.633 180.889 101.558C180.889 101.489 180.846 101.451 180.852 101.42C180.852 101.395 180.957 101.382 181.025 101.508C181.056 101.564 181.074 101.658 181.025 101.752C180.976 101.853 180.846 101.897 180.741 101.872C180.636 101.853 180.537 101.759 180.525 101.652C180.513 101.545 180.568 101.47 180.618 101.426C180.729 101.326 180.821 101.382 180.815 101.407Z" fill="#263238"/>
<path d="M183.71 137.806C183.704 137.863 180.777 137.493 177.173 136.98C173.568 136.466 170.654 136.002 170.66 135.946C170.666 135.89 173.593 136.259 177.197 136.773C180.802 137.287 183.717 137.75 183.71 137.806Z" fill="#263238"/>
<path d="M187.081 114.286C187.074 114.342 184.117 113.966 180.481 113.453C176.846 112.933 173.901 112.469 173.907 112.413C173.913 112.357 176.871 112.733 180.506 113.246C184.148 113.76 187.087 114.223 187.081 114.286Z" fill="#263238"/>
<path d="M185.337 126.964C185.331 127.02 182.41 126.65 178.818 126.143C175.226 125.629 172.317 125.172 172.323 125.116C172.33 125.059 175.25 125.429 178.842 125.936C182.435 126.444 185.343 126.907 185.337 126.964Z" fill="#263238"/>
<path d="M174.192 152.263C174.186 152.319 172.657 152.15 170.784 151.881C168.91 151.611 167.394 151.355 167.4 151.292C167.406 151.236 168.935 151.405 170.808 151.674C172.688 151.944 174.198 152.207 174.192 152.263Z" fill="#263238"/>
<path d="M173.847 155.082C173.841 155.138 172.361 154.975 170.55 154.718C168.738 154.462 167.271 154.205 167.283 154.148C167.289 154.092 168.769 154.255 170.58 154.512C172.392 154.769 173.859 155.025 173.847 155.082Z" fill="#263238"/>
<path d="M173.656 157.499C173.65 157.556 172.133 157.386 170.272 157.123C168.411 156.86 166.907 156.597 166.914 156.541C166.92 156.484 168.436 156.653 170.303 156.917C172.158 157.186 173.662 157.443 173.656 157.499Z" fill="#263238"/>
<path d="M173.206 160.074C173.2 160.13 171.715 159.967 169.89 159.704C168.066 159.447 166.593 159.19 166.599 159.134C166.606 159.078 168.091 159.241 169.921 159.504C171.745 159.761 173.218 160.017 173.206 160.074Z" fill="#263238"/>
<path d="M172.885 162.435C172.879 162.492 171.394 162.329 169.57 162.066C167.746 161.809 166.273 161.552 166.279 161.496C166.285 161.439 167.77 161.602 169.601 161.865C171.419 162.122 172.892 162.379 172.885 162.435Z" fill="#263238"/>
<path d="M172.559 164.796C172.553 164.853 171.068 164.69 169.243 164.427C167.419 164.17 165.946 163.913 165.952 163.857C165.959 163.8 167.444 163.963 169.274 164.226C171.092 164.483 172.565 164.74 172.559 164.796Z" fill="#263238"/>
<path d="M182.645 153.465C182.639 153.521 181.111 153.352 179.237 153.083C177.364 152.813 175.848 152.557 175.854 152.494C175.86 152.438 177.389 152.607 179.262 152.876C181.136 153.146 182.652 153.409 182.645 153.465Z" fill="#263238"/>
<path d="M182.301 156.284C182.294 156.341 180.815 156.178 179.003 155.921C177.192 155.664 175.725 155.407 175.737 155.351C175.743 155.294 177.222 155.457 179.034 155.714C180.846 155.971 182.307 156.222 182.301 156.284Z" fill="#263238"/>
<path d="M182.109 158.702C182.103 158.758 180.587 158.589 178.726 158.326C176.865 158.063 175.361 157.8 175.367 157.743C175.373 157.687 176.89 157.856 178.757 158.119C180.612 158.389 182.116 158.645 182.109 158.702Z" fill="#263238"/>
<path d="M181.66 161.276C181.654 161.332 180.168 161.169 178.344 160.906C176.52 160.649 175.047 160.392 175.053 160.336C175.059 160.28 176.544 160.443 178.375 160.706C180.193 160.963 181.666 161.219 181.66 161.276Z" fill="#263238"/>
<path d="M181.333 163.638C181.327 163.694 179.842 163.531 178.017 163.268C176.193 163.011 174.72 162.754 174.726 162.698C174.733 162.642 176.218 162.805 178.048 163.068C179.872 163.325 181.345 163.581 181.333 163.638Z" fill="#263238"/>
<path d="M181.013 165.999C181.006 166.056 179.521 165.893 177.697 165.63C175.873 165.373 174.4 165.116 174.406 165.059C174.412 165.003 175.897 165.166 177.728 165.429C179.546 165.686 181.019 165.943 181.013 165.999Z" fill="#263238"/>
<path d="M183.951 92.0812C183.976 92.1313 183.569 92.3631 183.045 92.5887C182.521 92.8205 182.084 92.9583 182.059 92.9082C182.035 92.858 182.441 92.6262 182.965 92.4007C183.489 92.1689 183.927 92.0248 183.951 92.0812Z" fill="white"/>
<path d="M184.573 92.2305C184.61 92.2932 184.247 92.5124 183.778 92.7192C183.31 92.9259 182.916 93.0449 182.891 92.9948C182.866 92.9447 183.23 92.7379 183.692 92.5312C184.167 92.3182 184.561 92.1929 184.573 92.2305Z" fill="white"/>
<path d="M176.562 92.062C176.618 92.0683 175.004 104.464 172.952 119.735C170.9 135.018 169.193 147.396 169.138 147.383C169.082 147.377 170.696 134.987 172.748 119.704C174.8 104.439 176.507 92.0558 176.562 92.062Z" fill="#263238"/>
<path d="M182.157 149.1C182.102 149.094 183.716 137.449 185.756 123.099C187.802 108.743 189.502 97.1174 189.558 97.1299C189.613 97.1362 187.999 108.78 185.959 123.131C183.914 137.481 182.213 149.106 182.157 149.1Z" fill="#263238"/>
<path d="M192.837 151.998L185.054 150.903L184.757 153.037L192.54 154.132L192.837 151.998Z" fill="#008ECF"/>
<path d="M191.942 29.7322C191.997 29.7385 191.024 37.2236 189.773 46.4438C188.516 55.6639 187.456 63.1365 187.401 63.124C187.345 63.1177 188.319 55.6326 189.57 46.4124C190.82 37.1923 191.88 29.7197 191.942 29.7322Z" fill="#263238"/>
<path d="M188.375 61.2202C188.369 61.1951 188.486 61.1512 188.603 61.2704C188.659 61.3269 188.708 61.4273 188.69 61.5465C188.671 61.672 188.548 61.7786 188.418 61.7974C188.289 61.8225 188.147 61.7661 188.085 61.6469C188.023 61.5339 188.042 61.4273 188.079 61.352C188.153 61.1951 188.283 61.2014 188.283 61.2265C188.295 61.2516 188.227 61.3018 188.221 61.3959C188.208 61.5025 188.258 61.6092 188.394 61.5841C188.523 61.5653 188.542 61.4461 188.499 61.352C188.449 61.2704 188.375 61.2453 188.375 61.2202Z" fill="#263238"/>
<path d="M189.146 55.6204C189.14 55.5953 189.257 55.5513 189.374 55.6705C189.43 55.727 189.479 55.8274 189.461 55.9466C189.442 56.0721 189.319 56.1788 189.189 56.1976C189.059 56.2227 188.917 56.1662 188.856 56.047C188.794 55.9341 188.813 55.8274 188.85 55.7521C188.924 55.5953 189.053 55.6015 189.053 55.6266C189.066 55.6517 188.998 55.7019 188.992 55.796C188.979 55.9027 189.029 56.0094 189.164 55.9843C189.294 55.9654 189.312 55.8462 189.269 55.7521C189.22 55.6705 189.146 55.6517 189.146 55.6204Z" fill="#263238"/>
<path d="M189.915 50.0204C189.909 49.9953 190.027 49.9514 190.144 50.0706C190.199 50.127 190.249 50.2274 190.23 50.3466C190.212 50.4721 190.088 50.5788 189.959 50.5976C189.829 50.6227 189.687 50.5662 189.625 50.447C189.564 50.3341 189.582 50.2274 189.619 50.1521C189.693 49.9953 189.823 50.0016 189.823 50.0267C189.835 50.0517 189.767 50.1019 189.761 50.1961C189.749 50.3027 189.798 50.4094 189.934 50.3843C190.064 50.3655 190.082 50.2462 190.039 50.1521C189.99 50.0768 189.915 50.0517 189.915 50.0204Z" fill="#263238"/>
<path d="M190.686 44.4271C190.68 44.402 190.797 44.3581 190.915 44.4773C190.97 44.5338 191.02 44.6342 191.001 44.7534C190.983 44.8789 190.859 44.9855 190.73 45.0043C190.6 45.0294 190.458 44.973 190.396 44.8538C190.335 44.7408 190.353 44.6342 190.39 44.5589C190.464 44.402 190.594 44.4083 190.594 44.4334C190.606 44.4585 190.538 44.5087 190.532 44.6028C190.52 44.7095 190.569 44.8161 190.705 44.791C190.835 44.7722 190.853 44.653 190.81 44.5589C190.76 44.4773 190.686 44.4585 190.686 44.4271Z" fill="#263238"/>
<path d="M191.456 38.8271C191.45 38.802 191.567 38.7581 191.684 38.8773C191.74 38.9338 191.789 39.0342 191.771 39.1534C191.752 39.2789 191.629 39.3856 191.499 39.4044C191.37 39.4295 191.228 39.373 191.166 39.2538C191.104 39.1409 191.123 39.0342 191.16 38.9589C191.234 38.802 191.363 38.8083 191.363 38.8334C191.376 38.8648 191.308 38.9087 191.302 39.0028C191.289 39.1095 191.339 39.2161 191.475 39.191C191.604 39.1722 191.623 39.053 191.579 38.9589C191.53 38.8773 191.456 38.8585 191.456 38.8271Z" fill="#263238"/>
<path d="M192.227 33.2277C192.221 33.2026 192.338 33.1586 192.455 33.2778C192.511 33.3343 192.56 33.4347 192.542 33.5539C192.523 33.6794 192.4 33.7861 192.27 33.8049C192.14 33.83 191.998 33.7735 191.937 33.6543C191.875 33.5414 191.893 33.4347 191.931 33.3594C192.005 33.2026 192.134 33.2088 192.134 33.2339C192.147 33.2653 192.079 33.3092 192.072 33.4033C192.06 33.51 192.11 33.6167 192.245 33.5916C192.375 33.5727 192.393 33.4535 192.35 33.3594C192.301 33.2841 192.227 33.259 192.227 33.2277Z" fill="#263238"/>
<path d="M185.461 38.5326C185.473 38.5389 185.331 38.7393 185.066 39.0838C184.801 39.4283 184.425 39.9357 183.982 40.5746C183.538 41.2135 183.039 41.9964 182.528 42.8859C182.022 43.7816 181.505 44.79 181.024 45.8736C180.55 46.9635 180.168 48.0284 179.853 49.0118C179.552 49.9952 179.311 50.8971 179.145 51.6551C178.978 52.4192 178.855 53.0393 178.787 53.4715C178.714 53.9037 178.664 54.1417 178.652 54.1355C178.64 54.1355 178.658 53.8912 178.707 53.459C178.75 53.0205 178.849 52.3942 179.003 51.6237C179.151 50.8533 179.379 49.9451 179.675 48.9491C179.983 47.9595 180.365 46.8821 180.839 45.786C181.32 44.6898 181.85 43.6814 182.361 42.7856C182.885 41.8962 183.396 41.1132 183.859 40.4869C184.321 39.8542 184.709 39.3594 184.998 39.0337C185.288 38.7017 185.448 38.5201 185.461 38.5326Z" fill="white"/>
<path d="M187.716 35.5328C187.759 35.5641 187.599 35.8711 187.346 36.2094C187.099 36.5477 186.859 36.7983 186.816 36.7607C186.773 36.7294 186.933 36.4224 187.186 36.0841C187.432 35.7458 187.673 35.4952 187.716 35.5328Z" fill="white"/>
<path d="M175.509 82.7169C175.454 82.7106 176.014 78.3072 176.76 72.8891C177.506 67.471 178.159 63.0802 178.214 63.0864C178.27 63.0927 177.709 67.4961 176.963 72.9142C176.218 78.3323 175.565 82.7231 175.509 82.7169Z" fill="white"/>
<path d="M177.795 76.7424C177.74 76.7362 177.875 75.3955 178.103 73.7604C178.331 72.119 178.559 70.7971 178.615 70.8034C178.67 70.8096 178.535 72.144 178.307 73.7854C178.079 75.4268 177.851 76.7487 177.795 76.7424Z" fill="white"/>
<path d="M179.742 74.919C179.687 74.9127 179.705 74.4178 179.791 73.8164C179.872 73.215 179.989 72.7326 180.044 72.7388C180.1 72.7451 180.081 73.24 179.995 73.8414C179.915 74.4429 179.798 74.9253 179.742 74.919Z" fill="white"/>
<path d="M171.042 109.006C170.986 108.999 171.652 103.813 172.533 97.4177C173.414 91.0288 174.172 85.8549 174.228 85.8612C174.283 85.8675 173.618 91.0538 172.736 97.4491C171.855 103.844 171.097 109.018 171.042 109.006Z" fill="white"/>
<path d="M142.292 158.809L143.931 159.435L142.507 159.849C142.033 159.987 141.657 160.356 141.503 160.832L140.985 162.436L140.35 160.832C140.19 160.431 139.876 160.124 139.481 159.974L138.039 159.442L139.598 158.79C139.974 158.633 140.27 158.326 140.418 157.938L140.985 156.447L141.392 157.832C141.527 158.283 141.86 158.646 142.292 158.809Z" fill="#263238"/>
<path d="M109.998 157.85L110.941 158.214L110.121 158.452C109.85 158.533 109.628 158.74 109.542 159.016L109.246 159.936L108.882 159.016C108.79 158.784 108.611 158.608 108.383 158.521L107.557 158.214L108.457 157.838C108.673 157.75 108.846 157.568 108.932 157.349L109.258 156.491L109.493 157.286C109.56 157.55 109.751 157.756 109.998 157.85Z" fill="#263238"/>
<path d="M116.535 117.412C111.291 117.412 107.039 113.09 107.039 107.759C107.039 104.684 108.457 101.94 110.669 100.174C107.095 101.558 104.556 105.072 104.556 109.194C104.556 114.524 108.808 118.846 114.052 118.846C116.27 118.846 118.303 118.076 119.918 116.779C118.864 117.186 117.724 117.412 116.535 117.412Z" fill="#455A64"/>
<path d="M264.991 166.86C267.267 158.294 262.278 149.486 253.847 147.188C245.417 144.889 236.737 149.97 234.461 158.536C232.185 167.102 237.174 175.909 245.604 178.208C254.035 180.506 262.715 175.426 264.991 166.86Z" fill="#F5F5F5"/>
<path d="M263.012 160.45C262.704 162.692 260.665 164.252 258.465 163.938C256.259 163.625 254.725 161.552 255.033 159.316C255.341 157.073 257.38 155.514 259.58 155.827C261.78 156.14 263.32 158.213 263.012 160.45Z" fill="white"/>
<path d="M257.097 153.053C256.974 153.955 256.148 154.588 255.261 154.462C254.373 154.337 253.751 153.497 253.874 152.595C253.997 151.693 254.823 151.06 255.711 151.186C256.604 151.311 257.227 152.144 257.097 153.053Z" fill="white"/>
<path d="M258.329 173.76C258.237 174.43 257.627 174.9 256.967 174.806C256.308 174.712 255.846 174.092 255.938 173.422C256.031 172.751 256.641 172.282 257.306 172.375C257.966 172.469 258.422 173.09 258.329 173.76Z" fill="#EBEBEB"/>
<path d="M254.195 106.394L254.817 108.073L256.235 109.15L254.583 109.783L253.529 111.224L252.901 109.545L251.483 108.474L253.141 107.835L254.195 106.394Z" fill="#E0E0E0"/>
<path d="M134.67 125.974L135.292 127.653L136.71 128.724L135.058 129.357L134.004 130.798L133.382 129.119L131.964 128.048L133.616 127.415L134.67 125.974Z" fill="#E0E0E0"/>
<path d="M122.438 153.428L122.709 154.161L123.326 154.625L122.611 154.9L122.148 155.527L121.877 154.794L121.261 154.33L121.982 154.055L122.438 153.428Z" fill="#E0E0E0"/>
<path d="M126.036 92.4259C126.369 91.2295 124.81 89.9768 123.547 89.6949C122.943 89.5571 122.302 89.5634 121.753 89.2752C120.564 88.6551 120.293 86.9451 119.147 86.2499C118.291 85.73 117.194 85.9304 116.251 86.2561C115.308 86.5818 114.353 87.0266 113.361 86.9514C112.492 86.8825 111.605 86.4315 110.798 86.7509C110.194 86.989 109.812 87.6028 109.245 87.916C108.691 88.2229 108.019 88.2104 107.39 88.154C106.762 88.0976 106.109 88.0162 105.505 88.1979C104.901 88.3795 104.34 88.9307 104.377 89.5696L126.036 92.4259Z" fill="white"/>
<path d="M134.25 144.803C134.866 142.579 131.976 140.268 129.641 139.735C128.526 139.485 127.33 139.491 126.314 138.959C124.114 137.813 123.609 134.637 121.483 133.346C119.893 132.382 117.86 132.751 116.11 133.353C114.36 133.96 112.598 134.781 110.749 134.643C109.147 134.518 107.502 133.672 105.999 134.267C104.883 134.706 104.169 135.846 103.115 136.428C102.086 136.998 100.841 136.973 99.6766 136.873C98.5059 136.773 97.3043 136.616 96.1829 136.954C95.0615 137.299 94.0263 138.307 94.0879 139.497L134.25 144.803Z" fill="white"/>
<path d="M267.904 134.85C268.416 133.009 266.025 131.098 264.09 130.66C263.166 130.453 262.18 130.459 261.336 130.021C259.512 129.069 259.093 126.444 257.337 125.379C256.025 124.584 254.342 124.885 252.888 125.386C251.44 125.887 249.98 126.569 248.452 126.45C247.121 126.35 245.765 125.649 244.521 126.137C243.596 126.501 243.005 127.446 242.136 127.922C241.28 128.392 240.257 128.373 239.289 128.286C238.322 128.204 237.324 128.073 236.399 128.355C235.469 128.637 234.619 129.476 234.668 130.459L267.904 134.85Z" fill="#FAFAFA"/>
<path d="M88.0437 174.7L88.1977 175.063C88.3703 175.47 88.6476 175.815 89.0051 176.065L89.3255 176.285L88.9681 176.441C88.5675 176.617 88.2286 176.899 87.9882 177.262L87.7725 177.588L87.6184 177.224C87.4459 176.817 87.1685 176.473 86.8111 176.228L86.4906 176.009L86.8481 175.852C87.2487 175.683 87.5876 175.395 87.828 175.032L88.0437 174.7Z" fill="#E0E0E0"/>
<path d="M233.871 115.737C234.468 111.071 231.231 106.801 226.641 106.198C222.051 105.595 217.846 108.888 217.249 113.554C216.651 118.219 219.888 122.49 224.478 123.093C229.068 123.696 233.273 120.402 233.871 115.737Z" fill="#E0E0E0"/>
<path d="M224.12 117.136C224.015 117.894 223.325 118.427 222.579 118.32C221.834 118.214 221.31 117.512 221.415 116.754C221.519 115.996 222.21 115.464 222.955 115.57C223.707 115.67 224.225 116.372 224.12 117.136Z" fill="white"/>
<path d="M222.746 112.89C222.684 113.334 222.283 113.641 221.846 113.579C221.408 113.516 221.106 113.109 221.168 112.664C221.23 112.219 221.63 111.912 222.068 111.975C222.505 112.038 222.807 112.451 222.746 112.89Z" fill="white"/>
<path d="M217.231 115.557C217.249 115.707 209.152 121.658 210.785 123.399C212.424 125.147 220.687 122.441 228.032 117.962C235.377 113.484 242.309 107.759 240.904 105.786C239.493 103.806 230.534 107.79 230.534 107.79L231.433 108.567C231.433 108.567 236.868 106.024 238.273 107.508C239.678 108.993 234.502 113.283 227.508 117.091C220.515 120.9 213.928 123.33 213.151 121.908C212.375 120.48 217.458 116.816 217.458 116.816L217.231 115.557Z" fill="#FAFAFA"/>
<path d="M221.809 108.06C221.864 108.154 221.236 108.555 220.466 109.438C219.695 110.308 218.82 111.73 218.543 113.484C218.266 115.244 218.66 116.873 219.122 117.944C219.585 119.027 220.059 119.61 219.973 119.679C219.923 119.729 219.307 119.247 218.71 118.144C218.408 117.599 218.13 116.898 217.964 116.084C217.798 115.269 217.748 114.336 217.896 113.378C218.05 112.419 218.383 111.549 218.79 110.828C219.203 110.108 219.677 109.525 220.133 109.106C221.045 108.26 221.778 107.997 221.809 108.06Z" fill="white"/>
<path d="M213.915 170.747L214.538 172.426L215.955 173.497L214.304 174.13L213.25 175.571L212.627 173.892L211.21 172.82L212.861 172.188L213.915 170.747Z" fill="#263238"/>
<path d="M225.98 164.809L226.264 165.573L226.911 166.062L226.153 166.356L225.672 167.014L225.388 166.244L224.741 165.755L225.493 165.467L225.98 164.809Z" fill="#263238"/>
<path d="M150.142 114.48L150.764 116.159L152.182 117.23L150.53 117.869L149.476 119.31L148.854 117.631L147.436 116.56L149.088 115.921L150.142 114.48Z" fill="#263238"/>
<path d="M212.69 140.706L213.312 142.385L214.73 143.457L213.078 144.096L212.024 145.536L211.402 143.851L209.984 142.78L211.636 142.147L212.69 140.706Z" fill="#263238"/>
<path d="M133.258 102.36L133.548 103.124L134.195 103.613L133.437 103.907L132.956 104.565L132.672 103.795L132.019 103.306L132.777 103.018L133.258 102.36Z" fill="#263238"/>
<path d="M145.434 94.186L145.723 94.9503L146.371 95.439L145.613 95.7334L145.132 96.3913L144.848 95.6207L144.195 95.132L144.953 94.8438L145.434 94.186Z" fill="#263238"/>
</svg>
