<svg width="480" height="280" viewBox="0 0 480 280" fill="none" xmlns="http://www.w3.org/2000/svg">
<path d="M92.5627 53.7903C84.7499 42.7367 73.4304 38.0595 56.6958 38.0595C35.2856 38.0595 21.4383 48.1436 21.798 63.5146C22.0478 71.5699 27.1031 80.4547 39.7315 89.4595C43.9376 88.0103 47.5543 87.5406 53.5687 87.5406C61.2616 87.5406 68.1353 88.9798 68.1353 93.5371C68.1353 97.6247 63.6794 99.1838 57.7848 99.1838C50.2018 99.1838 42.379 97.7346 38.5326 96.0556C27.3429 98.2243 20.6091 106.02 20.719 114.185C20.8389 125.598 33.5971 132.434 49.3626 132.434C63.3197 132.434 75.5984 125.948 84.0206 118.393C85.7091 118.393 87.1577 122.11 86.6682 123.789C85.9389 126.318 72.2315 141.209 47.0747 141.209C24.2158 141.209 8.09067 130.396 7.85089 117.313C7.731 106.38 16.6428 97.135 30.5899 92.3378C16.9925 86.931 4.23423 77.3265 4.00444 63.5046C3.63478 45.6151 26.3838 30.9636 54.7776 30.9636C76.078 30.9636 96.659 40.2182 96.7789 49.4528C96.7789 51.3817 95.57 52.7109 92.5627 53.7903ZM120.957 97.3848C123.474 100.133 125.283 103.381 125.283 107.709C125.283 118.153 113.483 123.799 104.222 123.799C98.1975 123.799 93.392 121.521 93.392 116.484C93.392 111.676 98.6871 106.39 105.9 101.472C101.325 97.145 95.1903 93.0574 95.1903 85.5018C95.1903 79.975 98.807 75.4077 104.702 73.4888C110.836 71.6898 117.21 72.0496 119.618 74.2084C119.268 78.286 115.522 80.0949 108.308 79.7351C106.26 81.8939 108.418 86.5712 112.394 90.0591C114.083 91.4983 116.011 92.9374 117.929 94.4965C127.68 89.5794 137.541 86.0914 141.288 86.0914C142.487 86.0914 143.686 86.9409 144.295 89.2196C139.01 89.5694 129.738 92.9275 120.957 97.3848ZM108.678 104.821C103.263 108.668 99.5263 112.746 99.5263 115.874C99.5263 118.153 100.735 119.112 102.294 119.112C105.551 119.112 110.476 115.154 110.476 109.987C110.486 108.059 109.767 106.38 108.678 104.821ZM161.379 123.669C148.631 123.669 140.688 114.065 140.688 97.2549C140.688 89.0897 141.887 80.8045 143.206 72.7592C140.439 72.6393 137.801 72.6393 135.143 72.6393C132.736 72.6393 131.537 71.44 131.537 69.1613C131.537 68.2019 131.767 67.0026 132.136 65.6834C135.393 66.4029 139.479 66.7527 144.175 67.1225C145.744 58.1178 147.302 49.5927 147.542 41.6674C157.413 41.8972 159.811 43.7062 159.811 51.8714C159.811 55.3494 158.852 60.9961 157.773 67.4823H174.737L174.008 69.641C173.298 71.6798 170.771 72.5194 156.813 72.7592C155.245 82.3736 153.437 93.1773 153.437 102.302C153.437 111.427 157.643 117.783 164.147 117.783C174.377 117.783 184.368 105.29 193.15 86.0814C194.958 86.2114 195.917 87.4107 195.917 88.49C195.917 93.0474 183.279 123.669 161.379 123.669ZM230.805 112.626C225.27 112.626 222.982 108.898 222.383 103.131C218.776 111.417 209.385 119.102 201.692 119.102C193.51 119.102 187.485 112.616 187.485 103.611C187.485 86.9209 200.483 72.5094 215.649 72.5094C222.623 72.5094 230.326 77.6663 232.014 83.1931C230.695 88.9498 230.086 93.747 230.086 97.3648C230.086 103.002 231.894 106.37 235.261 106.37C240.316 106.37 249.588 95.5659 255.842 86.2014C256.452 85.3619 259.219 84.7522 258.729 86.3213C257.64 90.0591 243.204 112.626 230.805 112.626ZM216.129 76.9668C209.625 76.9668 200.483 92.6876 200.483 103.022C200.483 106.869 202.052 109.868 204.34 109.868C212.043 109.868 220.465 89.2196 221.554 81.5341C220.944 78.0361 218.417 76.9668 216.129 76.9668ZM298.433 123.56C290.37 123.56 287.123 118.043 287.123 104.221C287.123 96.4254 288.922 85.7316 288.922 82.4935C288.922 79.8451 288.562 78.0461 287.123 78.0461C283.387 78.0461 269.919 98.9439 266.422 115.394C265.343 115.874 264.124 116.114 262.576 116.114C254.264 116.114 253.554 109.987 253.554 101.942C253.554 93.1773 254.513 86.5712 254.513 80.3248C254.513 77.0767 254.144 74.0785 253.554 71.3201C255.832 69.5211 258.729 68.4318 261.257 68.4318C265.114 68.4318 267.272 70.8403 267.272 75.2777C267.272 79.0056 266.183 90.8886 266.672 98.3343C272.567 87.4107 281.349 73.119 291.219 73.119C299.881 73.119 301.32 80.0849 301.32 89.4495C301.32 93.1773 300.841 100.743 300.841 105.65C300.841 112.266 302.409 115.744 305.536 115.744C309.862 115.744 328.285 104.331 336.578 87.8804C338.866 87.4107 340.064 87.8804 340.064 88.9598C340.064 94.9762 318.045 123.56 298.433 123.56ZM356.419 123.669C343.661 123.669 335.728 114.065 335.728 97.2549C335.728 89.0897 336.927 80.8045 338.246 72.7592C335.479 72.6393 332.831 72.6393 330.184 72.6393C327.776 72.6393 326.577 71.44 326.577 69.1613C326.577 68.2019 326.817 67.0026 327.176 65.6834C330.433 66.4029 334.52 66.7527 339.215 67.1225C340.774 58.1178 342.342 49.5927 342.582 41.6674C352.453 41.8972 354.861 43.7062 354.861 51.8714C354.861 55.3494 353.902 60.9961 352.823 67.4823H369.787L369.068 69.641C368.348 71.6798 365.811 72.5194 351.864 72.7592C350.295 82.3736 348.487 93.1773 348.487 102.302C348.487 111.427 352.693 117.783 359.197 117.783C369.427 117.783 379.418 105.29 388.2 86.0814C390.008 86.2114 390.967 87.4107 390.967 88.49C390.957 93.0474 378.329 123.669 356.419 123.669ZM413.457 121.271C397.931 121.271 385.662 110.347 385.662 95.2061C385.662 80.5646 394.684 68.9115 406.123 68.9115C413.816 68.9115 418.272 73.8386 418.272 82.4835C418.272 90.8886 412.498 98.814 402.267 105.3C404.915 110.827 409.251 113.945 414.905 113.945C427.903 113.945 441.621 96.8951 447.995 85.122C450.642 84.4024 451.492 85.122 451.492 87.0409C451.492 92.2079 434.158 121.271 413.457 121.271ZM411.529 82.0038C411.529 78.1661 409.61 75.3977 406.833 75.3977C402.617 75.3977 399.14 81.8839 399.14 89.6993C399.14 93.8869 399.619 97.6147 400.579 100.983C406.123 96.0456 411.529 89.8093 411.529 82.0038ZM156.174 260.67C153.277 263.548 149.31 264.987 144.735 264.987C136.682 264.987 134.864 255.143 134.864 243.5C134.864 230.047 138.96 204.232 138.96 194.028C138.96 187.422 138.361 184.664 136.322 184.664C130.787 184.664 115.262 241.341 107.679 250.705C105.511 253.584 102.384 255.622 99.2466 255.622C90.9542 255.622 85.1796 244.809 85.1796 228.248C85.1796 216.715 88.2967 195.218 88.2967 170.732C88.2967 166.884 87.0978 164.845 84.69 164.845C71.3423 164.845 47.6242 234.725 45.4662 262.598C45.0965 266.556 45.4662 272.553 46.0756 277C35.8351 275.791 27.8924 274.471 27.8924 265.826C27.8924 255.383 34.3864 233.295 41.8495 213.717C47.2645 199.785 66.8864 153.922 83.9707 153.922C102.144 153.922 97.3184 190.061 99.1267 222.242C99.4864 231.117 99.846 237.733 102.613 242.65C126.072 183.924 130.528 167.844 140.039 167.844C144.855 167.844 148.951 175.999 148.951 186.453C148.951 193.299 148.221 207.101 148.221 215.516C148.221 253.823 152.677 254.663 156.174 260.67ZM201.143 232.696C195.608 232.696 193.32 228.968 192.73 223.211C189.124 231.497 179.732 239.182 172.029 239.182C163.847 239.182 157.823 232.696 157.823 223.691C157.823 206.991 170.821 192.579 185.987 192.579C192.97 192.579 200.663 197.746 202.351 203.273C201.023 209.04 200.423 213.837 200.423 217.445C200.423 223.081 202.222 226.449 205.598 226.449C210.644 226.449 219.915 215.636 226.179 206.271C226.779 205.442 229.546 204.832 229.067 206.401C227.988 210.119 213.541 232.696 201.143 232.696ZM186.476 197.037C179.972 197.037 170.831 212.757 170.831 223.091C170.831 226.939 172.399 229.937 174.677 229.937C182.38 229.937 190.802 209.28 191.881 201.604C191.282 198.106 188.754 197.037 186.476 197.037ZM181.77 184.774C180.691 184.774 179.483 184.294 177.804 183.095C186.346 172.771 188.025 165.325 189.114 161.837C191.042 160.768 193.44 160.158 195.967 160.158C199.454 160.158 202.102 161.238 202.102 162.197C202.112 168.563 189.963 184.774 181.77 184.774ZM290.79 209.27C282.128 209.879 271.288 214.077 261.307 220.673V224.641C261.307 243.49 253.115 274.841 234.712 274.841C227.738 274.841 223.992 269.434 223.992 261.739C223.992 246.368 235.311 233.046 248.669 223.201C248.549 219.354 248.429 215.756 247.939 213.347C244.333 220.793 238.438 225.11 232.294 225.11C225.68 225.11 222.073 220.543 222.073 212.258C222.073 199.055 235.431 185.973 248.779 185.973C253.105 185.973 256.601 187.522 256.601 189.091C256.601 189.571 253.834 191.37 250.827 192.569C249.988 191.61 248.899 191.13 247.82 191.13C238.548 191.13 233.143 205.782 233.143 213.347C233.143 217.065 234.352 219.354 236.39 219.354C241.685 219.354 246.98 209.26 245.901 201.944C250.467 198.936 252.745 197.856 254.084 197.856C257.69 197.856 260.218 204.103 260.937 215.386C271.777 209.509 282.238 206.141 287.773 206.141C290.19 206.151 291.399 207.111 290.79 209.27ZM231.115 263.668C231.115 267.875 232.434 271.473 234.841 271.473C242.784 271.473 247.23 243.37 248.439 230.637C238.328 240.141 231.115 251.905 231.115 263.668ZM284.046 201.104C285.615 200.864 287.063 200.625 288.622 200.625C293.677 200.625 296.075 203.033 296.075 208.19C296.075 219.224 295.476 228.478 295.356 242.89C293.308 244.089 291.869 244.569 290.18 244.569C285.005 244.569 283.686 241.571 283.686 229.808C283.686 223.791 284.166 216.475 284.166 207.59C284.166 206.641 284.166 203.873 284.046 201.104ZM328.815 240.491C313.169 240.491 305.596 228.968 305.596 217.195C305.596 204.942 314.618 192.459 330.503 192.459C338.086 192.459 345.549 197.137 345.549 201.334C345.549 202.903 343.991 204.103 340.024 205.901C336.897 200.854 334.13 198.576 330.873 198.576C323.17 198.576 319.214 207.58 319.214 216.585C319.214 225.59 323.18 234.475 331.123 234.475C343.281 234.475 361.934 216.465 368.788 205.062C369.997 205.292 370.706 206.251 370.706 207.461C370.686 212.757 349.026 240.491 328.815 240.491ZM405.454 232.696C399.919 232.696 397.631 228.968 397.032 223.211C393.425 231.497 384.044 239.182 376.331 239.182C368.148 239.182 362.134 232.696 362.134 223.691C362.134 206.991 375.132 192.579 390.288 192.579C397.272 192.579 404.975 197.746 406.653 203.273C405.334 209.04 404.725 213.837 404.725 217.445C404.725 223.081 406.533 226.449 409.9 226.449C414.955 226.449 431.4 214.656 437.654 205.292C438.254 204.462 441.031 203.853 440.552 205.422C439.473 209.14 417.853 232.696 405.454 232.696ZM390.788 197.037C384.284 197.037 375.142 212.757 375.142 223.091C375.142 226.939 376.701 229.937 378.988 229.937C386.681 229.937 395.114 209.28 396.203 201.604C395.593 198.106 393.066 197.037 390.788 197.037Z" fill="white"/>
<path d="M290.39 187.522C291.11 186.863 292.458 186.503 293.387 186.703L303.538 188.981C304.497 189.201 304.927 188.642 304.507 187.762L300.171 178.328C299.752 177.468 299.832 176.069 300.321 175.239L305.626 166.275C306.116 165.455 305.736 164.876 304.767 164.985L294.457 166.215C293.487 166.335 292.179 165.825 291.529 165.105L284.686 157.31C284.046 156.57 283.357 156.76 283.167 157.7L281.159 167.904C280.979 168.843 280.09 169.943 279.201 170.322L269.649 174.44C268.76 174.81 268.74 175.519 269.589 175.999L278.641 181.086C279.47 181.556 280.24 182.715 280.359 183.695L281.309 194.049C281.399 195.028 282.048 195.258 282.777 194.598L290.39 187.522Z" fill="#FCD100"/>
<path fill-rule="evenodd" clip-rule="evenodd" d="M393.985 38.8091C394.314 40.3981 395.573 41.4276 397.182 41.4276C398.261 41.4276 399.3 40.9478 399.959 40.1383C400.579 39.3687 400.808 38.3793 400.599 37.3599C398.88 29.0139 398.09 20.3813 397.325 12.0221L397.312 11.8748C397.248 11.1925 397.185 10.509 397.122 9.8251L397.119 9.78489C396.996 8.44884 396.873 7.11146 396.742 5.77838C396.582 4.11934 395.373 3 393.735 3C392.706 3 391.667 3.46971 390.967 4.23927C390.298 4.96884 389.978 5.93829 390.078 6.94769C390.278 8.97651 390.468 11.0153 390.648 13.0441C391.417 21.5192 392.216 30.2741 393.985 38.8091ZM419.981 40.4182C420.6 41.5375 421.829 42.2571 423.108 42.2571C424.247 42.2571 425.256 41.6774 425.885 40.678C429.942 34.1918 434.897 28.4551 441.041 23.1482C442.12 22.2288 442.47 20.9096 442 19.6303C441.481 18.2411 440.122 17.2817 438.683 17.2817C437.884 17.2817 437.125 17.5815 436.485 18.1312C429.991 23.7379 424.487 30.1242 420.111 37.1201C419.451 38.1695 419.401 39.3788 419.981 40.4182ZM438.114 67.8621C438.374 69.5112 439.633 70.6605 441.171 70.6605C441.521 70.6605 441.881 70.6005 442.26 70.4706C451.851 67.2925 462.102 65.4236 472.712 64.9139C474.9 64.8039 476.039 62.965 475.999 61.286C475.959 59.457 474.63 58.1278 472.842 58.1278L472.652 58.1378C461.263 58.6875 450.433 60.6464 440.452 63.9444C438.793 64.4941 437.834 66.1032 438.114 67.8621Z" fill="#FCD000"/>
</svg>
