<svg width="480" height="400" viewBox="0 0 480 400" fill="none" xmlns="http://www.w3.org/2000/svg">
<mask id="mask0_113_7" style="mask-type:alpha" maskUnits="userSpaceOnUse" x="0" y="0" width="480" height="400">
<path fill-rule="evenodd" clip-rule="evenodd" d="M427.399 142.07C430.381 132.031 431.983 121.392 431.983 110.377C431.983 49.4173 382.925 0 322.409 0C286.263 0 254.205 17.6304 234.246 44.8201C221.666 38.5211 207.484 34.9791 192.482 34.9791C159.53 34.9791 130.541 52.0661 113.769 77.9239C107.382 76.5429 100.753 75.8159 93.9564 75.8159C42.0657 75.8159 0 118.19 0 170.46C0 211.032 25.3427 245.641 60.9518 259.101C58.1832 265.879 56.6563 273.304 56.6563 281.088C56.6563 313.023 82.3569 338.912 114.06 338.912C117.828 338.912 121.512 338.546 125.078 337.848C148.008 375.151 189.005 400 235.763 400C285.848 400 329.322 371.49 351.064 329.702C359.859 332.213 369.14 333.556 378.733 333.556C434.661 333.556 480 287.886 480 231.548C480 192.978 458.75 159.408 427.399 142.07Z" fill="#C4C4C4"/>
</mask>
<g mask="url(#mask0_113_7)">
<path d="M165.409 -165.523L642.991 112.298L380.89 569.707L-96.698 291.892L165.409 -165.523Z" fill="url(#paint0_linear_113_7)"/>
</g>
<g clip-path="url(#clip0_113_7)">
<g filter="url(#filter0_d_113_7)">
<path fill-rule="evenodd" clip-rule="evenodd" d="M112.824 130.755C124.45 130.755 132.313 134.028 137.741 141.763C139.83 141.008 140.67 140.078 140.67 138.728C140.587 132.266 126.289 125.789 111.491 125.789C91.7662 125.789 75.9623 136.042 76.2192 148.561C76.3788 158.234 85.242 164.955 94.6882 168.738C84.9991 172.095 78.808 178.565 78.8913 186.216C79.0579 195.371 90.2601 202.938 106.14 202.938C123.617 202.938 133.139 192.517 133.646 190.748C133.986 189.573 132.98 186.971 131.807 186.971C125.956 192.259 117.426 196.798 107.73 196.798C96.7773 196.798 87.9141 192.014 87.8308 184.027C87.7545 178.313 92.4325 172.858 100.206 171.34C102.878 172.515 108.313 173.529 113.581 173.529C117.676 173.529 120.771 172.438 120.771 169.578C120.771 166.388 115.996 165.381 110.652 165.381C106.473 165.381 103.961 165.71 101.039 166.724C92.2659 160.423 88.7539 154.205 88.5804 148.568C88.3306 137.812 97.9503 130.755 112.824 130.755ZM160.472 179.495C160.472 176.467 159.215 174.194 157.466 172.27C162.443 169.726 167.647 167.693 171.388 166.898C171.253 168.661 171.174 170.424 171.174 172.179C171.174 183.943 176.692 190.664 185.548 190.664C193.53 190.664 199.74 184.766 203.841 178.698C204.652 183.9 208.514 187.468 213.554 187.468C218.898 187.468 225.422 182.09 227.928 176.292C228.344 180.327 229.933 182.936 233.779 182.936C239.517 182.936 245.883 175.927 249.718 170.475C249.638 172.03 249.582 173.681 249.582 175.459C249.582 181.09 250.075 185.377 255.85 185.377C256.926 185.377 257.772 185.209 258.522 184.873C260.951 173.361 270.307 158.737 272.903 158.737C273.902 158.737 274.152 159.996 274.152 161.849C274.152 162.738 273.96 164.427 273.727 166.482C273.365 169.67 272.903 173.737 272.903 177.054C272.903 186.727 275.159 190.587 280.76 190.587C290.706 190.587 301.544 179.927 306.671 172.533C306.78 184.077 312.269 190.664 321.043 190.664C330.811 190.664 337.923 181.84 341.767 174.673C343.586 183.179 351.267 188.986 360.667 188.986C375.048 188.986 387.09 168.647 387.09 165.032C387.09 163.689 386.5 163.185 384.661 163.689C380.233 171.928 370.703 183.859 361.674 183.859C357.745 183.859 354.733 181.677 352.894 177.809C360.001 173.27 364.013 167.724 364.013 161.842C364.013 155.793 360.917 152.345 355.573 152.345C348.437 152.345 342.655 158.92 341.549 167.681C335.841 179.224 329.476 186.545 322.973 186.545C318.454 186.545 315.532 182.097 315.532 175.711C315.532 169.51 316.717 162.201 317.784 155.622L317.878 155.037C327.567 154.87 329.33 154.282 329.83 152.855L330.33 151.345H318.545L318.617 150.909C319.336 146.553 319.96 142.776 319.96 140.42C319.96 134.706 318.288 133.441 311.43 133.28C311.276 138.433 310.324 143.948 309.321 149.759C309.245 150.202 309.168 150.647 309.091 151.093C305.829 150.834 302.991 150.589 300.728 150.086C300.478 151.009 300.312 151.848 300.312 152.52C300.312 154.114 301.144 154.954 302.817 154.954H302.817C304.656 154.954 306.496 154.954 308.418 155.037C307.818 158.726 307.254 162.486 306.936 166.248C301.033 177.421 288.645 185.118 285.695 185.118C283.522 185.118 282.432 182.684 282.432 178.054C282.432 176.219 282.528 173.854 282.616 171.65C282.693 169.729 282.766 167.932 282.766 166.717C282.766 160.164 281.766 155.289 275.749 155.289C268.891 155.289 262.79 165.29 258.695 172.935C258.465 169.41 258.737 164.465 258.937 160.826C259.033 159.086 259.112 157.644 259.112 156.8C259.112 153.695 257.613 152.009 254.934 152.009C253.178 152.009 251.165 152.772 249.582 154.03C249.992 155.961 250.249 158.059 250.249 160.332C250.249 162.203 250.127 164.119 249.987 166.181C245.723 172.262 240.079 178.558 236.874 178.558C234.535 178.558 233.279 176.201 233.279 172.256C233.279 169.725 233.702 166.368 234.618 162.339C233.445 158.471 228.094 154.863 223.25 154.863C214.534 154.863 206.849 161.764 204.454 170.76C199.165 180.51 193.375 186.545 187.471 186.545C182.952 186.545 180.03 182.097 180.03 175.711C180.03 169.51 181.215 162.201 182.281 155.622C182.313 155.426 182.345 155.232 182.376 155.037C192.072 154.87 193.828 154.282 194.321 152.855L194.828 151.345H183.043L183.114 150.91C183.834 146.554 184.458 142.776 184.458 140.42C184.458 134.706 182.793 133.441 175.935 133.28C175.778 138.508 174.807 144.109 173.783 150.013C173.721 150.372 173.659 150.732 173.596 151.093C170.334 150.834 167.495 150.589 165.233 150.086C164.976 151.009 164.816 151.848 164.816 152.52C164.816 154.114 165.649 154.954 167.322 154.954H167.322C169.168 154.954 171.001 154.954 172.923 155.037C172.423 158.111 171.948 161.235 171.619 164.368C171.609 164.367 171.6 164.367 171.59 164.367C168.988 164.367 162.137 166.808 155.363 170.249C154.825 169.808 154.285 169.381 153.756 168.962C152.975 168.344 152.217 167.744 151.518 167.144C148.756 164.703 147.257 161.43 148.679 159.919C153.691 160.171 156.293 158.905 156.536 156.052C154.864 154.541 150.435 154.289 146.174 155.548C142.079 156.891 139.566 160.087 139.566 163.955C139.566 168.427 142.615 171.163 145.479 173.733C146.001 174.201 146.517 174.664 147.007 175.131C141.996 178.572 138.317 182.271 138.317 185.635C138.317 189.16 141.655 190.755 145.841 190.755C152.275 190.755 160.472 186.803 160.472 179.495ZM142.579 185.209C142.579 183.02 145.174 180.166 148.936 177.474C149.693 178.565 150.192 179.74 150.186 181.09C150.186 184.705 146.764 187.475 144.501 187.475C143.418 187.475 142.579 186.803 142.579 185.209ZM212.714 176.215C212.714 168.983 219.064 157.982 223.583 157.982C225.172 157.982 226.928 158.73 227.352 161.178C226.595 166.556 220.744 181.006 215.393 181.006C213.803 181.006 212.714 178.907 212.714 176.215ZM356.066 156.884C357.995 156.884 359.328 158.821 359.328 161.507C359.328 166.969 355.573 171.333 351.721 174.788C351.055 172.431 350.721 169.822 350.721 166.892C350.721 161.423 353.137 156.884 356.066 156.884ZM173.985 289.557C177.164 289.557 179.919 288.55 181.932 286.535C181.616 285.989 181.289 285.504 180.959 285.014C178.75 281.736 176.407 278.26 176.407 254.937C176.407 251.841 176.547 247.703 176.68 243.778C176.8 240.238 176.914 236.871 176.914 234.599C176.914 227.284 174.068 221.577 170.723 221.577C165.2 221.577 162.13 229.44 151.753 256.023C149.716 261.242 147.398 267.182 144.723 273.926C142.801 270.485 142.551 265.855 142.301 259.644C142.022 254.641 141.97 249.5 141.92 244.531C141.746 227.135 141.592 211.834 131.772 211.834C119.904 211.834 106.272 243.929 102.51 253.678C97.3256 267.379 92.8142 282.836 92.8142 290.144C92.8142 296.194 98.332 297.117 105.446 297.963C105.023 294.851 104.766 290.655 105.023 287.885C106.522 268.38 122.999 219.479 132.272 219.479C133.944 219.479 134.777 220.905 134.777 223.598C134.777 233.759 134.016 243.185 133.396 250.857C132.971 256.123 132.612 260.563 132.612 263.848C132.612 275.436 136.624 283.004 142.384 283.004C144.564 283.004 146.736 281.577 148.242 279.563C150.698 276.508 154.352 266.26 157.944 256.188C162.057 244.652 166.088 233.347 168.141 233.347C169.557 233.347 169.973 235.278 169.973 239.901C169.973 243.225 169.357 248.916 168.697 255C167.941 261.986 167.128 269.489 167.128 274.52C167.128 282.668 168.391 289.557 173.985 289.557ZM207.328 260.323C207.737 264.351 209.327 266.96 213.172 266.96C218.404 266.96 224.161 261.131 228.042 255.971C228.861 259.66 231.186 261.651 234.813 261.651C239.081 261.651 243.176 258.63 245.682 253.42C246.022 255.105 246.105 257.623 246.188 260.316C236.909 267.205 229.045 276.527 229.045 287.284C229.045 292.669 231.648 296.453 236.492 296.453C249.277 296.453 254.968 274.513 254.968 261.323V258.546C260.222 255.049 265.817 252.515 270.838 251.307C270.811 253.966 270.731 256.413 270.658 258.663C270.583 260.952 270.515 263.038 270.515 264.939C270.515 273.17 271.432 275.268 275.027 275.268C276.2 275.268 277.199 274.933 278.622 274.093C278.663 269.123 278.785 265.03 278.898 261.232C279.015 257.323 279.122 253.727 279.122 249.811C279.122 246.202 277.456 244.517 273.944 244.517C272.934 244.517 271.99 244.663 270.983 244.819C270.911 244.83 270.838 244.841 270.765 244.852C270.827 246.278 270.843 247.704 270.847 248.622C266.771 249.324 260.828 251.506 254.712 254.846C254.212 246.95 252.456 242.579 249.95 242.579C249.02 242.579 247.438 243.335 244.266 245.44C245.015 250.559 241.337 257.623 237.658 257.623C236.242 257.623 235.403 256.021 235.403 253.42C235.403 248.125 239.158 237.872 245.598 237.872C246.348 237.872 247.105 238.208 247.688 238.88C249.777 238.04 251.699 236.781 251.699 236.446C251.699 235.348 249.27 234.264 246.265 234.264C237.047 234.264 227.823 243.31 227.713 252.493C223.731 257.77 219.064 262.589 216.267 262.589C213.921 262.589 212.672 260.232 212.672 256.287C212.672 253.762 213.089 250.405 214.012 246.37C212.839 242.502 207.494 238.887 202.643 238.887C192.107 238.887 183.077 248.972 183.077 260.658C183.077 266.96 187.262 271.499 192.947 271.499C198.298 271.499 204.822 266.12 207.328 260.323ZM192.114 260.239C192.114 253.007 198.465 242.006 202.983 242.006C204.565 242.006 206.321 242.754 206.738 245.202C205.988 250.573 200.137 265.029 194.786 265.029C193.204 265.029 192.114 262.931 192.114 260.239ZM196.958 232.249C198.125 233.089 198.964 233.424 199.714 233.424C205.405 233.424 213.845 222.08 213.838 217.625C213.838 216.954 211.999 216.199 209.577 216.199C207.821 216.199 206.155 216.625 204.815 217.373C204.748 217.591 204.677 217.83 204.601 218.09C203.813 220.758 202.365 225.668 196.958 232.249ZM236.583 294.096C234.91 294.096 233.994 291.578 233.994 288.634C233.994 280.402 239.005 272.17 246.029 265.519C245.189 274.429 242.1 294.096 236.583 294.096ZM285.736 256.112C285.736 264.351 290.997 272.415 301.866 272.415C310.461 272.415 319.432 265.144 325.102 258.652C325.043 259.315 325.013 259.984 325.013 260.658C325.013 266.96 329.191 271.499 334.876 271.499C340.234 271.499 346.751 266.12 349.257 260.323C349.673 264.351 351.263 266.96 355.108 266.96C363.721 266.96 378.741 250.475 379.49 247.874C379.823 246.776 377.894 247.202 377.478 247.783C373.133 254.336 361.708 262.589 358.196 262.589C355.857 262.589 354.601 260.232 354.601 256.287C354.601 253.762 355.025 250.405 355.941 246.37C354.775 242.502 349.423 238.887 344.572 238.887C336.931 238.887 330.079 244.199 326.895 251.58C320.986 259.189 310.614 268.205 303.47 268.205C297.952 268.205 295.196 261.987 295.196 255.686C295.196 249.384 297.945 243.083 303.296 243.083C305.559 243.083 307.481 244.677 309.654 248.209C312.409 246.95 313.492 246.111 313.492 245.013C313.492 242.076 308.307 238.803 303.039 238.803C292.004 238.803 285.736 247.538 285.736 256.112ZM334.05 260.239C334.05 253.007 340.401 242.006 344.919 242.006C346.501 242.006 348.257 242.754 348.681 245.202C347.924 250.573 342.066 265.029 336.722 265.029C335.133 265.029 334.05 262.931 334.05 260.239Z" fill="white"/>
</g>
<path fill-rule="evenodd" clip-rule="evenodd" d="M347.14 131.279C347.369 132.391 348.244 133.112 349.361 133.112C350.111 133.112 350.832 132.776 351.29 132.21C351.721 131.671 351.88 130.979 351.735 130.265C350.541 124.425 349.992 118.384 349.461 112.534L349.451 112.431C349.407 111.954 349.363 111.475 349.32 110.997L349.317 110.969C349.232 110.034 349.147 109.098 349.056 108.165C348.945 107.004 348.105 106.221 346.966 106.221C346.252 106.221 345.53 106.549 345.044 107.088C344.579 107.598 344.357 108.277 344.426 108.983C344.565 110.403 344.697 111.83 344.822 113.249C345.356 119.18 345.911 125.307 347.14 131.279ZM365.2 132.405C365.63 133.189 366.484 133.692 367.372 133.692C368.163 133.692 368.864 133.287 369.301 132.587C372.119 128.048 375.562 124.034 379.83 120.32C380.58 119.677 380.823 118.754 380.497 117.858C380.136 116.886 379.192 116.215 378.192 116.215C377.637 116.215 377.11 116.425 376.665 116.809C372.154 120.733 368.33 125.202 365.29 130.098C364.832 130.832 364.797 131.678 365.2 132.405ZM377.797 151.611C377.977 152.765 378.852 153.569 379.921 153.569C380.164 153.569 380.413 153.527 380.677 153.436C387.34 151.212 394.461 149.904 401.832 149.547C403.352 149.47 404.143 148.184 404.116 147.009C404.088 145.729 403.165 144.799 401.922 144.799L401.791 144.806C393.878 145.19 386.355 146.561 379.421 148.869C378.269 149.254 377.602 150.38 377.797 151.611Z" fill="#FCD000"/>
<g filter="url(#filter1_d_113_7)">
<path fill-rule="evenodd" clip-rule="evenodd" d="M277.255 234.774C276.609 234.634 275.672 234.886 275.173 235.348L269.884 240.299C269.377 240.761 268.926 240.6 268.863 239.915L268.204 232.669C268.121 231.984 267.586 231.172 267.01 230.844L260.722 227.284C260.132 226.948 260.146 226.452 260.764 226.193L267.399 223.311C268.017 223.046 268.634 222.276 268.759 221.619L270.154 214.478C270.286 213.821 270.765 213.688 271.209 214.205L275.964 219.661C276.415 220.164 277.324 220.521 277.997 220.437L285.16 219.577C285.833 219.5 286.097 219.905 285.757 220.479L282.072 226.752C281.731 227.333 281.676 228.312 281.967 228.913L284.98 235.516C285.271 236.131 284.973 236.523 284.306 236.369L277.255 234.774Z" fill="#FCD100"/>
</g>
</g>
<defs>
<filter id="filter0_d_113_7" x="49.2161" y="108.789" width="364.874" height="226.174" filterUnits="userSpaceOnUse" color-interpolation-filters="sRGB">
<feFlood flood-opacity="0" result="BackgroundImageFix"/>
<feColorMatrix in="SourceAlpha" type="matrix" values="0 0 0 0 0 0 0 0 0 0 0 0 0 0 0 0 0 0 127 0" result="hardAlpha"/>
<feOffset dy="10"/>
<feGaussianBlur stdDeviation="13.5"/>
<feColorMatrix type="matrix" values="0 0 0 0 0 0 0 0 0 0 0 0 0 0 0 0 0 0 0.15 0"/>
<feBlend mode="normal" in2="BackgroundImageFix" result="effect1_dropShadow_113_7"/>
<feBlend mode="normal" in="SourceGraphic" in2="effect1_dropShadow_113_7" result="shape"/>
</filter>
<filter id="filter1_d_113_7" x="233.29" y="196.888" width="79.6155" height="80.6732" filterUnits="userSpaceOnUse" color-interpolation-filters="sRGB">
<feFlood flood-opacity="0" result="BackgroundImageFix"/>
<feColorMatrix in="SourceAlpha" type="matrix" values="0 0 0 0 0 0 0 0 0 0 0 0 0 0 0 0 0 0 127 0" result="hardAlpha"/>
<feOffset dy="10"/>
<feGaussianBlur stdDeviation="13.5"/>
<feColorMatrix type="matrix" values="0 0 0 0 0 0 0 0 0 0 0 0 0 0 0 0 0 0 0.15 0"/>
<feBlend mode="normal" in2="BackgroundImageFix" result="effect1_dropShadow_113_7"/>
<feBlend mode="normal" in="SourceGraphic" in2="effect1_dropShadow_113_7" result="shape"/>
</filter>
<linearGradient id="paint0_linear_113_7" x1="90.4406" y1="95.829" x2="458.875" y2="306.949" gradientUnits="userSpaceOnUse">
<stop stop-color="#2BA8E1"/>
<stop offset="0.242" stop-color="#29A6DF"/>
<stop offset="0.4449" stop-color="#24A0D9"/>
<stop offset="0.6336" stop-color="#1B94D0"/>
<stop offset="0.8138" stop-color="#1285C3"/>
<stop offset="0.9864" stop-color="#0E71B2"/>
<stop offset="1" stop-color="#0E6FB1"/>
</linearGradient>
<clipPath id="clip0_113_7">
<rect width="333.458" height="335.9" fill="white" transform="translate(73.4373 34.1422)"/>
</clipPath>
</defs>
</svg>
