<svg width="360" height="200" viewBox="0 0 360 200" fill="none" xmlns="http://www.w3.org/2000/svg">
<path d="M73.3487 193.869C80.3684 188.967 81.962 179.877 81.6821 171.68C81.6369 170.326 81.7859 168.872 81.1358 167.676C80.4858 166.48 78.9735 165.659 77.7501 166.232C76.7344 166.71 76.292 167.893 75.7232 168.868C74.9643 170.168 73.8552 171.228 72.5226 171.928C71.6513 172.38 70.5724 172.655 69.7147 172.181C68.5365 171.531 68.3965 169.902 68.4056 168.543C68.4236 166.009 68.4402 163.477 68.4552 160.946C68.5371 159.588 68.3984 158.225 68.0444 156.911C67.6201 155.625 66.6902 154.424 65.3946 154.063C64.099 153.702 62.5054 154.447 62.2346 155.778C62.1841 156.339 62.172 156.903 62.1984 157.466C62.1578 158.031 61.896 158.658 61.3633 158.82C60.8306 158.983 60.2754 158.595 59.8691 158.198C58.4651 156.843 57.5171 155.061 56.6278 153.305C55.7385 151.549 54.8718 149.748 53.5987 148.249C52.3257 146.751 50.5697 145.568 48.633 145.46C46.6964 145.352 44.6108 146.548 44.1188 148.462C43.6267 150.375 44.7462 152.316 45.9606 153.878C47.7676 156.176 49.8961 158.203 52.2806 159.895C52.7448 160.152 53.1149 160.55 53.3369 161.032C53.6303 161.935 52.7726 162.838 51.8788 163.136C50.8676 163.47 49.7661 163.366 48.7188 163.492C47.6715 163.619 46.5113 164.083 46.1096 165.085C45.5543 166.471 46.7145 167.929 47.8566 168.881C50.1415 170.789 52.7374 172.29 55.5309 173.318C56.533 173.684 57.5848 174.005 58.3884 174.709C59.1919 175.413 59.684 176.632 59.1964 177.588C58.7089 178.545 57.4585 178.852 56.4111 178.658C55.3638 178.464 54.4158 177.886 53.4091 177.503C51.5402 176.794 49.1296 176.925 47.9333 178.536C47.5688 179.092 47.3383 179.725 47.2599 180.386C47.1816 181.046 47.2576 181.715 47.4819 182.341C47.9369 183.587 48.6369 184.729 49.5404 185.7C52.5003 189.252 56.3494 191.956 60.6952 193.535C65.0244 195.038 69.0376 195.445 73.3352 193.869" fill="#F5F5F5"/>
<path d="M73.4565 199.937C73.0761 196.144 72.3323 192.395 71.2355 188.744C69.8751 184.292 68.2609 179.921 66.4007 175.654L64.9606 172.282C64.4821 171.181 64.0126 170.084 63.4844 169.041C62.4669 167.039 61.3381 165.095 60.1033 163.219C58.9386 161.413 57.7694 159.752 56.6634 158.204C55.5574 156.656 54.492 155.234 53.4718 153.979C51.8686 151.988 50.1084 150.128 48.2081 148.418C47.54 147.813 47.0028 147.357 46.6372 147.064L46.2173 146.726C46.1728 146.683 46.1227 146.646 46.0684 146.617L46.2038 146.744C46.3031 146.834 46.434 146.956 46.6056 147.105C46.9622 147.421 47.4858 147.886 48.1449 148.499C50.0116 150.236 51.7469 152.108 53.3363 154.101C54.3475 155.36 55.3949 156.787 56.4963 158.335C57.5978 159.883 58.7535 161.558 59.9137 163.354C61.135 165.226 62.2532 167.164 63.2632 169.159C63.7869 170.197 64.2564 171.285 64.7304 172.395L66.175 175.762C68.0294 180.032 69.645 184.402 71.0143 188.852C72.1138 192.489 72.8695 196.222 73.2714 200.001" fill="#E0E0E0"/>
<path d="M63.4122 169.012C63.4741 168.822 63.5179 168.627 63.5431 168.43C63.6153 168.055 63.7011 167.527 63.7959 166.832C63.99 165.478 64.1887 163.6 64.4053 161.533C64.622 159.465 64.8568 157.592 65.0599 156.247C65.1637 155.575 65.254 155.028 65.3172 154.654C65.3667 154.461 65.3925 154.262 65.394 154.062C65.3154 154.245 65.2578 154.436 65.2224 154.631C65.1276 155.001 65.0103 155.534 64.8839 156.216C64.6265 157.57 64.3692 159.434 64.1571 161.506C63.9449 163.577 63.7643 165.396 63.6199 166.809C63.5521 167.446 63.4935 167.983 63.4483 168.416C63.4132 168.613 63.4011 168.813 63.4122 169.012V169.012Z" fill="#E0E0E0"/>
<path d="M45.9434 165.746C46.1731 165.799 46.4075 165.827 46.6431 165.832C47.0945 165.873 47.74 165.927 48.5391 166.017C50.1371 166.189 52.3401 166.505 54.7507 166.96C57.1613 167.416 59.3327 167.931 60.8901 168.342C61.6711 168.545 62.2986 168.721 62.732 168.843C62.9537 168.92 63.1818 168.977 63.4136 169.014C63.2051 168.905 62.9857 168.817 62.759 168.752C62.3347 168.599 61.7117 168.396 60.9533 168.17C59.4049 167.719 57.2381 167.173 54.8184 166.712C52.7522 166.315 50.6668 166.024 48.5707 165.841C47.7671 165.769 47.1171 165.742 46.6656 165.733C46.425 165.716 46.1832 165.72 45.9434 165.746V165.746Z" fill="#E0E0E0"/>
<path d="M71.0156 188.416C71.0156 188.416 71.0653 188.348 71.1375 188.204L71.4355 187.572C71.6928 187.021 72.0449 186.218 72.4647 185.216C73.3089 183.216 74.3833 180.418 75.5299 177.308C76.6765 174.198 77.7284 171.395 78.5274 169.382C78.9201 168.402 79.2406 167.576 79.4844 166.994L79.7372 166.344C79.772 166.269 79.7978 166.19 79.814 166.109C79.7646 166.176 79.7237 166.249 79.6921 166.326C79.6108 166.493 79.5115 166.705 79.3941 166.958C79.1368 167.504 78.7847 168.312 78.3649 169.31C77.5207 171.314 76.4463 174.112 75.2997 177.222C74.153 180.332 73.1012 183.135 72.3022 185.148L71.3452 187.536L71.0924 188.186C71.0587 188.26 71.033 188.337 71.0156 188.416V188.416Z" fill="#E0E0E0"/>
<path d="M47.8066 180.938C47.8789 180.979 47.9563 181.011 48.0369 181.032L48.714 181.258L51.1969 182.066C53.296 182.747 56.1851 183.718 59.3767 184.797C62.5683 185.875 65.4665 186.828 67.5792 187.464C68.6355 187.785 69.4932 188.033 70.0891 188.191L70.7753 188.372C70.8536 188.4 70.9359 188.415 71.0191 188.417C70.9462 188.376 70.8689 188.345 70.7888 188.322L70.1162 188.096L67.6288 187.293C65.5297 186.611 62.6631 185.641 59.4535 184.557C56.2438 183.474 53.3637 182.531 51.251 181.894C50.1947 181.574 49.337 181.326 48.7411 181.163L48.0504 180.983C47.9714 180.957 47.8895 180.942 47.8066 180.938Z" fill="#E0E0E0"/>
<path d="M86.4505 193.551C81.876 190.357 80.8376 184.433 81.0199 179.091C81.0494 178.209 80.9523 177.262 81.3759 176.482C81.7995 175.703 82.785 175.167 83.5823 175.541C84.2442 175.853 84.5325 176.623 84.9031 177.259C85.3977 178.106 86.1204 178.797 86.9889 179.253C87.5567 179.547 88.2597 179.727 88.8187 179.418C89.5865 178.994 89.6777 177.932 89.6718 177.047C89.6601 175.396 89.6493 173.746 89.6395 172.096C89.5861 171.211 89.6765 170.323 89.9072 169.467C90.1837 168.629 90.7897 167.846 91.634 167.611C92.4783 167.375 93.5168 167.861 93.6933 168.729C93.7262 169.094 93.734 169.462 93.7168 169.829C93.7433 170.196 93.9139 170.605 94.2611 170.711C94.6082 170.817 94.97 170.564 95.2348 170.305C96.1497 169.423 96.7675 168.261 97.347 167.117C97.9266 165.972 98.4914 164.799 99.321 163.822C100.151 162.846 101.295 162.075 102.557 162.004C103.819 161.934 105.178 162.713 105.499 163.96C105.819 165.208 105.09 166.472 104.299 167.49C103.121 168.988 101.734 170.309 100.18 171.411C99.8774 171.579 99.6363 171.838 99.4916 172.152C99.3004 172.741 99.8593 173.329 100.442 173.523C101.101 173.741 101.819 173.673 102.501 173.755C103.184 173.838 103.94 174.141 104.201 174.794C104.563 175.697 103.807 176.647 103.063 177.268C101.574 178.511 99.8823 179.489 98.0619 180.159C97.4088 180.397 96.7233 180.606 96.1997 181.065C95.6761 181.524 95.3554 182.318 95.6731 182.942C95.9908 183.565 96.8057 183.765 97.4882 183.639C98.1707 183.512 98.7885 183.136 99.4445 182.886C100.662 182.424 102.233 182.509 103.013 183.559C103.251 183.922 103.401 184.334 103.452 184.764C103.503 185.195 103.453 185.631 103.307 186.039C103.011 186.851 102.554 187.595 101.966 188.227C100.037 190.542 97.5285 192.304 94.6964 193.334C91.8752 194.313 89.26 194.578 86.4594 193.551" fill="#F5F5F5"/>
<path d="M86.3805 197.505C86.6284 195.033 87.1131 192.59 87.8279 190.21C88.7144 187.309 89.7663 184.461 90.9786 181.68L91.917 179.483C92.2289 178.765 92.5348 178.05 92.879 177.371C93.5421 176.066 94.2777 174.799 95.0824 173.576C95.8414 172.4 96.6033 171.317 97.3241 170.308C98.0448 169.3 98.7391 168.373 99.4039 167.555C100.449 166.258 101.596 165.046 102.834 163.931C103.269 163.537 103.62 163.24 103.858 163.049L104.131 162.828C104.16 162.801 104.193 162.777 104.229 162.758L104.14 162.84C104.076 162.899 103.99 162.978 103.878 163.075C103.646 163.281 103.305 163.584 102.875 163.984C101.659 165.116 100.528 166.336 99.4922 167.635C98.8332 168.455 98.1507 169.385 97.4329 170.394C96.7151 171.403 95.962 172.494 95.206 173.665C94.4101 174.885 93.6814 176.148 93.0231 177.447C92.6819 178.124 92.3759 178.833 92.0671 179.556L91.1257 181.751C89.9172 184.533 88.8644 187.381 87.972 190.281C87.2555 192.651 86.7631 195.084 86.5011 197.546" fill="#E0E0E0"/>
<path d="M92.9251 177.351C92.8848 177.228 92.8562 177.101 92.8398 176.972C92.7928 176.728 92.7369 176.384 92.6751 175.931C92.5486 175.048 92.4191 173.825 92.2779 172.477C92.1367 171.13 91.9838 169.91 91.8514 169.033C91.7837 168.595 91.7249 168.239 91.6837 167.995C91.6515 167.869 91.6347 167.739 91.6337 167.609C91.6849 167.728 91.7224 167.853 91.7455 167.98C91.8072 168.221 91.8837 168.568 91.9661 169.012C92.1338 169.895 92.3015 171.11 92.4397 172.46C92.578 173.81 92.6957 174.995 92.7898 175.916C92.8339 176.331 92.8722 176.681 92.9016 176.963C92.9245 177.091 92.9324 177.222 92.9251 177.351V177.351Z" fill="#E0E0E0"/>
<path d="M104.311 175.222C104.161 175.256 104.008 175.275 103.855 175.278C103.56 175.305 103.14 175.34 102.619 175.399C101.578 175.511 100.142 175.717 98.5711 176.014C97.0001 176.311 95.5851 176.646 94.5702 176.914C94.0613 177.046 93.6524 177.161 93.3699 177.24C93.2255 177.291 93.0768 177.328 92.9257 177.352C93.0616 177.281 93.2046 177.223 93.3523 177.181C93.6288 177.081 94.0348 176.949 94.529 176.802C95.5381 176.508 96.9501 176.152 98.5269 175.852C99.8735 175.593 101.232 175.403 102.598 175.284C103.122 175.237 103.546 175.219 103.84 175.214C103.997 175.203 104.154 175.205 104.311 175.222V175.222Z" fill="#E0E0E0"/>
<path d="M87.9707 189.998C87.9707 189.998 87.9383 189.953 87.8913 189.859L87.6971 189.447C87.5294 189.089 87.3 188.565 87.0264 187.912C86.4763 186.609 85.7761 184.785 85.0289 182.759C84.2817 180.732 83.5962 178.905 83.0755 177.593C82.8196 176.955 82.6107 176.417 82.4519 176.037L82.2871 175.614C82.2644 175.565 82.2476 175.514 82.2371 175.461C82.2692 175.505 82.2959 175.552 82.3165 175.602C82.3695 175.711 82.4342 175.849 82.5107 176.014C82.6784 176.37 82.9078 176.896 83.1814 177.546C83.7315 178.852 84.4317 180.676 85.1789 182.703C85.9261 184.729 86.6116 186.556 87.1323 187.868L87.7559 189.424L87.9207 189.848C87.9426 189.896 87.9594 189.946 87.9707 189.998V189.998Z" fill="#E0E0E0"/>
<path d="M103.096 185.125C103.049 185.152 102.998 185.173 102.946 185.187L102.504 185.334L100.886 185.86C99.5185 186.305 97.6357 186.937 95.5558 187.64C93.476 188.343 91.5873 188.964 90.2106 189.378C89.5222 189.587 88.9632 189.749 88.5749 189.852L88.1277 189.97C88.0767 189.988 88.0231 189.998 87.9689 189.999C88.0164 189.973 88.0667 189.952 88.1189 189.937L88.5573 189.79L90.1782 189.267C91.5461 188.822 93.4142 188.19 95.5058 187.484C97.5975 186.778 99.4743 186.163 100.851 185.749C101.539 185.54 102.098 185.378 102.487 185.272L102.937 185.154C102.988 185.138 103.042 185.128 103.096 185.125Z" fill="#E0E0E0"/>
<path d="M315.168 141.218V123.16H319.99V141.339L315.168 141.218Z" fill="#EBEBEB"/>
<path d="M320.078 141.218V123.16H324.895V141.339L320.078 141.218Z" fill="#E0E0E0"/>
<path d="M328.227 141.344V128.398H331.68V141.432L328.227 141.344Z" fill="#EBEBEB"/>
<path d="M331.748 141.344V128.398H335.201V141.432L331.748 141.344Z" fill="#E0E0E0"/>
<path d="M336.749 141.289H259V177.143H336.749V141.289Z" fill="#F5F5F5"/>
<path d="M334.901 175.451H260.779V143.176H334.901V175.451ZM261.263 174.968H334.417V143.659H261.263V174.968Z" fill="#E0E0E0"/>
<path d="M355.747 141.289H336.754V177.143H355.747V141.289Z" fill="#E0E0E0"/>
<path d="M261.023 153.163H334.66C334.686 153.163 334.711 153.152 334.729 153.134C334.747 153.116 334.757 153.091 334.757 153.066C334.757 153.04 334.747 153.015 334.729 152.997C334.711 152.979 334.686 152.969 334.66 152.969H261.023C260.997 152.969 260.972 152.979 260.954 152.997C260.936 153.015 260.926 153.04 260.926 153.066C260.926 153.091 260.936 153.116 260.954 153.134C260.972 153.152 260.997 153.163 261.023 153.163Z" fill="#E0E0E0"/>
<path d="M298.08 153.065C298.286 149.822 298.296 146.57 298.109 143.326C298.104 143.303 298.092 143.283 298.074 143.268C298.056 143.254 298.033 143.246 298.01 143.246C297.987 143.246 297.964 143.254 297.946 143.268C297.928 143.283 297.916 143.303 297.911 143.326C297.72 146.57 297.728 149.822 297.935 153.065C297.935 153.085 297.942 153.103 297.956 153.117C297.97 153.13 297.988 153.138 298.008 153.138C298.027 153.138 298.045 153.13 298.059 153.117C298.073 153.103 298.08 153.085 298.08 153.065V153.065Z" fill="#E0E0E0"/>
<path d="M317.901 148.196C317.901 148.394 317.842 148.588 317.732 148.753C317.622 148.917 317.466 149.045 317.283 149.121C317.1 149.197 316.899 149.217 316.704 149.178C316.51 149.14 316.332 149.044 316.192 148.904C316.052 148.764 315.956 148.586 315.918 148.392C315.879 148.197 315.899 147.996 315.975 147.813C316.05 147.63 316.179 147.474 316.343 147.364C316.508 147.254 316.702 147.195 316.9 147.195C317.165 147.195 317.42 147.301 317.608 147.489C317.795 147.676 317.901 147.931 317.901 148.196Z" fill="#E0E0E0"/>
<path d="M279.256 148.196C279.256 148.394 279.198 148.588 279.088 148.753C278.978 148.917 278.821 149.045 278.638 149.121C278.455 149.197 278.254 149.217 278.06 149.178C277.866 149.14 277.687 149.044 277.547 148.904C277.407 148.764 277.312 148.586 277.273 148.392C277.235 148.197 277.254 147.996 277.33 147.813C277.406 147.63 277.534 147.474 277.699 147.364C277.864 147.254 278.057 147.195 278.255 147.195C278.521 147.195 278.775 147.301 278.963 147.489C279.151 147.676 279.256 147.931 279.256 148.196Z" fill="#E0E0E0"/>
<path d="M298.844 159.314C298.845 159.513 298.787 159.708 298.677 159.874C298.566 160.04 298.409 160.17 298.225 160.247C298.041 160.324 297.839 160.344 297.643 160.305C297.447 160.267 297.268 160.171 297.127 160.03C296.986 159.889 296.89 159.709 296.851 159.513C296.812 159.318 296.833 159.115 296.91 158.931C296.986 158.747 297.116 158.59 297.282 158.48C297.448 158.37 297.644 158.312 297.843 158.313C298.108 158.313 298.363 158.418 298.551 158.606C298.739 158.793 298.844 159.048 298.844 159.314Z" fill="#E0E0E0"/>
<path d="M268.297 177.145L264.297 199.651H266.546L273.927 177.145H268.297Z" fill="#E0E0E0"/>
<path d="M331.25 177.145L334.602 199.69H332.348L325.625 177.145H331.25Z" fill="#E0E0E0"/>
<path d="M346.282 177.145L350.074 199.69H347.825L340.652 177.145H346.282Z" fill="#E0E0E0"/>
<path d="M298.776 169.462C298.777 169.661 298.718 169.857 298.608 170.023C298.498 170.189 298.341 170.319 298.157 170.395C297.973 170.472 297.77 170.492 297.575 170.454C297.379 170.415 297.199 170.319 297.058 170.178C296.917 170.037 296.821 169.857 296.783 169.662C296.744 169.466 296.764 169.264 296.841 169.08C296.918 168.896 297.048 168.739 297.214 168.628C297.38 168.518 297.575 168.46 297.775 168.461C298.04 168.462 298.294 168.568 298.481 168.756C298.669 168.943 298.774 169.197 298.776 169.462V169.462Z" fill="#E0E0E0"/>
<path d="M261.023 164.268H334.66C334.686 164.268 334.711 164.258 334.729 164.24C334.747 164.221 334.757 164.197 334.757 164.171C334.757 164.145 334.747 164.121 334.729 164.103C334.711 164.084 334.686 164.074 334.66 164.074H261.023C260.997 164.074 260.972 164.084 260.954 164.103C260.936 164.121 260.926 164.145 260.926 164.171C260.926 164.197 260.936 164.221 260.954 164.24C260.972 164.258 260.997 164.268 261.023 164.268Z" fill="#E0E0E0"/>
<path d="M321.461 2.39844H272.535V90.2801H321.461V2.39844Z" fill="#EBEBEB"/>
<path d="M319.001 4.94531H274.49V87.6588H319.001V4.94531Z" fill="#FAFAFA"/>
<path d="M319.006 5.92027L274.49 62.5311V4.94531H319.006V5.92027Z" fill="#F5F5F5"/>
<path d="M319.967 28.7422H274.49V29.6224H319.967V28.7422Z" fill="#EBEBEB"/>
<path d="M319.967 48.4414H274.49V49.3216H319.967V48.4414Z" fill="#EBEBEB"/>
<path d="M319.967 68.1328H274.49V69.013H319.967V68.1328Z" fill="#EBEBEB"/>
<path d="M295.625 29.1773V90.0039H297.873V29.1773H295.625Z" fill="#EBEBEB"/>
<path d="M284.083 4.94531H283.062V29.1794H284.083V4.94531Z" fill="#EBEBEB"/>
<path d="M292.872 4.94531H291.852V29.1794H292.872V4.94531Z" fill="#EBEBEB"/>
<path d="M301.657 4.94531H300.637V29.1794H301.657V4.94531Z" fill="#EBEBEB"/>
<path d="M310.44 4.94531H309.42V29.1794H310.44V4.94531Z" fill="#EBEBEB"/>
<path d="M272.534 0.90625H270.467V90.8191H272.534V0.90625Z" fill="#F5F5F5"/>
<path d="M323.533 91.0719L321.461 90.2775V0.90625H323.533V91.0719Z" fill="#E0E0E0"/>
<path d="M323.532 0H270.467V2.39677H323.532V0Z" fill="#E0E0E0"/>
<path d="M324.932 91.3672H269V93.6015H324.932V91.3672Z" fill="#E0E0E0"/>
<path d="M321.46 90.2773L324.932 91.3652H269L272.535 90.2773H321.46Z" fill="#EBEBEB"/>
<path d="M87.4648 3.88672H38.5391V91.7684H87.4648V3.88672Z" fill="#EBEBEB"/>
<path d="M85.0049 6.42969H40.4941V89.1432H85.0049V6.42969Z" fill="#FAFAFA"/>
<path d="M85.0049 7.40464L40.4941 64.02V6.42969H85.0049V7.40464Z" fill="#F5F5F5"/>
<path d="M85.971 30.2266H40.4941V31.1067H85.971V30.2266Z" fill="#EBEBEB"/>
<path d="M85.971 49.9258H40.4941V50.806H85.971V49.9258Z" fill="#EBEBEB"/>
<path d="M85.971 69.6211H40.4941V70.5013H85.971V69.6211Z" fill="#EBEBEB"/>
<path d="M61.625 30.6656L61.625 91.4922H63.8731V30.6656H61.625Z" fill="#EBEBEB"/>
<path d="M50.0866 6.42969H49.0664V30.6637H50.0866V6.42969Z" fill="#EBEBEB"/>
<path d="M58.8718 6.42969H57.8516V30.6637H58.8718V6.42969Z" fill="#EBEBEB"/>
<path d="M67.6608 6.42969H66.6406V30.6637H67.6608V6.42969Z" fill="#EBEBEB"/>
<path d="M76.446 6.42969H75.4258V30.6637H76.446V6.42969Z" fill="#EBEBEB"/>
<path d="M38.5343 2.39453H36.4668V92.3074H38.5343V2.39453Z" fill="#F5F5F5"/>
<path d="M89.5324 92.5556L87.4648 91.7657V2.39453H89.5324V92.5556Z" fill="#E0E0E0"/>
<path d="M89.5321 1.48828H36.4668V3.88506H89.5321V1.48828Z" fill="#E0E0E0"/>
<path d="M90.9319 92.8555H35V95.0898H90.9319V92.8555Z" fill="#E0E0E0"/>
<path d="M87.465 91.7656L90.9364 92.8534H35L38.5392 91.7656H87.465Z" fill="#EBEBEB"/>
<path d="M160.749 38.6231C162.116 37.3977 162.101 35.5039 161.666 33.8988C163.073 32.8861 163.96 30.6632 162.294 29.4328C164.917 27.7618 162.294 24.111 159.63 25.068C160.607 22.2273 155.401 21.3412 154.272 23.478C153.112 21.1488 149.344 23.0831 149.208 25.2655C148.195 24.587 146.271 24.5313 146.038 26.0149C145.242 24.8503 142.214 25.2351 142.599 26.9769C140.528 26.4706 139.56 29.5593 141.5 30.3746C141.193 30.6127 140.952 30.9244 140.798 31.2808C140.644 31.6371 140.583 32.0266 140.62 32.413C140.657 32.7994 140.79 33.1703 141.009 33.4911C141.228 33.8119 141.524 34.0724 141.87 34.2482C140.953 34.6583 141.814 35.7672 142.614 35.6305C142.994 38.3193 141.662 42.6081 144.741 43.9803" fill="#263238"/>
<path d="M144.418 53.6524L148.014 58.6147L153.078 63.8656L156.192 59.7793C156.238 57.8653 156.334 53.9765 156.38 52.0827C163.064 51.465 161.17 42.7 161.089 35.8186C160.99 33.5656 160.019 31.4394 158.381 29.8883C156.744 28.3372 154.568 27.4824 152.313 27.5043C147.472 27.6005 144.843 31.7678 145.076 36.6187L144.438 52.1334" fill="#FFBE9D"/>
<path d="M156.364 52.0756C154.217 52.0334 152.132 51.3529 150.373 50.1211C150.373 50.1211 151.675 53.5187 156.329 53.2807L156.364 52.0756Z" fill="#EB996E"/>
<path d="M159.696 39.5658C159.696 40.381 158.359 40.4215 158.369 39.5658C158.379 38.7101 159.706 38.7253 159.696 39.5658Z" fill="#263238"/>
<path d="M160.06 37.8077C159.232 37.453 158.303 37.4134 157.447 37.6963C157.711 36.8204 159.908 36.8912 160.06 37.8077Z" fill="#263238"/>
<path d="M152.981 39.105C152.981 39.9202 151.644 39.9607 151.654 39.105C151.664 38.2493 152.991 38.2746 152.981 39.105Z" fill="#263238"/>
<path d="M152.95 37.3324C152.088 37.0708 151.161 37.132 150.342 37.5046C150.494 36.6083 152.697 36.4412 152.95 37.3324Z" fill="#263238"/>
<path d="M155.346 43.3077C155.164 43.2014 156.668 43.3077 156.906 42.9786C156.683 41.7279 155.012 37.353 155.25 37.348C155.331 37.3226 155.938 38.9227 156.612 40.9329C156.779 41.6925 157.25 42.295 157.144 43.0647C156.946 43.5862 155.26 43.2976 155.346 43.3077Z" fill="#263238"/>
<path d="M153.25 34.8C152.172 34.9813 151.08 35.0593 149.988 35.033C150.252 34.076 152.85 33.8886 153.25 34.8Z" fill="#263238"/>
<path d="M160.041 34.6415C159.234 34.6797 158.425 34.6236 157.631 34.4744C157.712 33.5528 160.072 33.7148 160.041 34.6415Z" fill="#263238"/>
<path d="M160.304 27.7676L159.98 27.6156C161.11 24.5775 156.506 23.418 155.271 26.0966C155.004 25.5854 154.572 25.1804 154.044 24.9484C153.517 24.7164 152.926 24.6713 152.369 24.8206C151.184 25.0282 150.622 26.446 149.594 26.846C146.109 23.0534 140.073 29.7423 143.694 32.1526C143.444 32.4841 143.273 32.8683 143.194 33.2758C143.115 33.6834 143.13 34.1036 143.238 34.5044C143.346 34.9053 143.544 35.2763 143.817 35.5891C144.09 35.9019 144.43 36.1484 144.813 36.3097C146.069 40.2542 151.665 36.9326 148.804 33.94C149.183 34.1092 149.597 34.1873 150.012 34.168C150.427 34.1487 150.832 34.0325 151.194 33.8288C151.557 33.6251 151.866 33.3395 152.098 32.9948C152.33 32.6501 152.478 32.2559 152.531 31.8437C153.503 33.302 157.863 33.4337 156.694 31.0032C158.724 32.0716 161.145 29.8942 160.304 27.7676Z" fill="#263238"/>
<path d="M146.965 37.3781C147.067 38.644 147.056 43.186 144.94 41.3176C144.18 39.5706 144.545 37.4946 144.489 35.6211" fill="#263238"/>
<path d="M145.304 40.0717C140.782 38.5071 141.374 45.991 145.304 44.6289C145.314 44.5428 145.304 40.0717 145.304 40.0717Z" fill="#FFBE9D"/>
<path d="M144.342 43.4222C142.97 44.3488 142.717 40.4398 144.059 41.2094C144.195 41.6601 144.216 40.7892 143.714 40.9006C142.251 41.1588 143.112 44.6273 144.342 43.4222Z" fill="#EB996E"/>
<path d="M142.458 183.184L142.68 192.749C142.68 192.749 133.028 196.187 132.896 197.959L151.462 198.197L151.73 183.28L142.458 183.184Z" fill="#9E95C4"/>
<g opacity="0.6">
<path opacity="0.6" d="M148.429 192.017C148.605 192.075 148.754 192.196 148.847 192.356C148.941 192.517 148.972 192.706 148.935 192.888C148.883 193.066 148.765 193.218 148.605 193.312C148.445 193.406 148.255 193.435 148.074 193.394C147.886 193.334 147.726 193.206 147.627 193.035C147.527 192.864 147.496 192.661 147.538 192.468C147.608 192.285 147.747 192.138 147.925 192.056C148.103 191.975 148.306 191.966 148.49 192.032" fill="white"/>
</g>
<g opacity="0.6">
<path opacity="0.6" d="M151.462 198.195L151.432 196.676L133.641 197.01C133.641 197.01 132.811 197.359 132.897 197.942L151.462 198.195Z" fill="white"/>
</g>
<path d="M142.381 192.649C142.381 192.74 142.832 192.786 143.278 193.084C143.723 193.383 143.951 193.763 144.032 193.728C144.113 193.692 143.992 193.171 143.45 192.821C142.908 192.472 142.361 192.563 142.381 192.649Z" fill="#263238"/>
<path d="M140.422 193.431C140.422 193.517 140.792 193.679 141.095 194.064C141.399 194.448 141.48 194.859 141.571 194.859C141.663 194.859 141.723 194.352 141.339 193.846C140.954 193.34 140.427 193.345 140.422 193.431Z" fill="#263238"/>
<path d="M139.287 195.746C139.368 195.746 139.499 195.315 139.287 194.819C139.074 194.323 138.638 194.115 138.603 194.191C138.568 194.267 138.821 194.535 138.998 194.945C139.175 195.356 139.195 195.735 139.287 195.746Z" fill="#263238"/>
<path d="M142.568 190.459C142.609 190.545 143.024 190.424 143.536 190.459C144.047 190.495 144.447 190.667 144.493 190.591C144.538 190.515 144.164 190.185 143.561 190.145C142.958 190.104 142.518 190.393 142.568 190.459Z" fill="#263238"/>
<g opacity="0.3">
<path opacity="0.3" d="M142.504 185.076L142.544 186.782L151.665 186.817L151.706 184.848L142.504 185.076Z" fill="black"/>
</g>
<path d="M142.564 188.535C142.868 188.618 143.188 188.618 143.491 188.535C143.827 188.482 144.156 188.386 144.469 188.252C144.655 188.173 144.834 188.08 145.005 187.973C145.111 187.918 145.207 187.847 145.289 187.761C145.349 187.697 145.386 187.616 145.395 187.529C145.404 187.442 145.385 187.354 145.34 187.28C145.295 187.216 145.235 187.164 145.167 187.127C145.098 187.09 145.022 187.07 144.945 187.067C144.827 187.063 144.709 187.077 144.595 187.108C144.396 187.156 144.201 187.22 144.013 187.3C143.698 187.439 143.406 187.625 143.147 187.852C142.711 188.247 142.559 188.581 142.59 188.601C142.62 188.621 142.848 188.348 143.289 188.024C143.548 187.839 143.829 187.686 144.124 187.568C144.299 187.503 144.479 187.451 144.661 187.411C144.859 187.361 145.026 187.361 145.076 187.452C145.127 187.543 145.076 187.497 145.051 187.553C144.992 187.618 144.922 187.671 144.843 187.71C144.68 187.812 144.51 187.905 144.337 187.989C144.047 188.125 143.745 188.235 143.435 188.318C143.14 188.368 142.849 188.441 142.564 188.535V188.535Z" fill="#263238"/>
<path d="M142.681 188.664C142.857 188.399 142.945 188.086 142.934 187.768C142.971 187.218 142.851 186.668 142.589 186.183C142.543 186.059 142.465 185.95 142.362 185.867C142.26 185.783 142.138 185.728 142.007 185.707C141.924 185.707 141.843 185.731 141.773 185.776C141.703 185.821 141.647 185.885 141.612 185.96C141.564 186.069 141.53 186.183 141.511 186.299C141.478 186.507 141.478 186.719 141.511 186.927C141.555 187.276 141.688 187.607 141.896 187.889C142.25 188.396 142.63 188.492 142.635 188.457C142.64 188.421 142.351 188.234 142.083 187.768C141.924 187.501 141.827 187.201 141.799 186.892C141.783 186.713 141.791 186.532 141.825 186.355C141.855 186.158 141.931 186.001 142.002 186.021C142.073 186.041 142.25 186.173 142.326 186.33C142.415 186.492 142.49 186.661 142.549 186.836C142.648 187.137 142.704 187.451 142.716 187.768C142.731 188.31 142.63 188.649 142.681 188.664Z" fill="#263238"/>
<path d="M175.016 183.251L174.656 192.811C174.656 192.811 184.278 196.391 184.359 198.164L165.814 198.133L165.764 183.211L175.016 183.251Z" fill="#9E95C4"/>
<g opacity="0.6">
<path opacity="0.6" d="M168.918 192.002C168.744 192.06 168.596 192.179 168.503 192.338C168.41 192.496 168.378 192.682 168.411 192.863C168.458 193.044 168.573 193.199 168.731 193.298C168.889 193.397 169.079 193.432 169.262 193.395C169.452 193.336 169.613 193.209 169.714 193.039C169.816 192.869 169.852 192.668 169.814 192.473C169.745 192.291 169.607 192.142 169.431 192.058C169.255 191.974 169.053 191.961 168.867 192.022" fill="white"/>
</g>
<g opacity="0.6">
<path opacity="0.6" d="M165.814 198.136L165.87 196.617L183.651 197.21C183.651 197.21 184.476 197.569 184.38 198.151L165.814 198.136Z" fill="white"/>
</g>
<path d="M174.959 192.722C174.959 192.814 174.498 192.854 174.052 193.143C173.607 193.431 173.369 193.816 173.288 193.781C173.207 193.745 173.338 193.219 173.885 192.879C174.432 192.54 174.974 192.636 174.959 192.722Z" fill="#263238"/>
<path d="M176.904 193.533C176.904 193.619 176.529 193.771 176.22 194.156C175.911 194.541 175.825 194.946 175.714 194.941C175.602 194.936 175.567 194.434 175.957 193.928C176.347 193.422 176.899 193.447 176.904 193.533Z" fill="#263238"/>
<path d="M178.004 195.861C177.922 195.861 177.796 195.431 178.034 194.934C178.272 194.438 178.687 194.241 178.728 194.317C178.768 194.392 178.505 194.656 178.317 195.066C178.13 195.476 178.095 195.856 178.004 195.861Z" fill="#263238"/>
<path d="M174.797 190.536C174.757 190.617 174.341 190.49 173.83 190.536C173.318 190.581 172.918 190.728 172.873 190.652C172.827 190.576 173.207 190.252 173.815 190.221C174.422 190.191 174.843 190.46 174.797 190.536Z" fill="#263238"/>
<g opacity="0.3">
<path opacity="0.3" d="M174.944 185.145L174.878 186.851L165.752 186.75L165.742 184.785L174.944 185.145Z" fill="black"/>
</g>
<path d="M174.832 188.604C174.529 188.687 174.209 188.687 173.906 188.604C173.571 188.545 173.244 188.445 172.933 188.305C172.748 188.223 172.569 188.128 172.397 188.022C172.293 187.964 172.199 187.89 172.118 187.804C172.054 187.737 172.015 187.65 172.007 187.558C172 187.466 172.025 187.373 172.078 187.297C172.123 187.235 172.183 187.184 172.251 187.148C172.319 187.112 172.395 187.092 172.473 187.09C172.591 187.092 172.708 187.109 172.822 187.14C173.02 187.19 173.213 187.256 173.399 187.338C173.714 187.482 174.004 187.673 174.26 187.905C174.686 188.305 174.832 188.644 174.802 188.66C174.772 188.675 174.554 188.406 174.113 188.077C173.86 187.885 173.582 187.727 173.288 187.606C173.114 187.537 172.934 187.483 172.751 187.444C172.559 187.389 172.392 187.389 172.341 187.475C172.29 187.561 172.316 187.52 172.341 187.581C172.4 187.643 172.469 187.696 172.543 187.738C172.706 187.843 172.875 187.938 173.05 188.022C173.338 188.167 173.64 188.282 173.951 188.366C174.251 188.422 174.545 188.502 174.832 188.604V188.604Z" fill="#263238"/>
<path d="M174.717 188.731C174.541 188.466 174.456 188.152 174.474 187.835C174.458 187.492 174.501 187.15 174.6 186.822C174.662 186.626 174.742 186.436 174.838 186.255C174.889 186.133 174.97 186.027 175.074 185.945C175.178 185.864 175.301 185.81 175.431 185.789C175.514 185.791 175.594 185.816 175.663 185.861C175.732 185.907 175.787 185.972 175.821 186.047C175.87 186.157 175.902 186.273 175.917 186.392C175.947 186.598 175.947 186.808 175.917 187.014C175.863 187.363 175.726 187.693 175.517 187.977C175.152 188.483 174.772 188.564 174.767 188.534C174.762 188.503 175.051 188.311 175.33 187.85C175.593 187.431 175.694 186.93 175.613 186.442C175.583 186.245 175.507 186.083 175.436 186.103C175.365 186.123 175.188 186.25 175.107 186.407C175.018 186.57 174.942 186.739 174.879 186.913C174.775 187.212 174.714 187.524 174.697 187.84C174.671 188.377 174.767 188.716 174.717 188.731Z" fill="#263238"/>
<path d="M168.376 103.698L177.162 192.037L165.808 192.569L152.312 120.074L152.479 192.128L140.421 191.971L135.777 102.762L168.376 103.698Z" fill="#263238"/>
<path d="M143.233 110.005C143.13 110.344 142.957 110.657 142.727 110.926C142.227 111.611 141.587 112.181 140.848 112.597C140.108 113.014 139.288 113.271 138.442 113.352C138.096 113.404 137.742 113.383 137.404 113.291C137.404 113.245 137.799 113.261 138.417 113.164C140.045 112.915 141.524 112.077 142.575 110.81C143.026 110.329 143.193 109.985 143.233 110.005Z" fill="#455A64"/>
<path d="M169.328 111C168.988 111.214 168.613 111.369 168.219 111.455C166.319 111.966 164.295 111.719 162.573 110.767C162.21 110.591 161.883 110.351 161.605 110.058C161.631 110.022 162.006 110.286 162.659 110.6C163.51 111.011 164.424 111.28 165.363 111.395C166.3 111.506 167.25 111.465 168.174 111.273C168.888 111.121 169.313 110.959 169.328 111Z" fill="#455A64"/>
<path d="M154.333 117.704C154.333 117.704 154.287 117.851 154.054 117.952C153.885 118.01 153.705 118.026 153.528 117.998C153.352 117.971 153.185 117.901 153.041 117.795C152.654 117.45 152.393 116.985 152.302 116.474C152.165 115.922 152.018 115.334 151.861 114.722C151.552 113.476 151.294 112.347 151.117 111.522C150.992 111.083 150.913 110.634 150.879 110.18C151.059 110.599 151.198 111.035 151.294 111.481C151.517 112.291 151.801 113.41 152.115 114.656C152.266 115.274 152.408 115.861 152.54 116.413C152.607 116.881 152.823 117.314 153.158 117.648C153.277 117.747 153.417 117.816 153.567 117.852C153.717 117.888 153.873 117.89 154.024 117.856C154.131 117.815 154.235 117.764 154.333 117.704Z" fill="#455A64"/>
<path d="M153.093 110.172C153.093 110.172 153.149 110.121 153.271 110.121C153.441 110.128 153.604 110.195 153.731 110.308C153.831 110.395 153.909 110.502 153.96 110.624C154.011 110.745 154.033 110.876 154.025 111.007C154 111.172 153.924 111.325 153.807 111.445C153.691 111.564 153.541 111.645 153.377 111.676C153.216 111.718 153.046 111.709 152.891 111.65C152.736 111.591 152.603 111.485 152.511 111.346C152.447 111.232 152.41 111.104 152.405 110.973C152.4 110.842 152.426 110.711 152.481 110.592C152.544 110.433 152.663 110.301 152.815 110.222C152.926 110.172 152.992 110.182 152.997 110.197C153.002 110.212 152.759 110.308 152.653 110.658C152.623 110.75 152.613 110.847 152.624 110.944C152.636 111.04 152.668 111.132 152.719 111.215C152.786 111.307 152.88 111.375 152.988 111.412C153.096 111.448 153.212 111.45 153.321 111.417C153.433 111.399 153.537 111.347 153.619 111.268C153.702 111.189 153.758 111.088 153.782 110.977C153.788 110.884 153.775 110.792 153.744 110.704C153.713 110.617 153.664 110.538 153.6 110.47C153.357 110.177 153.093 110.217 153.093 110.172Z" fill="#455A64"/>
<path d="M152.14 189.267C151.566 189.314 150.989 189.323 150.413 189.293C149.355 189.293 147.881 189.293 146.266 189.323C144.65 189.353 143.182 189.444 142.118 189.51C141.546 189.571 140.971 189.594 140.396 189.581C140.542 189.523 140.696 189.489 140.852 189.48C141.146 189.434 141.576 189.379 142.103 189.323C143.162 189.212 144.635 189.1 146.261 189.06C147.886 189.019 149.355 189.06 150.424 189.105C150.955 189.131 151.381 189.161 151.679 189.196C151.836 189.194 151.992 189.218 152.14 189.267V189.267Z" fill="#455A64"/>
<path d="M176.57 188.18C176.57 188.256 174.089 188.616 171 188.99C167.911 189.365 165.429 189.613 165.399 189.542C165.368 189.471 167.885 189.107 170.969 188.732C174.053 188.357 176.565 188.109 176.57 188.18Z" fill="#455A64"/>
<path d="M169.409 153.129C168.695 154.561 167.906 155.953 167.044 157.301C166.254 158.698 165.389 160.05 164.451 161.352C165.163 159.918 165.952 158.523 166.816 157.175C167.602 155.777 168.467 154.426 169.409 153.129V153.129Z" fill="#455A64"/>
<path d="M148.089 154.625C147.081 157.265 145.907 159.839 144.574 162.332C145.04 160.997 145.586 159.691 146.21 158.423C146.758 157.119 147.385 155.851 148.089 154.625V154.625Z" fill="#455A64"/>
<path d="M149.132 162.26C148.812 161.909 148.521 161.533 148.261 161.136C147.754 160.432 147.015 159.46 146.184 158.417C145.354 157.374 144.559 156.457 143.987 155.794C143.653 155.455 143.35 155.087 143.08 154.695C143.459 154.985 143.808 155.31 144.123 155.668C144.736 156.3 145.546 157.187 146.387 158.255C147.228 159.323 147.932 160.28 148.413 161.03C148.696 161.413 148.937 161.825 149.132 162.26V162.26Z" fill="#455A64"/>
<path d="M137.662 57.5547C137.662 57.5547 131.656 60.8055 130.435 61.5093C129.114 62.279 125.199 70.0059 125.64 73.9403C126.08 77.8746 126.389 77.186 126.075 77.8696C125.761 78.5532 124.698 83.3028 125.604 85.237C126.511 87.1713 129.944 91.0398 131.944 91.4145C133.945 91.7892 144.18 77.586 145.365 74.7302C146.073 72.8224 146.267 70.7617 145.927 68.7552L140.7 66.4311L137.662 57.5547Z" fill="#9E95C4"/>
<path d="M132.998 85.8571V102.805C132.998 105.058 135.667 109.089 135.667 109.089H168.559C168.559 109.089 169.982 101.974 169.744 98.7742C169.506 95.574 167.019 65.5928 167.019 65.5928L166.189 57.2886L157.418 55.1569L156.957 53.2884L143.638 51.7188L142.929 54.8024L137.252 57.795C137.252 58.2558 132.998 85.8571 132.998 85.8571Z" fill="#9E95C4"/>
<path d="M166.188 57.2891C168.133 58.3945 169.755 59.9901 170.892 61.9171C172.594 64.9553 178.033 82.2017 178.256 84.3537C178.478 86.5057 178.595 89.4526 178.256 89.6754C177.916 89.8982 179.269 97.8328 179.729 99.9898C180.19 102.147 181.188 107.752 180.849 110.471C180.655 111.878 180.547 113.295 180.524 114.715L173.045 112.482L173.303 109.864C173.303 109.864 171.814 105.307 170.771 102.056C169.728 98.805 165.555 68.2921 165.555 68.2921L166.188 57.2891Z" fill="#9E95C4"/>
<path d="M169.111 105.978C168.993 106.003 168.872 106.016 168.751 106.019L167.739 106.085C166.847 106.14 165.551 106.201 163.956 106.257C160.755 106.373 156.359 106.454 151.457 106.409C146.555 106.363 142.154 106.221 138.959 106.075C137.364 105.999 136.067 105.933 135.176 105.877L134.163 105.801C134.044 105.802 133.925 105.788 133.809 105.761C133.928 105.746 134.049 105.746 134.168 105.761H135.181L138.974 105.897C142.17 105.994 146.57 106.115 151.462 106.156C156.354 106.196 160.76 106.156 163.956 106.08L167.739 105.994H168.751C168.87 105.974 168.991 105.969 169.111 105.978V105.978Z" fill="#263238"/>
<path d="M146.09 68.8477C146.137 68.9303 146.172 69.0189 146.196 69.111C146.286 69.365 146.362 69.6236 146.424 69.8857C146.66 70.8525 146.75 71.8492 146.692 72.8428C146.597 74.3173 146.254 75.7653 145.679 77.1265C144.972 78.7851 144.067 80.3525 142.985 81.7951C141.005 84.3961 138.685 86.7206 136.088 88.7068C135.105 89.4815 134.29 90.0841 133.718 90.4892L133.059 90.9449C132.984 91.0021 132.902 91.0513 132.816 91.0918C132.816 91.0918 132.882 91.0209 133.029 90.9044L133.657 90.3981C134.209 89.9677 135.004 89.3499 135.971 88.56C138.516 86.5407 140.8 84.214 142.773 81.6331C143.843 80.2062 144.743 78.6599 145.457 77.0253C146.034 75.6909 146.39 74.2714 146.51 72.8225C146.583 71.8449 146.522 70.8619 146.328 69.9009C146.181 69.2274 146.064 68.8578 146.09 68.8477Z" fill="#263238"/>
<path d="M140.588 65.9375C140.453 66.0994 140.298 66.244 140.127 66.3679C139.829 66.6363 139.398 67.0312 138.897 67.5426C137.884 68.5553 136.638 70.1301 135.099 71.7201C133.777 73.091 132.237 74.2324 130.541 75.0974C130.03 75.3589 129.504 75.5905 128.966 75.7911C128.774 75.8776 128.571 75.9389 128.363 75.9734C128.363 75.9278 129.194 75.624 130.455 74.9354C132.095 74.0303 133.59 72.8851 134.891 71.5378C136.41 69.9579 137.686 68.4034 138.745 67.411C139.159 67.0137 139.593 66.6385 140.046 66.2869C140.215 66.1527 140.396 66.0357 140.588 65.9375V65.9375Z" fill="#263238"/>
<path d="M151.781 52.6797C151.786 52.7251 151.786 52.771 151.781 52.8164C151.781 52.9227 151.781 53.0544 151.822 53.2215C151.847 53.5962 151.883 54.1177 151.933 54.7811C152.019 56.1381 152.136 58.0977 152.262 60.5282C152.516 65.379 152.83 72.0832 153.068 79.4911C153.306 86.8991 153.422 93.6184 153.392 98.4794C153.392 99.6946 153.392 100.793 153.346 101.761C153.301 102.728 153.306 103.553 153.265 104.232C153.225 104.91 153.204 105.421 153.184 105.796C153.184 105.963 153.184 106.095 153.159 106.201C153.164 106.247 153.164 106.293 153.159 106.338C153.154 106.292 153.154 106.247 153.159 106.201V105.796C153.159 105.418 153.169 104.897 153.189 104.232C153.215 103.553 153.22 102.712 153.225 101.755C153.23 100.798 153.225 99.6946 153.225 98.4794C153.225 93.6234 153.068 86.9142 152.825 79.5012C152.582 72.0882 152.318 65.3892 152.095 60.5332C151.994 58.123 151.908 56.1634 151.852 54.7861C151.822 54.1228 151.802 53.6013 151.786 53.2215C151.786 53.0595 151.786 52.9227 151.786 52.8164C151.779 52.7712 151.777 52.7253 151.781 52.6797V52.6797Z" fill="#263238"/>
<path d="M144.893 90.8125C144.56 91.2208 144.183 91.5911 143.769 91.9164C142.805 92.743 141.771 93.485 140.68 94.1342C139.59 94.7854 138.446 95.3427 137.261 95.8001C136.774 96.0116 136.265 96.1662 135.742 96.2609C136.208 96.0241 136.687 95.8128 137.175 95.6279C138.328 95.1225 139.45 94.5476 140.533 93.9063C141.611 93.2592 142.648 92.5456 143.637 91.7695C144.036 91.4258 144.456 91.1062 144.893 90.8125V90.8125Z" fill="#263238"/>
<path d="M167.946 95.5081C167.585 95.3456 167.245 95.1399 166.934 94.8954C166.15 94.3565 165.395 93.7785 164.67 93.1637C163.94 92.5534 163.242 91.9061 162.578 91.2244C162.286 90.9585 162.027 90.6575 161.809 90.3281C162.133 90.5534 162.435 90.8095 162.71 91.0927C163.247 91.5991 163.991 92.2472 164.837 92.9612C165.683 93.6751 166.473 94.2979 167.04 94.7486C167.368 94.9691 167.672 95.2237 167.946 95.5081V95.5081Z" fill="#263238"/>
<path d="M168.259 80.9023C168.293 80.9815 168.315 81.0651 168.325 81.1505C168.366 81.3429 168.411 81.5758 168.472 81.8644C168.593 82.4872 168.745 83.3835 168.902 84.5126C169.314 87.4363 169.554 90.3816 169.621 93.3333C169.708 96.7917 169.571 99.9159 169.439 102.179C169.368 103.314 169.302 104.205 169.247 104.858C169.216 105.147 169.196 105.364 169.176 105.582C169.173 105.668 169.158 105.754 169.13 105.835C169.12 105.749 169.12 105.663 169.13 105.577C169.13 105.379 169.13 105.141 169.156 104.848C169.181 104.174 169.221 103.273 169.267 102.174C169.348 99.9108 169.454 96.7867 169.363 93.3384C169.272 89.8901 169.004 86.7811 168.73 84.5329C168.593 83.4139 168.472 82.5075 168.381 81.8796C168.34 81.591 168.31 81.3733 168.285 81.1555C168.263 81.073 168.254 80.9875 168.259 80.9023V80.9023Z" fill="#263238"/>
<path d="M144.098 70.5826C144.172 70.1837 144.305 69.7981 144.493 69.4382C144.599 69.0465 144.759 68.6715 144.969 68.3242C145.008 68.7399 144.927 69.1581 144.736 69.5293C144.493 70.1724 144.158 70.618 144.098 70.5826Z" fill="#263238"/>
<path d="M141.338 69.2218C141.277 69.1813 141.51 68.7155 141.844 68.2091C142.178 67.7028 142.528 67.2825 142.589 67.323C142.649 67.3635 142.411 67.8294 142.082 68.3357C141.753 68.8421 141.399 69.2623 141.338 69.2218Z" fill="#263238"/>
<path d="M139.449 67.8798C139.404 67.8291 139.753 67.4342 140.27 67.0493C140.786 66.6645 141.283 66.4417 141.308 66.5075C141.333 66.5734 140.938 66.8822 140.427 67.262C139.915 67.6418 139.48 67.9203 139.449 67.8798Z" fill="#263238"/>
<path d="M133.655 72.8934C133.625 72.9846 132.242 72.3415 130.419 72.3111C128.596 72.2807 127.193 72.8985 127.168 72.8175C127.445 72.6387 127.75 72.5053 128.069 72.4225C129.598 71.9225 131.249 71.9439 132.764 72.4833C133.083 72.5661 133.385 72.705 133.655 72.8934V72.8934Z" fill="#263238"/>
<path d="M138.022 66.6305C137.981 66.6305 137.779 66.1799 137.318 65.5115C136.711 64.6417 135.951 63.8901 135.074 63.2937C134.196 62.7013 133.216 62.2772 132.183 62.043C131.378 61.8455 130.871 61.8455 130.871 61.805C130.871 61.7645 130.998 61.7746 131.231 61.7695C131.559 61.7698 131.886 61.8003 132.208 61.8607C133.284 62.0471 134.308 62.4614 135.211 63.0759C136.112 63.682 136.877 64.4703 137.455 65.39C137.628 65.6686 137.777 65.9617 137.9 66.2659C138.001 66.5039 138.042 66.6255 138.022 66.6305Z" fill="#263238"/>
<g opacity="0.3">
<path opacity="0.3" d="M132.674 90.9085C135.869 91.6326 139.288 90.2148 141.592 87.8703C143.896 85.5259 145.243 82.422 146.124 79.2623C146.54 77.7787 147.026 76.447 146.215 75.1406C145.62 76.8816 144.854 78.5592 143.926 80.1485C143.096 81.5192 142.133 82.8048 141.05 83.9866C138.619 86.807 135.879 88.8274 132.674 90.8832" fill="black"/>
</g>
<g opacity="0.3">
<path opacity="0.3" d="M138.944 102.354C140.316 102.641 141.738 102.589 143.086 102.202C143.756 101.998 144.359 101.621 144.836 101.109C145.312 100.596 145.645 99.9673 145.801 99.2852C145.938 99.9247 145.889 100.59 145.66 101.203C145.431 101.816 145.032 102.35 144.509 102.744C143.98 103.127 143.377 103.397 142.738 103.537C142.099 103.676 141.438 103.682 140.797 103.554C140.388 103.514 139.993 103.382 139.642 103.169C139.292 102.955 138.994 102.664 138.771 102.318" fill="black"/>
</g>
<g opacity="0.3">
<path opacity="0.3" d="M136.26 105.836C139.243 107.122 142.843 107.578 146.094 107.861C149.447 108.236 152.821 108.378 156.192 108.287C159.574 108.198 162.902 107.419 165.971 105.998C165.971 105.998 153.903 106.337 150.207 106.195C146.51 106.054 136.26 105.836 136.26 105.836Z" fill="black"/>
</g>
<path d="M175.142 110.84C175.254 111.191 175.282 111.564 175.223 111.929C175.244 112.296 175.18 112.663 175.035 113.002C174.959 113.002 174.928 112.496 174.959 111.913C174.934 111.546 174.997 111.178 175.142 110.84V110.84Z" fill="#263238"/>
<path d="M178.135 111.469C178.296 111.854 178.354 112.275 178.302 112.689C178.332 113.106 178.255 113.525 178.079 113.904C177.998 113.503 177.984 113.09 178.038 112.684C178.006 112.276 178.038 111.866 178.135 111.469Z" fill="#263238"/>
<path d="M151.74 52.582C151.995 52.9597 152.331 53.2761 152.723 53.5087C153.082 53.7314 153.553 53.9188 154.065 54.1872C154.199 54.2555 154.329 54.3316 154.455 54.415C154.604 54.5052 154.728 54.6325 154.814 54.7847C154.857 54.8755 154.876 54.9759 154.869 55.076C154.861 55.1762 154.829 55.2729 154.774 55.3568C154.681 55.5036 154.569 55.6366 154.439 55.7518C154.315 55.8786 154.169 55.9831 154.009 56.0607C153.92 56.0996 153.825 56.1197 153.728 56.1197C153.631 56.1197 153.535 56.0996 153.447 56.0607C153.175 55.8837 152.958 55.6348 152.819 55.3417C152.557 54.9116 152.33 54.4612 152.14 53.9948C151.942 53.5702 151.811 53.1176 151.75 52.6529C151.791 52.6529 151.948 53.1593 152.312 53.9239C152.526 54.3723 152.768 54.807 153.037 55.2252C153.194 55.453 153.346 55.7315 153.543 55.8379C153.741 55.9442 154.05 55.7822 154.252 55.5645C154.455 55.3467 154.688 55.0935 154.576 54.8961C154.411 54.6767 154.193 54.5025 153.943 54.3897C153.437 54.1213 152.981 53.8834 152.616 53.6555C152.406 53.5448 152.219 53.3927 152.069 53.2082C151.918 53.0237 151.806 52.8107 151.74 52.582V52.582Z" fill="#263238"/>
<g opacity="0.3">
<path opacity="0.3" d="M133.667 72.7461C133.014 73.3492 132.214 73.7716 131.348 73.9715C130.485 74.1697 129.65 74.4724 128.861 74.8728C128.735 74.9354 128.627 75.0296 128.547 75.1462C128.506 75.203 128.484 75.2712 128.484 75.3412C128.484 75.4111 128.506 75.4793 128.547 75.5361C128.669 75.6677 128.886 75.6323 129.054 75.5817C130.832 75.1132 132.431 74.1261 133.647 72.7461" fill="black"/>
</g>
<path d="M151.391 62.8587L141.957 58.3876C141.278 57.9572 141.258 56.747 141.622 55.9318C141.733 55.6982 141.926 55.5137 142.164 55.4137C142.403 55.3137 142.669 55.3052 142.914 55.39L153.204 59.0256L151.391 62.8587Z" fill="#263238"/>
<path d="M154.844 62.083C154.13 64.1084 154.337 65.987 155.259 66.3212C156.181 66.6554 157.543 65.3085 158.257 63.2831C158.971 61.2576 158.789 59.3791 157.847 59.0398C156.905 58.7006 155.558 60.0728 154.844 62.083Z" fill="#455A64"/>
<path d="M151.391 62.8581L154.885 66.1241C154.441 64.8279 154.452 63.419 154.917 62.1301C155.382 60.8412 156.273 59.7494 157.442 59.0352H153.158L151.391 62.8581Z" fill="#263238"/>
<path d="M156.9 59.3594L154.662 65.2938L234.489 156.529L278.487 91.7711L156.9 59.3594Z" fill="#66BBE2"/>
<g opacity="0.8">
<path opacity="0.8" d="M156.9 59.3594L154.662 65.2938L234.489 156.529L278.487 91.7711L156.9 59.3594Z" fill="white"/>
</g>
<path d="M235.8 104.007C235.8 104.308 235.711 104.601 235.544 104.851C235.377 105.101 235.14 105.296 234.862 105.411C234.585 105.526 234.279 105.556 233.985 105.497C233.69 105.439 233.419 105.294 233.207 105.081C232.994 104.869 232.85 104.598 232.791 104.304C232.732 104.009 232.762 103.704 232.877 103.426C232.992 103.148 233.187 102.911 233.437 102.744C233.687 102.577 233.981 102.488 234.281 102.488C234.684 102.488 235.07 102.648 235.355 102.933C235.64 103.218 235.8 103.604 235.8 104.007Z" fill="#66BBE2"/>
<g opacity="0.6">
<path opacity="0.6" d="M235.8 104.007C235.8 104.308 235.711 104.601 235.544 104.851C235.377 105.101 235.14 105.296 234.862 105.411C234.585 105.526 234.279 105.556 233.985 105.497C233.69 105.439 233.419 105.294 233.207 105.081C232.994 104.869 232.85 104.598 232.791 104.304C232.732 104.009 232.762 103.704 232.877 103.426C232.992 103.148 233.187 102.911 233.437 102.744C233.687 102.577 233.981 102.488 234.281 102.488C234.684 102.488 235.07 102.648 235.355 102.933C235.64 103.218 235.8 103.604 235.8 104.007Z" fill="white"/>
</g>
<path d="M204.382 84.8717C204.382 85.0211 204.338 85.1672 204.255 85.2914C204.172 85.4155 204.053 85.5122 203.915 85.5692C203.777 85.6261 203.625 85.6408 203.479 85.6112C203.332 85.5817 203.198 85.5094 203.092 85.4033C202.987 85.2973 202.915 85.1624 202.887 85.0157C202.858 84.869 202.874 84.7172 202.932 84.5794C202.99 84.4417 203.087 84.3242 203.212 84.2419C203.337 84.1596 203.483 84.1162 203.633 84.1172C203.832 84.1185 204.023 84.1986 204.163 84.34C204.303 84.4813 204.382 84.6725 204.382 84.8717V84.8717Z" fill="#66BBE2"/>
<g opacity="0.6">
<path opacity="0.6" d="M204.382 84.8717C204.382 85.0211 204.338 85.1672 204.255 85.2914C204.172 85.4155 204.053 85.5122 203.915 85.5692C203.777 85.6261 203.625 85.6408 203.479 85.6112C203.332 85.5817 203.198 85.5094 203.092 85.4033C202.987 85.2973 202.915 85.1624 202.887 85.0157C202.858 84.869 202.874 84.7172 202.932 84.5794C202.99 84.4417 203.087 84.3242 203.212 84.2419C203.337 84.1596 203.483 84.1162 203.633 84.1172C203.832 84.1185 204.023 84.1986 204.163 84.34C204.303 84.4813 204.382 84.6725 204.382 84.8717V84.8717Z" fill="white"/>
</g>
<path d="M212.956 103.254C212.956 103.404 212.912 103.55 212.829 103.674C212.746 103.798 212.628 103.894 212.491 103.952C212.353 104.009 212.201 104.024 212.055 103.994C211.908 103.965 211.774 103.893 211.668 103.788C211.563 103.682 211.491 103.548 211.462 103.402C211.433 103.255 211.448 103.104 211.505 102.966C211.562 102.828 211.659 102.71 211.783 102.627C211.907 102.544 212.053 102.5 212.202 102.5C212.301 102.5 212.399 102.52 212.491 102.557C212.582 102.595 212.665 102.651 212.735 102.721C212.805 102.791 212.861 102.874 212.899 102.966C212.937 103.057 212.956 103.155 212.956 103.254V103.254Z" fill="#66BBE2"/>
<g opacity="0.6">
<path opacity="0.6" d="M212.956 103.254C212.956 103.404 212.912 103.55 212.829 103.674C212.746 103.798 212.628 103.894 212.491 103.952C212.353 104.009 212.201 104.024 212.055 103.994C211.908 103.965 211.774 103.893 211.668 103.788C211.563 103.682 211.491 103.548 211.462 103.402C211.433 103.255 211.448 103.104 211.505 102.966C211.562 102.828 211.659 102.71 211.783 102.627C211.907 102.544 212.053 102.5 212.202 102.5C212.301 102.5 212.399 102.52 212.491 102.557C212.582 102.595 212.665 102.651 212.735 102.721C212.805 102.791 212.861 102.874 212.899 102.966C212.937 103.057 212.956 103.155 212.956 103.254V103.254Z" fill="white"/>
</g>
<path d="M237.69 94.0949C238.107 94.0949 238.445 93.7571 238.445 93.3404C238.445 92.9237 238.107 92.5859 237.69 92.5859C237.273 92.5859 236.936 92.9237 236.936 93.3404C236.936 93.7571 237.273 94.0949 237.69 94.0949Z" fill="#66BBE2"/>
<g opacity="0.6">
<path opacity="0.6" d="M237.69 94.0949C238.107 94.0949 238.445 93.7571 238.445 93.3404C238.445 92.9237 238.107 92.5859 237.69 92.5859C237.273 92.5859 236.936 92.9237 236.936 93.3404C236.936 93.7571 237.273 94.0949 237.69 94.0949Z" fill="white"/>
</g>
<path d="M174.388 68.3912C174.388 68.5404 174.344 68.6863 174.261 68.8103C174.178 68.9344 174.06 69.0311 173.922 69.0882C173.784 69.1453 173.633 69.1603 173.486 69.1312C173.34 69.102 173.205 69.0302 173.1 68.9247C172.994 68.8192 172.923 68.6847 172.893 68.5384C172.864 68.392 172.879 68.2403 172.936 68.1025C172.993 67.9646 173.09 67.8468 173.214 67.7639C173.338 67.681 173.484 67.6367 173.633 67.6367C173.733 67.6367 173.831 67.6562 173.922 67.6941C174.014 67.7321 174.097 67.7876 174.167 67.8577C174.237 67.9278 174.293 68.0109 174.331 68.1025C174.369 68.194 174.388 68.2921 174.388 68.3912V68.3912Z" fill="#66BBE2"/>
<g opacity="0.6">
<path opacity="0.6" d="M174.388 68.3912C174.388 68.5404 174.344 68.6863 174.261 68.8103C174.178 68.9344 174.06 69.0311 173.922 69.0882C173.784 69.1453 173.633 69.1603 173.486 69.1312C173.34 69.102 173.205 69.0302 173.1 68.9247C172.994 68.8192 172.923 68.6847 172.893 68.5384C172.864 68.392 172.879 68.2403 172.936 68.1025C172.993 67.9646 173.09 67.8468 173.214 67.7639C173.338 67.681 173.484 67.6367 173.633 67.6367C173.733 67.6367 173.831 67.6562 173.922 67.6941C174.014 67.7321 174.097 67.7876 174.167 67.8577C174.237 67.9278 174.293 68.0109 174.331 68.1025C174.369 68.194 174.388 68.2921 174.388 68.3912V68.3912Z" fill="white"/>
</g>
<path d="M267.08 131.419C279.349 113.576 284.86 96.062 279.389 92.3007C273.917 88.5394 259.536 99.9549 247.266 117.798C234.997 135.641 229.486 153.155 234.958 156.916C240.429 160.677 254.811 149.262 267.08 131.419Z" fill="#66BBE2"/>
<g opacity="0.7">
<path opacity="0.7" d="M267.119 131.421C279.403 113.588 284.923 96.0865 279.449 92.3298C273.974 88.5731 259.578 99.9839 247.294 117.817C235.009 135.649 229.489 153.151 234.963 156.908C240.438 160.664 254.834 149.253 267.119 131.421Z" fill="white"/>
</g>
<path d="M154.672 65.2938C154.672 65.2938 157.391 64.033 156.91 59.3594C156.9 59.3594 154.095 61.0607 154.672 65.2938Z" fill="#FAFAFA"/>
<path d="M160.345 61.2581L159.965 67.8407L159.662 61.2581L153.924 60.9543L159.651 60.6504L159.991 54.1641L160.269 60.6555L167.617 60.9796L160.345 61.2581Z" fill="white"/>
<path d="M159.458 60.847L157.975 58.457L159.823 60.5888L159.458 60.847Z" fill="white"/>
<path d="M159.99 60.6783L161.98 58.7188L160.304 61.0024L159.99 60.6783Z" fill="white"/>
<path d="M160.345 61.1562L161.829 63.5462L159.98 61.4145L160.345 61.1562Z" fill="white"/>
<path d="M159.814 61.3229L157.818 63.2825L159.5 61.0039L159.814 61.3229Z" fill="white"/>
<path d="M151.725 57.1648C151.219 56.78 149.948 56.7598 149.948 56.7598C149.948 56.7598 150.373 56.4711 149.441 55.747C149.122 55.4939 147.208 55.7774 147.208 55.7774C147.206 55.5728 147.137 55.3743 147.012 55.2125C146.887 55.0506 146.712 54.9343 146.514 54.8812C146.126 54.774 145.717 54.774 145.329 54.8812C144.686 55.0685 144.017 55.2761 143.987 55.9395L143.744 57.2813H143.719C143.338 57.231 142.953 57.2174 142.569 57.2408C142.432 57.7497 142.331 58.2674 142.265 58.7902C142.367 59.6433 142.625 60.4705 143.025 61.2308L142.913 63.0082L140.533 66.0463L146.013 68.7148C146.013 68.7148 147.025 66.983 147.648 66.1425C148.271 65.3019 149.674 64.6639 149.932 63.9955C150.431 62.6665 150.824 61.3002 151.107 59.9093C151.147 59.627 151.263 59.3607 151.441 59.1381C151.619 58.9154 151.853 58.7446 152.12 58.6434C152.12 58.6434 152.221 57.5497 151.725 57.1648Z" fill="#FFBE9D"/>
<path d="M143.876 56.6094C143.968 57.2645 143.935 57.931 143.78 58.574C143.597 59.6424 143.511 60.5032 143.46 60.5083C143.355 59.8526 143.384 59.1826 143.546 58.5386C143.621 57.89 143.731 57.246 143.876 56.6094V56.6094Z" fill="#EB996E"/>
<path d="M145.557 58.2135C145.56 58.0438 145.575 57.8746 145.602 57.7071C145.587 57.2892 145.633 56.8713 145.739 56.4666C145.819 56.2238 145.984 56.0185 146.205 55.8893C146.38 55.8012 146.571 55.7479 146.767 55.7324C147.081 55.707 147.273 55.6817 147.273 55.7324C147.273 55.783 147.096 55.8488 146.792 55.9197C146.624 55.9539 146.462 56.0137 146.311 56.0969C146.144 56.2097 146.019 56.3756 145.957 56.5678C145.861 56.9553 145.797 57.3499 145.764 57.7477C145.693 58.0565 145.557 58.2287 145.557 58.2135Z" fill="#EB996E"/>
<path d="M150.154 56.6026C149.984 56.6651 149.803 56.6909 149.623 56.6786C149.461 56.6786 149.268 56.6786 149.055 56.6786C148.834 56.6692 148.614 56.7054 148.407 56.7849C148.204 56.8501 148.027 56.9777 147.901 57.1495C147.808 57.305 147.746 57.4769 147.719 57.6558C147.668 57.9748 147.597 58.1622 147.562 58.1622C147.534 57.9843 147.534 57.8033 147.562 57.6254C147.564 57.419 147.62 57.2167 147.724 57.0381C147.864 56.8186 148.075 56.6528 148.321 56.5672C148.554 56.4817 148.803 56.4472 149.05 56.4659L149.633 56.4963C149.962 56.5368 150.159 56.5722 150.154 56.6026Z" fill="#EB996E"/>
<path d="M151.781 57.3286C151.781 57.364 151.554 57.3691 151.199 57.3944C150.755 57.3904 150.326 57.5551 149.999 57.8552C149.716 58.2013 149.553 58.6292 149.533 59.0755C149.492 59.4249 149.477 59.6528 149.442 59.6528C149.372 59.4653 149.346 59.2644 149.366 59.0654C149.34 58.5661 149.504 58.0755 149.827 57.6932C150.022 57.4903 150.272 57.348 150.546 57.283C150.76 57.2318 150.98 57.213 151.199 57.2273C151.399 57.2129 151.599 57.2476 151.781 57.3286V57.3286Z" fill="#EB996E"/>
<path d="M173.409 112.566L171.971 115.924V120.314C171.971 120.314 172.771 122.79 173.282 122.739C173.794 122.688 174.771 122.319 174.634 121.726L175.754 122.334L176.969 122.243C176.969 122.243 180.149 119.159 180.311 118.506C180.425 117.943 180.494 117.373 180.519 116.8L179.567 114.45L173.409 112.566Z" fill="#FFBE9D"/>
<path d="M174.372 117.832C174.407 117.832 174.372 118.075 174.291 118.445C174.151 118.9 174.095 119.377 174.124 119.853C174.216 120.521 174.434 121.165 174.767 121.752C174.767 121.777 174.549 121.63 174.336 121.301C174.06 120.872 173.897 120.381 173.86 119.873C173.827 119.365 173.914 118.857 174.114 118.389C174.25 118.05 174.336 117.822 174.372 117.832Z" fill="#EB996E"/>
<path d="M175.776 120.53C175.74 120.53 175.654 120.338 175.538 120.024C175.477 119.857 175.411 119.654 175.345 119.431C175.288 119.195 175.205 118.966 175.097 118.748C175.079 118.703 175.053 118.661 175.019 118.626C174.985 118.591 174.944 118.563 174.9 118.544C174.855 118.525 174.807 118.515 174.758 118.514C174.71 118.513 174.661 118.522 174.616 118.54C174.535 118.577 174.463 118.629 174.403 118.694C174.343 118.76 174.296 118.836 174.267 118.92C174.155 119.229 174.135 119.462 174.089 119.457C174.044 119.452 174.008 119.234 174.089 118.859C174.117 118.743 174.17 118.634 174.244 118.54C174.319 118.447 174.413 118.371 174.52 118.317C174.59 118.283 174.667 118.263 174.745 118.259C174.823 118.254 174.902 118.266 174.976 118.292C175.125 118.356 175.248 118.468 175.325 118.611C175.443 118.848 175.528 119.1 175.578 119.361C175.634 119.593 175.68 119.801 175.715 119.973C175.786 120.302 175.811 120.52 175.776 120.53Z" fill="#EB996E"/>
<path d="M178.475 118.273C178.671 118.67 178.737 119.118 178.663 119.555C178.675 119.997 178.55 120.432 178.302 120.8C178.293 120.378 178.325 119.955 178.399 119.539C178.388 119.116 178.413 118.692 178.475 118.273V118.273Z" fill="#EB996E"/>
<path d="M175.558 117.461C175.724 117.872 175.79 118.316 175.751 118.757C175.802 119.196 175.752 119.642 175.604 120.059C175.488 119.637 175.448 119.198 175.487 118.762C175.439 118.328 175.463 117.888 175.558 117.461V117.461Z" fill="#EB996E"/>
<path d="M179.791 119.274C179.73 119.249 179.791 118.895 179.791 118.439C179.791 117.983 179.791 117.619 179.872 117.598C179.953 117.578 180.075 117.968 180.055 118.449C180.034 118.93 179.867 119.31 179.791 119.274Z" fill="#EB996E"/>
<path d="M155.365 45.3174C155.229 45.2779 155.084 45.2865 154.954 45.3419C154.824 45.3973 154.717 45.496 154.651 45.6212C154.594 45.7504 154.564 45.8901 154.564 46.0314C154.564 46.1726 154.594 46.3123 154.651 46.4415C154.665 46.4999 154.692 46.5541 154.731 46.5999C154.77 46.6457 154.819 46.6816 154.874 46.7048C154.955 46.738 155.046 46.738 155.127 46.7048C155.204 46.6592 155.274 46.603 155.335 46.5377C155.465 46.3519 155.556 46.1418 155.603 45.92C155.664 45.6972 155.603 45.3731 155.38 45.3275" fill="#EB996E"/>
<path d="M155.067 46.7971C155.067 46.8275 155.067 46.8832 154.981 46.9237C154.92 46.9451 154.856 46.9516 154.792 46.9428C154.729 46.934 154.668 46.9101 154.616 46.8731C154.469 46.7678 154.367 46.6102 154.332 46.4325C154.291 46.2517 154.28 46.065 154.302 45.8806C154.318 45.6869 154.401 45.5049 154.537 45.3661C154.673 45.2273 154.853 45.1406 155.046 45.1211C155.365 45.1211 155.467 45.3388 155.416 45.3793C155.365 45.4198 155.239 45.4148 155.107 45.4907C155.025 45.5401 154.956 45.6089 154.907 45.691C154.857 45.773 154.829 45.866 154.824 45.9616C154.814 46.0914 154.814 46.2218 154.824 46.3515C154.825 46.4345 154.84 46.5167 154.869 46.5946C154.915 46.711 155.026 46.7414 155.067 46.7971Z" fill="#263238"/>
<path d="M167.234 48.2557L171.998 39.9129C169.042 35.1557 167.984 29.4721 169.033 23.9796C170.082 18.487 173.161 13.5829 177.664 10.2314C182.168 6.87996 187.771 5.32358 193.371 5.86832C198.971 6.41305 204.164 9.01947 207.928 13.1751C211.692 17.3308 213.755 22.7351 213.711 28.3254C213.668 33.9157 211.521 39.2876 207.693 43.385C203.865 47.4823 198.632 50.0086 193.024 50.4672C187.416 50.9258 181.838 49.2835 177.387 45.8632V45.8632L167.234 48.2557Z" fill="white"/>
<path d="M167.234 48.136L177.352 45.6572L177.291 45.8318C177.279 45.8219 177.27 45.8098 177.264 45.7963C177.258 45.7828 177.255 45.7681 177.255 45.7532C177.255 45.7384 177.258 45.7237 177.264 45.7101C177.27 45.6966 177.279 45.6845 177.291 45.6747C177.311 45.6604 177.336 45.6527 177.361 45.6527C177.386 45.6527 177.411 45.6604 177.431 45.6747C180.543 48.0339 184.227 49.5391 188.113 50.0387C189.28 50.1891 190.459 50.2416 191.635 50.1958C192.243 50.1958 192.85 50.1434 193.476 50.0911L195.342 49.803C197.982 49.2728 200.505 48.2797 202.792 46.8704C205.367 45.2802 207.588 43.1859 209.319 40.7157C211.05 38.2455 212.253 35.4513 212.857 32.504C213.49 29.2802 213.4 25.9577 212.593 22.7722C211.754 19.446 210.131 16.3648 207.855 13.7823C205.55 11.13 202.636 9.06471 199.358 7.75999C196.215 6.52598 192.832 6.00699 189.46 6.24131C186.274 6.44355 183.172 7.33744 180.373 8.85972C177.766 10.2915 175.473 12.223 173.627 14.5417C171.945 16.6635 170.66 19.0667 169.832 21.6376C169.14 23.9542 168.804 26.3612 168.837 28.7771C168.934 32.6447 170.054 36.4191 172.086 39.7221C172.095 39.7398 172.099 39.7592 172.099 39.7789C172.099 39.7985 172.095 39.8179 172.086 39.8356C169.057 44.9939 167.613 47.4377 167.234 48.0923C167.604 47.429 168.996 44.9502 171.893 39.7308V39.8356C169.804 36.5119 168.641 32.6996 168.52 28.7859C168.469 26.3335 168.796 23.8877 169.489 21.5329C171.232 16.0094 175.046 11.3585 180.144 8.53679C182.992 6.9671 186.155 6.04023 189.407 5.82236C192.851 5.57235 196.307 6.09749 199.516 7.3585C202.858 8.68072 205.831 10.7755 208.19 13.4681C210.514 16.1047 212.172 19.2522 213.024 22.6501C213.775 25.6054 213.911 28.6814 213.422 31.6903C212.934 34.6992 211.832 37.578 210.184 40.1508C208.536 42.7236 206.376 44.9366 203.836 46.6546C201.297 48.3727 198.431 49.5598 195.413 50.1434L193.511 50.4315C192.877 50.4315 192.26 50.4925 191.644 50.5275C190.467 50.5711 189.288 50.5098 188.122 50.3442C184.174 49.8196 180.438 48.2621 177.299 45.8318L177.458 45.6659C177.469 45.6758 177.478 45.6878 177.484 45.7014C177.49 45.7149 177.494 45.7296 177.494 45.7445C177.494 45.7593 177.49 45.774 177.484 45.7876C177.478 45.8011 177.469 45.8132 177.458 45.823H177.414L167.234 48.136Z" fill="#263238"/>
<path d="M71.4802 173.125C72.1232 173.234 72.7377 173.472 73.2868 173.824C73.8358 174.176 74.3083 174.636 74.6758 175.175C75.3986 176.261 75.8667 177.497 76.0454 178.79C76.4608 181.273 75.7897 184.094 74.8676 186.44C72.3339 185.253 70.9826 182.3 70.3891 180.762C69.476 178.324 69.2478 173.358 71.4573 173.125" fill="#E37DA3"/>
<path d="M78.6238 189.937C78.2435 189.318 78.0323 188.611 78.0115 187.885C77.9906 187.159 78.1609 186.44 78.5051 185.801C78.8684 185.169 79.3537 184.615 79.9329 184.171C80.512 183.728 81.1734 183.403 81.8788 183.217C82.1936 183.098 82.5305 183.049 82.8663 183.072C83.2021 183.096 83.5287 183.192 83.8236 183.354C84.0704 183.551 84.2602 183.81 84.3734 184.104C84.4865 184.399 84.519 184.718 84.4673 185.03C84.356 185.651 84.0819 186.233 83.673 186.714C82.349 188.421 80.7603 189.827 78.6055 189.955" fill="#E37DA3"/>
<path d="M77.9863 197.81C77.9312 197.64 77.902 197.463 77.8996 197.285C77.8631 196.947 77.822 196.459 77.79 195.852C77.6702 194.262 77.7669 192.663 78.0776 191.1C78.4004 189.521 79.1469 188.06 80.237 186.873C80.5714 186.523 80.9487 186.216 81.36 185.96C81.4986 185.857 81.6527 185.777 81.8166 185.723C81.2984 186.115 80.8128 186.548 80.3648 187.019C79.3514 188.212 78.653 189.64 78.3333 191.173C78.0355 192.714 77.913 194.283 77.9681 195.852C78.0144 196.503 78.0205 197.157 77.9863 197.81V197.81Z" fill="#263238"/>
<path d="M72.0684 176.895C72.1978 177.156 72.3047 177.428 72.3879 177.707C72.5797 178.237 72.8444 179.008 73.1503 179.962C73.7758 181.87 74.5929 184.527 75.4329 187.466C76.2729 190.406 76.9486 193.108 77.4143 195.057C77.6471 196.034 77.8251 196.828 77.9393 197.376C78.0155 197.659 78.0659 197.947 78.0899 198.239C77.9812 197.968 77.8956 197.689 77.8343 197.404C77.6745 196.815 77.469 196.034 77.2179 195.121C76.7066 193.181 75.9899 190.506 75.159 187.558C74.3281 184.609 73.5429 181.957 72.9677 180.035L72.2921 177.753C72.1937 177.473 72.1189 177.186 72.0684 176.895V176.895Z" fill="#263238"/>
<path d="M75.2509 192.302C74.6176 190.9 73.6597 189.669 72.4562 188.71C71.2528 187.751 69.8384 187.092 68.33 186.788C67.563 186.642 66.6135 186.665 66.1889 187.318C65.7643 187.971 66.125 188.852 66.5861 189.486C67.5717 190.79 68.9213 191.773 70.4649 192.312C72.0084 192.851 73.6769 192.92 75.26 192.512" fill="#E37DA3"/>
<path d="M69.17 188.998C69.3404 188.991 69.511 189.008 69.6768 189.048C69.8726 189.076 70.0663 189.117 70.2565 189.171C70.5132 189.233 70.7662 189.309 71.0144 189.399C71.6629 189.625 72.287 189.915 72.877 190.267C73.596 190.705 74.2664 191.22 74.8766 191.8C75.4788 192.39 76.0146 193.043 76.4744 193.749C76.84 194.325 77.1459 194.937 77.3874 195.575C77.4868 195.819 77.5706 196.069 77.6385 196.324C77.7004 196.512 77.7477 196.704 77.78 196.899C77.8273 197.062 77.8504 197.231 77.8485 197.401C77.7937 197.401 77.6568 196.707 77.2048 195.648C76.9364 195.032 76.614 194.441 76.2416 193.882C75.7806 193.201 75.253 192.568 74.6665 191.992C74.0707 191.426 73.4209 190.92 72.7263 190.481C72.1564 190.124 71.556 189.819 70.9322 189.568C69.8731 189.167 69.1609 189.052 69.17 188.998Z" fill="#263238"/>
<path d="M177.88 29.248H180.292V27.394C180.292 27.022 180.304 26.596 180.328 26.116C180.364 25.624 180.388 25.198 180.4 24.838H180.328C180.184 25.15 180.034 25.468 179.878 25.792C179.722 26.116 179.56 26.44 179.392 26.764L177.88 29.248ZM180.292 34V31.264H175.342V29.446L179.518 22.57H182.758V29.248H184.072V31.264H182.758V34H180.292ZM189.262 34.216C188.038 34.216 187.048 33.706 186.292 32.686C185.548 31.666 185.176 30.184 185.176 28.24C185.176 26.296 185.548 24.832 186.292 23.848C187.048 22.852 188.038 22.354 189.262 22.354C190.486 22.354 191.47 22.852 192.214 23.848C192.97 24.832 193.348 26.296 193.348 28.24C193.348 30.184 192.97 31.666 192.214 32.686C191.47 33.706 190.486 34.216 189.262 34.216ZM189.262 32.164C189.562 32.164 189.832 32.056 190.072 31.84C190.312 31.612 190.498 31.216 190.63 30.652C190.774 30.088 190.846 29.284 190.846 28.24C190.846 27.196 190.774 26.398 190.63 25.846C190.498 25.294 190.312 24.916 190.072 24.712C189.832 24.508 189.562 24.406 189.262 24.406C188.974 24.406 188.71 24.508 188.47 24.712C188.23 24.916 188.038 25.294 187.894 25.846C187.75 26.398 187.678 27.196 187.678 28.24C187.678 29.284 187.75 30.088 187.894 30.652C188.038 31.216 188.23 31.612 188.47 31.84C188.71 32.056 188.974 32.164 189.262 32.164ZM196.9 29.248H199.312V27.394C199.312 27.022 199.324 26.596 199.348 26.116C199.384 25.624 199.408 25.198 199.42 24.838H199.348C199.204 25.15 199.054 25.468 198.898 25.792C198.742 26.116 198.58 26.44 198.412 26.764L196.9 29.248ZM199.312 34V31.264H194.362V29.446L198.538 22.57H201.778V29.248H203.092V31.264H201.778V34H199.312ZM205.725 29.842L205.347 24.334L205.257 21.94H207.921L207.831 24.334L207.453 29.842H205.725ZM206.589 34.216C206.133 34.216 205.749 34.06 205.437 33.748C205.137 33.424 204.987 33.028 204.987 32.56C204.987 32.08 205.137 31.684 205.437 31.372C205.749 31.048 206.133 30.886 206.589 30.886C207.045 30.886 207.423 31.048 207.723 31.372C208.035 31.684 208.191 32.08 208.191 32.56C208.191 33.028 208.035 33.424 207.723 33.748C207.423 34.06 207.045 34.216 206.589 34.216Z" fill="#444444"/>
</svg>
