<svg width="102" height="102" viewBox="0 0 102 102" fill="none" xmlns="http://www.w3.org/2000/svg">
  <path
    d="M63.0146 32.6902C63.9823 34.6134 66.4648 36.4054 68.529 36.7358L91.1732 40.0194C93.3095 40.3148 93.766 41.7989 92.2102 43.287L75.9375 59.2737C74.3932 60.7067 73.4705 63.6589 73.8356 65.7488L77.7229 88.3585C78.0909 90.4347 76.869 91.3253 74.9437 90.3343L54.7187 79.7158C52.8158 78.6866 49.7388 78.7305 47.8354 79.6848L27.6544 90.3427C25.7533 91.3549 24.5138 90.4162 24.8404 88.3509L28.6826 65.7793C29.048 63.7007 28.0932 60.7598 26.5449 59.274L10.1254 43.3038C8.57676 41.8539 9.11264 40.3649 11.2192 40.0503L33.8246 36.7206C35.9036 36.4002 38.3857 34.6415 39.378 32.7248L49.4133 12.2012C50.3673 10.2619 51.8723 10.2795 52.8508 12.2194L63.0146 32.6902Z"
    fill="#FFCC00">
    <animateTransform attributeName="transform" type="rotate" repeatCount="indefinite" dur="2.5s"
      values="0 51 51;360 51 51" keyTimes="0;1" />
  </path>
</svg>